<?xml version="1.0" encoding="UTF-8" standalone="no"?>
<!-- Created with Inkscape (http://www.inkscape.org/) -->

<svg
   xmlns:dc="http://purl.org/dc/elements/1.1/"
   xmlns:cc="http://creativecommons.org/ns#"
   xmlns:rdf="http://www.w3.org/1999/02/22-rdf-syntax-ns#"
   xmlns:svg="http://www.w3.org/2000/svg"
   xmlns="http://www.w3.org/2000/svg"
   xmlns:sodipodi="http://sodipodi.sourceforge.net/DTD/sodipodi-0.dtd"
   xmlns:inkscape="http://www.inkscape.org/namespaces/inkscape"
   width="1920px"
   height="800px"
   viewBox="0 0 1920 800"
   version="1.1"
   id="SVGRoot"
   inkscape:version="0.92.4 (5da689c313, 2019-01-14)"
   sodipodi:docname="boton-madera.svg">
  <defs
     id="defs5207" />
  <sodipodi:namedview
     id="base"
     pagecolor="#ffffff"
     bordercolor="#666666"
     borderopacity="1.0"
     inkscape:pageopacity="0.0"
     inkscape:pageshadow="2"
     inkscape:zoom="0.49497475"
     inkscape:cx="512.57217"
     inkscape:cy="470.78607"
     inkscape:document-units="px"
     inkscape:current-layer="layer1"
     showgrid="false"
     inkscape:window-width="1920"
     inkscape:window-height="966"
     inkscape:window-x="0"
     inkscape:window-y="84"
     inkscape:window-maximized="1"
     showguides="true" />
  <metadata
     id="metadata5210">
    <rdf:RDF>
      <cc:Work
         rdf:about="">
        <dc:format>image/svg+xml</dc:format>
        <dc:type
           rdf:resource="http://purl.org/dc/dcmitype/StillImage" />
        <dc:title />
      </cc:Work>
    </rdf:RDF>
  </metadata>
  <g
     inkscape:label="Capa 1"
     inkscape:groupmode="layer"
     id="layer1">
    <path
       style="fill:#502d16;stroke:#502d16;stroke-width:1px;stroke-linecap:butt;stroke-linejoin:miter;stroke-opacity:1"
       d="m 1731.7857,672.5 61.0714,-9.64286 c 0,0 13.5715,-133.57143 -1.4285,-158.57143 -15,-25 35,-145.71428 35,-145.71428 0,0 11.4285,-29.28572 -14.2857,-39.28572 0,0 41.4285,-43.57142 44.2857,-87.85714 2.8571,-44.28571 46.4285,-103.57143 46.4285,-103.57143 0,0 -139.2857,-14.28571 -404.2857,11.42857 0,0 -357.1428,47.85715 -455,37.14286 0,0 -417.14283,-15 -617.14283,-39.28571 0,0 -170,-40.000004 -251.42857,-29.28572 L 55.55839,111.07596 90,182.85714 807.14286,352.14286 Z"
       id="path5778"
       inkscape:connector-curvature="0" />
    <path
       style="fill:#a05a2c;stroke:#502d16;stroke-width:1px;stroke-linecap:butt;stroke-linejoin:miter;stroke-opacity:1;opacity:1;fill-opacity:1"
       d="m 55.55839,111.07596 -2.020305,47.47717 c 0,0 29.294424,73.74114 22.223356,100.00511 l 25.253809,-1.01016 -20.203046,15.15229 c 0,0 18.182745,120.20815 6.060915,143.44166 h 5.050763 l -32.99531,126.71511 -34.285715,66.78572 c 0,0 -3.571428,23.57143 15,24.28571 L 112.5,633.57143 170.71429,632.5 247.5,628.57143 l 41.07143,-3.21429 37.14286,-2.5 61.42857,0.71429 69.28571,-2.5 c 0,0 53.57143,-3.92857 110.35715,9.28571 56.78571,13.21429 68.57142,12.5 68.57142,12.5 0,0 79.64286,3.57143 159.64286,6.78572 l 86.78572,-1.07143 h 45.35714 L 961.78572,650 l 59.64288,3.57143 42.8571,4.28571 52.1429,-0.35714 86.4285,1.07143 102.8572,0.35714 151.0714,-1.42857 47.5,-3.21429 c 0,0 57.8572,-1.42857 119.6429,12.14286 61.7857,13.57143 69.6428,3.92857 69.6428,3.92857 0,0 16.7857,-6.42857 38.2143,2.14286 0,0 11.7857,2.14286 9.6429,-11.07143 -2.1429,-13.21428 -9.6429,-50.35714 -9.6429,-50.35714 0,0 -10,-23.21429 -7.8571,-62.85714 2.1428,-39.64286 -0.3572,-65.71429 -0.3572,-65.71429 0,0 -61.4285,-28.57143 -103.9285,-22.85714 -42.5,5.71428 57.5,-24.28572 102.5,3.21428 l 3.5714,-47.5 c 0,0 35,-28.92857 35.3571,-60 l -1.4285,-36.42857 -112.5,-10.71429 121.7857,-5 c 0,0 48.2143,-126.42857 46.0714,-148.92857 0,0 -69.2857,-6.07143 -150,7.85715 -80.7143,13.92857 -225.7143,36.78571 -274.2857,30.71428 l -238.5714,6.07143 -419.28576,-12.14286 c 0,0 -395.35714,-36.42857 -426.42857,-46.42857 0,0 -224.240361,-23.56236 -250.87018,-29.28118 z"
       id="path5774"
       inkscape:connector-curvature="0" />
    <path
       inkscape:connector-curvature="0"
       id="path5794"
       d="m 1484.4192,615.12678 28.7893,-4.54569 h 24.7488 l 27.2741,11.61676 v 8.58629 c 0,0 -35.8604,8.5863 -59.094,-6.06091 -23.2335,-14.64721 -21.7182,-9.59645 -21.7182,-9.59645 z"
       style="fill:#502d16;stroke:#502d16;stroke-width:1px;stroke-linecap:butt;stroke-linejoin:miter;stroke-opacity:1" />
    <path
       style="fill:#502d16;stroke:#502d16;stroke-width:1.00701094;stroke-linecap:butt;stroke-linejoin:miter;stroke-opacity:1;stroke-miterlimit:4;stroke-dasharray:none"
       d="m 1484.4192,465.12678 28.7893,-4.54569 h 24.7488 l 27.2741,11.61676 v 8.58629 c 0,0 -35.8604,8.5863 -59.094,-6.06091 -23.2335,-14.64721 -21.7182,-9.59645 -21.7182,-9.59645 z"
       id="path5792"
       inkscape:connector-curvature="0" />
    <path
       style="fill:#502d16;stroke:#502d16;stroke-width:1.00701094;stroke-linecap:butt;stroke-linejoin:miter;stroke-opacity:1;stroke-miterlimit:4;stroke-dasharray:none"
       d="m 1484.4192,315.12678 28.7893,-4.54569 h 24.7488 l 27.2741,11.61676 v 8.58629 c 0,0 -35.8604,8.5863 -59.094,-6.06091 -23.2335,-14.64721 -21.7182,-9.59645 -21.7182,-9.59645 z"
       id="path5788"
       inkscape:connector-curvature="0" />
    <ellipse
       style="opacity:1;fill:#999999;fill-opacity:1;fill-rule:nonzero;stroke:#4d4d4d;stroke-width:5;stroke-linecap:round;stroke-linejoin:bevel;stroke-miterlimit:4;stroke-dasharray:none;stroke-opacity:1;paint-order:stroke markers fill"
       id="ellipse5784"
       cx="1657.8478"
       cy="625.66479"
       rx="34.345188"
       ry="14.142136" />
    <path
       style="fill:none;stroke:#502d16;stroke-width:1.01003492;stroke-linecap:butt;stroke-linejoin:miter;stroke-opacity:1;stroke-miterlimit:4;stroke-dasharray:none"
       d="m 90,182.85714 884.28571,24.28572"
       id="path5796"
       inkscape:connector-curvature="0" />
    <path
       style="fill:none;stroke:#502d16;stroke-width:1.00701094;stroke-linecap:butt;stroke-linejoin:miter;stroke-opacity:1;stroke-miterlimit:4;stroke-dasharray:none"
       d="M 84.285714,212.85714 974.28571,207.14286"
       id="path5798"
       inkscape:connector-curvature="0" />
    <path
       style="fill:none;stroke:#502d16;stroke-width:1.01003492;stroke-linecap:butt;stroke-linejoin:miter;stroke-opacity:1;stroke-miterlimit:4;stroke-dasharray:none"
       d="m 93.571429,232.14286 880.714281,-25"
       id="path5800"
       inkscape:connector-curvature="0" />
    <path
       style="fill:none;stroke:#502d16;stroke-width:1.01003492;stroke-linecap:butt;stroke-linejoin:miter;stroke-opacity:1;stroke-miterlimit:4;stroke-dasharray:none"
       d="m 103.57143,353.57143 802.85714,-9.28572"
       id="path5802"
       inkscape:connector-curvature="0" />
    <path
       style="fill:none;stroke:#502d16;stroke-width:1.01003492;stroke-linecap:butt;stroke-linejoin:miter;stroke-opacity:1;stroke-miterlimit:4;stroke-dasharray:none"
       d="m 103.57143,353.57143 860,2.85714"
       id="path5804"
       inkscape:connector-curvature="0" />
    <path
       style="fill:none;stroke:#502d16;stroke-width:1.01003492;stroke-linecap:butt;stroke-linejoin:miter;stroke-opacity:1;stroke-miterlimit:4;stroke-dasharray:none"
       d="m 104.28571,370 c 2.85715,1.42857 885.00001,2.14286 885.00001,2.14286"
       id="path5806"
       inkscape:connector-curvature="0" />
    <path
       style="fill:none;stroke:#502d16;stroke-width:1.01003492;stroke-linecap:butt;stroke-linejoin:miter;stroke-opacity:1;stroke-miterlimit:4;stroke-dasharray:none"
       d="m 133.57143,387.85714 465.71428,8.57143"
       id="path5808"
       inkscape:connector-curvature="0" />
    <path
       style="fill:none;stroke:#502d16;stroke-width:1.01003492;stroke-linecap:butt;stroke-linejoin:miter;stroke-opacity:1;stroke-miterlimit:4;stroke-dasharray:none"
       d="m 127.85714,450.71429 c 0,0 467.85715,-56.42858 732.85715,28.57142"
       id="path5810"
       inkscape:connector-curvature="0" />
    <path
       style="fill:none;stroke:#502d16;stroke-width:1.00701094;stroke-linecap:butt;stroke-linejoin:miter;stroke-opacity:1;stroke-miterlimit:4;stroke-dasharray:none"
       d="m 70,497.85714 890,-2.14285"
       id="path5812"
       inkscape:connector-curvature="0" />
    <path
       style="fill:none;stroke:#502d16;stroke-width:1.00701094;stroke-linecap:butt;stroke-linejoin:miter;stroke-opacity:1;stroke-miterlimit:4;stroke-dasharray:none"
       d="M 74.285714,512.14286 H 990.71429"
       id="path5814"
       inkscape:connector-curvature="0" />
    <path
       style="fill:none;stroke:#502d16;stroke-width:1.00701094;stroke-linecap:butt;stroke-linejoin:miter;stroke-opacity:1;stroke-miterlimit:4;stroke-dasharray:none"
       d="m 78.571429,527.14286 c 0,0 855.000011,17.14286 912.142861,-15"
       id="path5816"
       inkscape:connector-curvature="0" />
    <g
       id="g5824"
       style="fill:none;stroke:#502d16;stroke-width:1.707;stroke-miterlimit:4;stroke-dasharray:none">
      <path
         inkscape:connector-curvature="0"
         id="path5818"
         d="M 1415.7143,608.57143 C 1371.4286,610 1211.4286,585.71429 1211.4286,585.71429 c 0,0 -108.5715,-21.42858 98.5714,-32.85715"
         style="fill:none;stroke:#502d16;stroke-width:1.707;stroke-linecap:butt;stroke-linejoin:miter;stroke-opacity:1;stroke-miterlimit:4;stroke-dasharray:none" />
      <path
         inkscape:connector-curvature="0"
         id="path5820"
         d="m 1310,552.85714 384.2857,-11.42857"
         style="fill:none;stroke:#502d16;stroke-width:1.707;stroke-linecap:butt;stroke-linejoin:miter;stroke-opacity:1;stroke-miterlimit:4;stroke-dasharray:none" />
    </g>
    <g
       id="g5830"
       transform="matrix(1.7208384,0,0,1.0844065,-1234.7455,-59.372507)"
       style="fill:none;stroke:#502d16;stroke-width:0.00000005;stroke-miterlimit:4;stroke-dasharray:none">
      <path
         style="fill:none;stroke:#502d16;stroke-width:0.00000005;stroke-linecap:butt;stroke-linejoin:miter;stroke-opacity:1;stroke-miterlimit:4;stroke-dasharray:none"
         d="M 1415.7143,608.57143 C 1371.4286,610 1211.4286,585.71429 1211.4286,585.71429 c 0,0 -108.5715,-21.42858 98.5714,-32.85715"
         id="path5826"
         inkscape:connector-curvature="0" />
      <path
         style="fill:none;stroke:#502d16;stroke-width:0.00000005;stroke-linecap:butt;stroke-linejoin:miter;stroke-opacity:1;stroke-miterlimit:4;stroke-dasharray:none"
         d="m 1310,552.85714 384.2857,-11.42857"
         id="path5828"
         inkscape:connector-curvature="0" />
    </g>
    <g
       id="g5836"
       transform="translate(0,-138)"
       style="fill:none;stroke:#502d16;stroke-width:1.00701094;stroke-miterlimit:4;stroke-dasharray:none">
      <path
         style="fill:none;stroke:#502d16;stroke-width:1.00701094;stroke-linecap:butt;stroke-linejoin:miter;stroke-opacity:1;stroke-miterlimit:4;stroke-dasharray:none"
         d="M 1415.7143,608.57143 C 1371.4286,610 1211.4286,585.71429 1211.4286,585.71429 c 0,0 -108.5715,-21.42858 98.5714,-32.85715"
         id="path5832"
         inkscape:connector-curvature="0" />
      <path
         style="fill:none;stroke:#502d16;stroke-width:1.00701094;stroke-linecap:butt;stroke-linejoin:miter;stroke-opacity:1;stroke-miterlimit:4;stroke-dasharray:none"
         d="m 1310,552.85714 384.2857,-11.42857"
         id="path5834"
         inkscape:connector-curvature="0" />
    </g>
    <g
       transform="matrix(1.7208384,0,0,1.0844065,-1234.7455,-197.37251)"
       id="g5842"
       style="fill:none;stroke:#502d16;stroke-width:0.00000005;stroke-miterlimit:4;stroke-dasharray:none">
      <path
         inkscape:connector-curvature="0"
         id="path5838"
         d="M 1415.7143,608.57143 C 1371.4286,610 1211.4286,585.71429 1211.4286,585.71429 c 0,0 -108.5715,-21.42858 98.5714,-32.85715"
         style="fill:none;stroke:#502d16;stroke-width:0.00000005;stroke-linecap:butt;stroke-linejoin:miter;stroke-opacity:1;stroke-miterlimit:4;stroke-dasharray:none" />
      <path
         inkscape:connector-curvature="0"
         id="path5840"
         d="m 1310,552.85714 384.2857,-11.42857"
         style="fill:none;stroke:#502d16;stroke-width:0.00000005;stroke-linecap:butt;stroke-linejoin:miter;stroke-opacity:1;stroke-miterlimit:4;stroke-dasharray:none" />
    </g>
    <g
       transform="translate(0,-298)"
       id="g5848"
       style="fill:none;stroke:#502d16;stroke-width:1.00701094;stroke-miterlimit:4;stroke-dasharray:none">
      <path
         inkscape:connector-curvature="0"
         id="path5844"
         d="M 1415.7143,608.57143 C 1371.4286,610 1211.4286,585.71429 1211.4286,585.71429 c 0,0 -108.5715,-21.42858 98.5714,-32.85715"
         style="fill:none;stroke:#502d16;stroke-width:1.00701094;stroke-linecap:butt;stroke-linejoin:miter;stroke-opacity:1;stroke-miterlimit:4;stroke-dasharray:none" />
      <path
         inkscape:connector-curvature="0"
         id="path5846"
         d="m 1310,552.85714 384.2857,-11.42857"
         style="fill:none;stroke:#502d16;stroke-width:1.00701094;stroke-linecap:butt;stroke-linejoin:miter;stroke-opacity:1;stroke-miterlimit:4;stroke-dasharray:none" />
    </g>
    <g
       id="g5854"
       transform="matrix(1.7208384,0,0,1.0844065,-1234.7455,-357.37251)"
       style="fill:none;stroke:#502d16;stroke-width:0.00000005;stroke-miterlimit:4;stroke-dasharray:none">
      <path
         style="fill:none;stroke:#502d16;stroke-width:0.00000005;stroke-linecap:butt;stroke-linejoin:miter;stroke-opacity:1;stroke-miterlimit:4;stroke-dasharray:none"
         d="M 1415.7143,608.57143 C 1371.4286,610 1211.4286,585.71429 1211.4286,585.71429 c 0,0 -108.5715,-21.42858 98.5714,-32.85715"
         id="path5850"
         inkscape:connector-curvature="0" />
      <path
         style="fill:none;stroke:#502d16;stroke-width:0.00000005;stroke-linecap:butt;stroke-linejoin:miter;stroke-opacity:1;stroke-miterlimit:4;stroke-dasharray:none"
         d="m 1310,552.85714 384.2857,-11.42857"
         id="path5852"
         inkscape:connector-curvature="0" />
    </g>
    <path
       style="fill:none;stroke:#502d16;stroke-width:1.00701094;stroke-linecap:butt;stroke-linejoin:miter;stroke-opacity:1;stroke-miterlimit:4;stroke-dasharray:none"
       d="m 1040.7143,205.71429 601.4286,1.42857"
       id="path5856"
       inkscape:connector-curvature="0" />
    <path
       style="fill:none;stroke:#502d16;stroke-width:1.00701094;stroke-linecap:butt;stroke-linejoin:miter;stroke-opacity:1;stroke-miterlimit:4;stroke-dasharray:none"
       d="M 1051.4286,220.71429 1655,219.28571"
       id="path5860"
       inkscape:connector-curvature="0" />
    <path
       style="fill:none;stroke:#502d16;stroke-width:1.00701094;stroke-linecap:butt;stroke-linejoin:miter;stroke-opacity:1;stroke-miterlimit:4;stroke-dasharray:none"
       d="M 1082.8571,341.42857 1705,347.85714"
       id="path5862"
       inkscape:connector-curvature="0" />
    <path
       style="fill:none;stroke:#502d16;stroke-width:1.00701094;stroke-linecap:butt;stroke-linejoin:miter;stroke-opacity:1;stroke-miterlimit:4;stroke-dasharray:none"
       d="m 1094.2857,356.42857 635,6.42857"
       id="path5866"
       inkscape:connector-curvature="0" />
    <path
       style="fill:none;stroke:#502d16;stroke-width:1.00701094;stroke-linecap:butt;stroke-linejoin:miter;stroke-opacity:1;stroke-miterlimit:4;stroke-dasharray:none"
       d="m 1110,380 594.2857,-5.71429"
       id="path5868"
       inkscape:connector-curvature="0" />
    <path
       style="fill:none;stroke:#502d16;stroke-width:1.00701094;stroke-linecap:butt;stroke-linejoin:miter;stroke-opacity:1;stroke-miterlimit:4;stroke-dasharray:none"
       d="m 1105,491.42857 588.5714,12.85714"
       id="path5870"
       inkscape:connector-curvature="0" />
    <path
       style="fill:none;stroke:#502d16;stroke-width:1.00701094;stroke-linecap:butt;stroke-linejoin:miter;stroke-opacity:1;stroke-miterlimit:4;stroke-dasharray:none"
       d="m 1105,507.14286 608.5714,10.71428"
       id="path5872"
       inkscape:connector-curvature="0" />
    <path
       style="fill:none;stroke:#502d16;stroke-width:1.00701094;stroke-linecap:butt;stroke-linejoin:miter;stroke-opacity:1;stroke-miterlimit:4;stroke-dasharray:none"
       d="m 1085,524.28571 393.5714,-2.85714"
       id="path5874"
       inkscape:connector-curvature="0" />
    <ellipse
       ry="14.142136"
       rx="34.345188"
       cy="215.66479"
       cx="1705.8478"
       id="ellipse5876"
       style="opacity:1;fill:#999999;fill-opacity:1;fill-rule:nonzero;stroke:#4d4d4d;stroke-width:5;stroke-linecap:round;stroke-linejoin:bevel;stroke-miterlimit:4;stroke-dasharray:none;stroke-opacity:1;paint-order:stroke markers fill" />
    <ellipse
       style="opacity:1;fill:#999999;fill-opacity:1;fill-rule:nonzero;stroke:#4d4d4d;stroke-width:5;stroke-linecap:round;stroke-linejoin:bevel;stroke-miterlimit:4;stroke-dasharray:none;stroke-opacity:1;paint-order:stroke markers fill"
       id="ellipse5878"
       cx="131.84778"
       cy="163.66479"
       rx="34.345188"
       ry="14.142136" />
    <ellipse
       ry="14.142136"
       rx="34.345188"
       cy="597.66479"
       cx="131.84778"
       id="ellipse5880"
       style="opacity:1;fill:#999999;fill-opacity:1;fill-rule:nonzero;stroke:#4d4d4d;stroke-width:5;stroke-linecap:round;stroke-linejoin:bevel;stroke-miterlimit:4;stroke-dasharray:none;stroke-opacity:1;paint-order:stroke markers fill" />
    <text
       xml:space="preserve"
       style="font-style:normal;font-weight:normal;font-size:373.85101318px;line-height:1.25;font-family:sans-serif;letter-spacing:0px;word-spacing:0px;display:inline;fill:#f1f29c;fill-opacity:1;stroke:#bf890b;stroke-width:9.34627628;stroke-opacity:1;"
       x="210.72614"
       y="553.65594"
       id="text9530"
       transform="scale(1.1070424,0.90330777)"><tspan
         sodipodi:role="line"
         x="210.72614"
         y="553.65594"
         style="font-style:normal;font-variant:normal;font-weight:normal;font-stretch:normal;font-size:384.40194702px;font-family:'Passero One';-inkscape-font-specification:'Passero One, Normal';font-variant-ligatures:normal;font-variant-caps:normal;font-variant-numeric:normal;font-feature-settings:normal;text-align:justify;writing-mode:lr-tb;text-anchor:start;fill:#f1f29c;fill-opacity:1;stroke-width:9.34627628;stroke:#bf890b;stroke-opacity:1;"
         id="tspan9532">Mapa</tspan></text>
    <path
       style="display:inline;fill:#f1f29c;fill-opacity:1;stroke-width:15;stroke:#bf890b;stroke-opacity:1;stroke-miterlimit:4;stroke-dasharray:none"
       d="m 1422.4507,558.94988 c -47.7516,-68.39484 -92.1357,-144.15279 -105.2085,-179.57713 -5.4329,-14.72199 -6.3512,-19.05202 -6.3837,-30.10497 -0.039,-14.91011 3.2838,-26.3119 11.3889,-39.02196 14.0096,-21.96935 39.2847,-39.15921 68.6511,-46.69014 12.8001,-3.2824 21.2824,-4.24017 37.5827,-4.24254 15.838,-0.003 23.6614,0.83927 36.3456,3.91008 34.3762,8.3235 64.3432,31.19078 75.6775,57.74813 4.9088,11.50266 7.1123,26.22048 5.4161,36.17856 -3.1237,18.33835 -18.5758,52.30284 -43.1179,94.77627 -17.1668,29.70951 -72.339,114.70046 -74.4579,114.70046 -0.2914,0 -2.9462,-3.45478 -5.8939,-7.67676 z m 13.0206,-181.38425 c 12.5008,-1.82444 24.5757,-10.8253 27.8789,-20.78094 7.8615,-23.69403 -24.1335,-43.19008 -52.4157,-31.9398 -5.0296,2.00296 -11.4552,6.7434 -14.4429,10.66041 -6.2811,8.23475 -6.369,19.48062 -0.2173,27.91987 2.6286,3.60652 9.6307,9.02913 14.6051,11.31013 6.4774,2.97018 16.0701,4.07403 24.5927,2.83033 z"
       id="path9599"
       inkscape:connector-curvature="0" />
  </g>
</svg>
