<?xml version="1.0" encoding="UTF-8" standalone="no"?>
<!-- Created with Inkscape (http://www.inkscape.org/) -->

<svg
   xmlns:dc="http://purl.org/dc/elements/1.1/"
   xmlns:cc="http://creativecommons.org/ns#"
   xmlns:rdf="http://www.w3.org/1999/02/22-rdf-syntax-ns#"
   xmlns:svg="http://www.w3.org/2000/svg"
   xmlns="http://www.w3.org/2000/svg"
   xmlns:sodipodi="http://sodipodi.sourceforge.net/DTD/sodipodi-0.dtd"
   xmlns:inkscape="http://www.inkscape.org/namespaces/inkscape"
   width="1920px"
   height="1000px"
   viewBox="0 0 1920 1000"
   version="1.1"
   id="SVGRoot"
   inkscape:version="0.92.4 (5da689c313, 2019-01-14)"
   sodipodi:docname="camino-1.svg">
  <defs
     id="defs815">
    <inkscape:perspective
       sodipodi:type="inkscape:persp3d"
       inkscape:vp_x="0 : 500 : 1"
       inkscape:vp_y="0 : 1000 : 0"
       inkscape:vp_z="1920 : 500 : 1"
       inkscape:persp3d-origin="960 : 333.33333 : 1"
       id="perspective1844" />
  </defs>
  <sodipodi:namedview
     id="base"
     pagecolor="#ffffff"
     bordercolor="#666666"
     borderopacity="1.0"
     inkscape:pageopacity="0.0"
     inkscape:pageshadow="2"
     inkscape:zoom="0.678125"
     inkscape:cx="1272.6267"
     inkscape:cy="500"
     inkscape:document-units="px"
     inkscape:current-layer="layer1"
     showgrid="false"
     inkscape:window-width="1920"
     inkscape:window-height="1050"
     inkscape:window-x="1920"
     inkscape:window-y="0"
     inkscape:window-maximized="1"
     showguides="true" />
  <metadata
     id="metadata818">
    <rdf:RDF>
      <cc:Work
         rdf:about="">
        <dc:format>image/svg+xml</dc:format>
        <dc:type
           rdf:resource="http://purl.org/dc/dcmitype/StillImage" />
        <dc:title />
      </cc:Work>
    </rdf:RDF>
  </metadata>
  <g
     inkscape:label="Capa 1"
     inkscape:groupmode="layer"
     id="layer1">
    <rect
       style="opacity:1;fill:#deaa87;fill-opacity:1;fill-rule:nonzero;stroke:none;stroke-width:1.00041223;stroke-linecap:round;stroke-linejoin:bevel;stroke-miterlimit:4;stroke-dasharray:none;stroke-dashoffset:6;stroke-opacity:1;paint-order:fill markers stroke"
       id="rect1371"
       width="1924.1489"
       height="1009.3458"
       x="-4.0053406"
       y="-2.6702271" />
    <g
       id="g3236"
       transform="matrix(0.85588523,0,0,0.85588523,-272.70195,217.29815)">
      <g
         transform="translate(-135.16936,68.234531)"
         id="g3234">
        <path
           inkscape:connector-curvature="0"
           id="path3230"
           d="m 2139.0331,133.66784 c 0,0 -18.2685,1.50667 -17.5151,37.29013 0.7533,35.78346 16.95,35.78346 16.95,35.78346 l 4.7084,-0.18833 c 0,0 26.9317,-2.63668 23.9184,-40.68015 -3.0134,-38.04346 -28.0617,-32.20511 -28.0617,-32.20511 z"
           style="fill:#f9caca;fill-opacity:1;stroke:#ff99a9;stroke-width:0.47886518px;stroke-linecap:butt;stroke-linejoin:miter;stroke-opacity:1" />
        <path
           inkscape:connector-curvature="0"
           id="path3232"
           d="m 2138.071,243.18112 h 7.3244 l -2.2486,-48.34603 16.0084,-12.14755 -16.1496,8.5692 -0.1884,-11.86504 13.1834,-16.43215 -13.56,11.95921 -0.1884,-8.28669 6.9213,-9.6992 -7.2509,6.78002 -0.4237,-21.75258 -0.8475,26.64926 -8.8046,-11.48837 8.3808,14.69005 -0.047,11.20587 -13.6071,-15.25505 13.0421,19.21007 -0.2354,8.05128 -12.0534,-9.1342 11.9121,12.52421 z"
           style="fill:#d38d5f;fill-opacity:1;stroke:#c87137;stroke-width:0.47886518px;stroke-linecap:butt;stroke-linejoin:miter;stroke-opacity:1" />
      </g>
    </g>
    <g
       transform="translate(-671.88092,38.85797)"
       id="g3244">
      <path
         style="fill:#d38d5f;fill-opacity:1;stroke:#c87137;stroke-width:0.49569091px;stroke-linecap:butt;stroke-linejoin:miter;stroke-opacity:1"
         d="m 2160.1058,315.48071 c 0,0 -2.6233,5.08159 -1.5365,14.61016 0,0 0.4553,15.38482 5.3581,16.42051 l -32.5815,-1.60085 c 0,0 12.769,-15.75968 12.1096,-27.31136 0,0 -0.1197,-1.43423 -2.0346,-4.37483"
         id="path3238"
         inkscape:connector-curvature="0" />
      <path
         style="fill:#f38ccb;fill-opacity:1;stroke:#e38570;stroke-width:0.49569091px;stroke-linecap:butt;stroke-linejoin:miter;stroke-opacity:1"
         d="m 2159.2586,318.8241 c 0,0 11.5935,0.47655 17.2865,-8.46516 5.6931,-8.94173 8.0312,-22.67806 5.5026,-31.38405 -2.5286,-8.70599 -7.8611,-18.14518 -19.7871,-20.3827 -11.9259,-2.23752 -22.9172,-0.89614 -28.6845,2.39416 -5.7672,3.2903 -11.9028,15.66088 -11.8837,18.90546 0.019,3.24458 -8.354,27.54114 4.6282,32.11519 12.9823,4.57405 18.4342,5.44397 18.4342,5.44397 l 2.1523,-1.51786 1.1702,1.79703 1.7476,-1.60333 0.9499,2.17316 2.7278,-2.24163 0.872,1.87493 1.7895,-0.46735 1.5539,1.31452 2.3878,-3.29973 z"
         id="path3240"
         inkscape:connector-curvature="0" />
      <path
         style="fill:#f9caca;fill-opacity:1;stroke:#ff99a9;stroke-width:0.49569091px;stroke-linecap:butt;stroke-linejoin:miter;stroke-opacity:1"
         d="m 2130.5042,340.22414 -4.0442,6.47216 45.977,1.1179 -8.4231,-6.14705 -2.897,0.37429 -1.3126,-1.12266 -0.9175,2.34228 -4.6218,-0.13098 -0.4313,-2.62719 -1.8616,2.14283 -1.3621,-1.55577 -0.7541,2.23588 -2.9084,-3.57315 -0.5698,2.6975 -3.1934,-2.22441 -1.4854,2.36318 -5.1671,-2.21867 1.9719,2.67085 -4.2096,-0.74836 0.5261,-1.1569 -2.5132,-0.10822 -0.9611,3.88288 z"
         id="path3242"
         inkscape:connector-curvature="0" />
    </g>
    <g
       transform="matrix(0.97676428,0,0,0.97676428,-201.3489,431.75305)"
       id="g3256">
      <path
         style="fill:#d38d5f;fill-opacity:1;stroke:#c87137;stroke-width:0.48584768px;stroke-linecap:butt;stroke-linejoin:miter;stroke-opacity:1"
         d="m 2007.1196,98.518524 c 0,0 11.5354,-11.824595 8.328,-23.457332 l 20.97,-1.444311 c 0,0 -1.8496,10.68564 3.2182,21.598252 l 3.9614,4.099161 z"
         id="path3246"
         inkscape:connector-curvature="0" />
      <path
         style="fill:#d38d5f;fill-opacity:1;stroke:#c87137;stroke-width:0.48584768px;stroke-linecap:butt;stroke-linejoin:miter;stroke-opacity:1"
         d="m 1980.7682,43.267757 c 0,0 -1.374,16.78168 11.8003,16.137213 l 0.065,5.744763 c 0,0 -10.4032,1.769912 -12.2001,-6.522973 -1.797,-8.292886 -3.9749,-16.556047 -3.9749,-16.556047 z"
         id="path3248"
         inkscape:connector-curvature="0" />
      <path
         style="fill:#f7bfd8;fill-opacity:1;stroke:#ff99a9;stroke-width:0.48584768px;stroke-linecap:butt;stroke-linejoin:miter;stroke-opacity:1"
         d="m 2037.0985,79.888564 c 0,0 18.1841,-2.760256 21.1173,-14.297068 2.9332,-11.536818 5.9731,-46.272909 -2.6252,-55.7601442 -8.5982,-9.4872294 -45.1704,-16.4087562 -60.0525,4.1100052 -14.882,20.518756 -3.6411,34.399677 -3.6411,34.399677 0,0 -6.9513,9.167034 0.608,20.076946 7.5593,10.909912 22.8467,12.783838 22.8467,12.783838 l 4.9354,-3.068289 2.2739,2.122535 2.182,-1.511854 2.1995,1.17003 5.0247,-1.925283 2.0982,2.327898 3.0899,-2.157665 z"
         id="path3250"
         inkscape:connector-curvature="0" />
      <path
         style="fill:#f7bfd8;fill-opacity:1;stroke:#ff99a9;stroke-width:0.48584768px;stroke-linecap:butt;stroke-linejoin:miter;stroke-opacity:1"
         d="m 1981.845,49.700216 c 0,0 9.594,-4.773348 6.6959,-14.896935 -2.898,-10.123588 -5.6718,-13.740411 -11.4314,-13.866059 -5.7596,-0.125643 -11.8503,5.332697 -11.0775,15.238765 0.7729,9.906068 8.0322,14.514573 10.5087,14.321368 2.4765,-0.193205 5.3043,-0.797139 5.3043,-0.797139 z"
         id="path3252"
         inkscape:connector-curvature="0" />
      <path
         inkscape:connector-curvature="0"
         id="path3254"
         d="m 2008.2779,89.274888 c -3.377,0.08185 -5.9747,2.746094 -5.9747,2.746094 0,0 -7.4046,5.828142 -6.4492,10.414058 0.9554,4.58593 15.5254,3.86914 15.5254,3.86914 0,0 2.8544,-0.0114 5.7031,-0.34375 4.4879,0.8889 10.1055,0.61524 10.1055,0.61524 0,0 3.7553,-0.005 6.9512,-0.50782 4.6075,1.39513 11.8301,1.04883 11.8301,1.04883 0,0 9.3145,-4.1e-4 11.082,-1.95898 1.7675,-1.95857 -1.7676,-5.302736 -1.7676,-5.302736 0,0 -2.102,-2.914565 -7.5,-7.787107 -5.398,-4.872547 -10.8906,0.765625 -10.8906,0.765625 0,0 -1.644,1.312492 -3.2813,3.158203 -1.1466,-1.204893 -2.6544,-2.701943 -4.6074,-4.464843 -5.398,-4.872547 -10.8926,0.765624 -10.8926,0.765624 0,10e-7 -0.8707,0.701579 -1.955,1.761719 -0.8576,-0.845693 -1.8203,-1.767259 -2.961,-2.796875 -1.6869,-1.522671 -3.383,-2.019625 -4.9179,-1.982422 z"
         style="fill:#f7bfd8;fill-opacity:1;stroke:#ff99a9;stroke-width:0.48584768px;stroke-linecap:butt;stroke-linejoin:miter;stroke-opacity:1" />
    </g>
    <g
       transform="translate(-169.31472,-346.7467)"
       id="g3264">
      <g
         id="g3262">
        <path
           inkscape:connector-curvature="0"
           id="path3258"
           d="m 2035.8248,746.66465 c 0,0 20.6781,9.88701 27.6803,-5.26451 7.0021,-15.15152 6.6739,-27.09298 -0.8753,-37.622 0,0 8.315,-16.69235 0.2188,-30.68825 -8.0962,-13.99589 -22.8663,-16.30715 -31.8378,-5.26451 0,0 -13.3478,-20.15923 -31.1814,3.21007 0,0 -18.3806,-1.28403 -18.1618,20.67283 0,0 -9.5185,5.90653 -10.5031,20.54444 l 0.7658,11.29944 c 0,0 0,9.3734 8.4244,19.90242 0,0 12.2538,11.94146 29.1027,3.59528 0,0 11.9254,16.43555 26.3674,-0.38521 z"
           style="fill:#f9caca;fill-opacity:1;stroke:#ff99a9;stroke-width:0.85239673px;stroke-linecap:butt;stroke-linejoin:miter;stroke-opacity:1" />
        <path
           inkscape:connector-curvature="0"
           id="path3260"
           d="m 2019.4135,777.36832 13.3478,-0.38521 -3.6104,-43.27173 7.1115,-11.29943 -0.6565,-1.41243 -7.0021,6.03492 -0.9846,-19.77401 h -3.0635 l -1.7505,32.22908 -4.0482,-4.23729 -1.094,2.05444 4.3763,7.44736 z"
           style="fill:#d38d5f;fill-opacity:1;stroke:#c87137;stroke-width:0.85239673px;stroke-linecap:butt;stroke-linejoin:miter;stroke-opacity:1" />
      </g>
    </g>
    <g
       id="g3270"
       transform="matrix(0.87413097,0,0,0.87413097,100.45481,100.8567)">
      <path
         inkscape:connector-curvature="0"
         id="path3266"
         d="m 1994.432,469.96503 h 47.8719 c 0,0 7.9786,2.45496 3.2732,-5.52367 -4.7053,-7.97865 -8.3877,-13.91148 -8.3877,-13.91148 0,0 -4.91,-6.54658 2.8641,-6.54658 0,0 4.3216,0.80622 0.6328,-5.84815 l -5.5694,-9.76458 c 0,0 -3.0379,-5.49708 2.7485,-4.84611 0,0 2.9808,7.4e-4 -0.5482,-5.57403 l -16.1619,-27.99325 c 0,0 -2.276,-3.05184 -4.424,0.22144 -2.1481,3.2733 -16.5857,28.72721 -16.5857,28.72721 0,0 -4.077,6.25606 0.9864,4.87515 5.0634,-1.38092 -1.074,9.20612 -1.074,9.20612 l -4.5519,7.56948 c 0,0 -2.1481,4.1939 3.8358,3.47787 5.984,-0.71603 -0.2557,8.49009 -0.2557,8.49009 l -7.4025,12.82151 c 0,0 -3.0312,4.36326 2.7483,4.61898 z"
         style="fill:#fdeaf2;fill-opacity:1;stroke:#ff99a9;stroke-width:0.73563743px;stroke-linecap:butt;stroke-linejoin:miter;stroke-opacity:1" />
      <path
         style="fill:#d38d5f;fill-opacity:1;stroke:#c87137;stroke-width:0.73563743px;stroke-linecap:butt;stroke-linejoin:miter;stroke-opacity:1"
         d="m 2011.8982,485.4587 12.4795,-0.30688 -3.3756,-34.47182 6.6488,-9.00154 -0.6137,-1.12519 -6.5466,4.80764 -0.9206,-15.7527 h -2.8641 l -1.6366,25.67486 -3.7848,-3.37558 -1.0229,1.63664 4.0916,5.93284 z"
         id="path3268"
         inkscape:connector-curvature="0" />
    </g>
    <g
       transform="matrix(0.87413097,0,0,0.87413097,-110.74803,112.87999)"
       id="g3276">
      <path
         style="fill:#fdeaf2;fill-opacity:1;stroke:#ff99a9;stroke-width:0.73563743px;stroke-linecap:butt;stroke-linejoin:miter;stroke-opacity:1"
         d="m 1994.432,469.96503 h 47.8719 c 0,0 7.9786,2.45496 3.2732,-5.52367 -4.7053,-7.97865 -8.3877,-13.91148 -8.3877,-13.91148 0,0 -4.91,-6.54658 2.8641,-6.54658 0,0 4.3216,0.80622 0.6328,-5.84815 l -5.5694,-9.76458 c 0,0 -3.0379,-5.49708 2.7485,-4.84611 0,0 2.9808,7.4e-4 -0.5482,-5.57403 l -16.1619,-27.99325 c 0,0 -2.276,-3.05184 -4.424,0.22144 -2.1481,3.2733 -16.5857,28.72721 -16.5857,28.72721 0,0 -4.077,6.25606 0.9864,4.87515 5.0634,-1.38092 -1.074,9.20612 -1.074,9.20612 l -4.5519,7.56948 c 0,0 -2.1481,4.1939 3.8358,3.47787 5.984,-0.71603 -0.2557,8.49009 -0.2557,8.49009 l -7.4025,12.82151 c 0,0 -3.0312,4.36326 2.7483,4.61898 z"
         id="path3272"
         inkscape:connector-curvature="0" />
      <path
         inkscape:connector-curvature="0"
         id="path3274"
         d="m 2011.8982,485.4587 12.4795,-0.30688 -3.3756,-34.47182 6.6488,-9.00154 -0.6137,-1.12519 -6.5466,4.80764 -0.9206,-15.7527 h -2.8641 l -1.6366,25.67486 -3.7848,-3.37558 -1.0229,1.63664 4.0916,5.93284 z"
         style="fill:#d38d5f;fill-opacity:1;stroke:#c87137;stroke-width:0.73563743px;stroke-linecap:butt;stroke-linejoin:miter;stroke-opacity:1" />
    </g>
    <g
       id="g3370">
      <path
         inkscape:connector-curvature="0"
         id="path3278"
         d="m 1357.3421,419.07523 h 41.8463 c 0,0 6.9744,2.14595 2.8613,-4.82841 -4.1131,-6.97439 -7.332,-12.16046 -7.332,-12.16046 0,0 -4.292,-5.72257 2.5036,-5.72257 0,0 3.7776,0.70474 0.5532,-5.11205 l -4.8684,-8.53552 c 0,0 -2.6556,-4.80517 2.4025,-4.23613 0,0 2.6056,6.4e-4 -0.4792,-4.87244 l -14.1276,-24.46976 c 0,0 -1.9895,-2.66771 -3.8672,0.19357 -1.8777,2.86129 -14.498,25.11134 -14.498,25.11134 0,0 -3.5639,5.46862 0.8622,4.26152 4.4261,-1.20711 -0.9388,8.04735 -0.9388,8.04735 l -3.979,6.61672 c 0,0 -1.8777,3.66602 3.353,3.04011 5.2308,-0.6259 -0.2235,7.42146 -0.2235,7.42146 l -6.4707,11.20767 c 0,0 -2.6497,3.81406 2.4023,4.0376 z"
         style="fill:#fdeaf2;fill-opacity:1;stroke:#ff99a9;stroke-width:0.64304346px;stroke-linecap:butt;stroke-linejoin:miter;stroke-opacity:1" />
      <path
         style="fill:#d38d5f;fill-opacity:1;stroke:#c87137;stroke-width:0.64304346px;stroke-linecap:butt;stroke-linejoin:miter;stroke-opacity:1"
         d="m 1372.6099,432.61872 10.9087,-0.26825 -2.9507,-30.13288 5.8119,-7.86853 -0.5364,-0.98356 -5.7226,4.2025 -0.8048,-13.76992 h -2.5036 l -1.4306,22.44319 -3.3084,-2.9507 -0.8941,1.43064 3.5766,5.18608 z"
         id="path3280"
         inkscape:connector-curvature="0" />
    </g>
    <g
       transform="matrix(0.85588523,0,0,0.85588523,-504.65646,170.32886)"
       id="g3290">
      <g
         id="g3288">
        <path
           style="fill:#f9caca;fill-opacity:1;stroke:#ff99a9;stroke-width:0.47886518px;stroke-linecap:butt;stroke-linejoin:miter;stroke-opacity:1"
           d="m 2139.0331,133.66784 c 0,0 -18.2685,1.50667 -17.5151,37.29013 0.7533,35.78346 16.95,35.78346 16.95,35.78346 l 4.7084,-0.18833 c 0,0 26.9317,-2.63668 23.9184,-40.68015 -3.0134,-38.04346 -28.0617,-32.20511 -28.0617,-32.20511 z"
           id="path3284"
           inkscape:connector-curvature="0" />
        <path
           style="fill:#d38d5f;fill-opacity:1;stroke:#c87137;stroke-width:0.47886518px;stroke-linecap:butt;stroke-linejoin:miter;stroke-opacity:1"
           d="m 2138.071,243.18112 h 7.3244 l -2.2486,-48.34603 16.0084,-12.14755 -16.1496,8.5692 -0.1884,-11.86504 13.1834,-16.43215 -13.56,11.95921 -0.1884,-8.28669 6.9213,-9.6992 -7.2509,6.78002 -0.4237,-21.75258 -0.8475,26.64926 -8.8046,-11.48837 8.3808,14.69005 -0.047,11.20587 -13.6071,-15.25505 13.0421,19.21007 -0.2354,8.05128 -12.0534,-9.1342 11.9121,12.52421 z"
           id="path3286"
           inkscape:connector-curvature="0" />
      </g>
    </g>
    <g
       id="g3300"
       transform="matrix(0.89753269,0,0,0.89753269,-57.276947,-131.3448)">
      <path
         inkscape:connector-curvature="0"
         id="path3292"
         d="m 2012.0522,593.35298 c 0,0 -5.4495,29.64606 -7.8547,29.41494 l 29.9958,-1.7992 c 0,0 -6.0839,-23.29859 -4.3695,-28.50892 z"
         style="fill:#d38d5f;fill-opacity:1;stroke:#c87137;stroke-width:0.62061983px;stroke-linecap:butt;stroke-linejoin:miter;stroke-opacity:1" />
      <path
         inkscape:connector-curvature="0"
         id="path3294"
         d="m 2010.2396,559.88808 -21.1991,29.3464 c 0,0 -1.6515,8.164 3.6151,11.09751 5.2666,2.93351 11.1605,-0.66148 11.1605,-0.66148 0,0 3.7619,6.86358 10.7181,4.84446 6.9562,-2.0191 7.8779,-3.49104 7.8779,-3.49104 0,0 3.7105,4.69127 8.506,3.50488 4.7955,-1.18639 6.999,-4.26905 6.999,-4.26905 0,0 6.2677,4.24344 11.947,2.88188 5.6793,-1.36156 7.1705,-8.76069 7.1705,-8.76069 l 0.9976,-4.06549 -3.2875,-1.8764 -11.5388,-26.0768 z"
         style="fill:#f9cadc;fill-opacity:1;stroke:#ff99a9;stroke-width:0.62061983px;stroke-linecap:butt;stroke-linejoin:miter;stroke-opacity:1" />
      <path
         inkscape:connector-curvature="0"
         id="path3296"
         d="m 2017.1348,533.24185 -13.6799,24.17371 c 0,0 -5.2048,6.34873 -7.3655,7.18144 -2.1607,0.83272 1.0873,5.82633 1.0873,5.82633 0,0 7.9824,3.54125 9.378,-1.95979 0,0 4.5283,5.20333 9.7285,4.3159 5.2003,-0.88742 12.1944,-4.2033 12.343,-5.74953 0.1485,-1.54622 2.1594,5.49587 5.3708,5.45767 3.2113,-0.0382 6.3451,-0.17054 7.777,-5.14793 0,0 1.2658,7.57737 6.899,7.59849 5.6331,0.0211 3.8007,-5.26993 3.8007,-5.26993 l -2.4086,-1.09839 -14.3542,-34.67002 z"
         style="fill:#f9cadc;fill-opacity:1;stroke:#ff99a9;stroke-width:0.62061983px;stroke-linecap:butt;stroke-linejoin:miter;stroke-opacity:1" />
      <path
         inkscape:connector-curvature="0"
         id="path3298"
         d="m 2023.5056,521.97687 c 0,0 4.1524,-9.83096 8.2233,-0.77032 4.071,9.06063 13.982,25.01114 13.982,25.01114 0,0 -3.6043,5.02874 -8.4202,-3.49663 0,0 -0.1302,4.06213 -4.8499,2.65498 -4.7197,-1.40716 -4.9627,-4.29143 -4.9627,-4.29143 0,0 -1.4121,5.67285 -6.9049,4.19141 -5.4928,-1.48144 -5.1724,-3.01116 -5.1724,-3.01116 0,0 -3.5911,3.98966 -7.2717,2.59565 -3.6806,-1.394 0.3648,-5.6001 0.3648,-5.6001 z"
         style="fill:#f9cadc;fill-opacity:1;stroke:#ff99a9;stroke-width:0.62061983px;stroke-linecap:butt;stroke-linejoin:miter;stroke-opacity:1" />
    </g>
    <g
       id="g3308"
       transform="matrix(0.76100887,0,0,0.76100887,162.61747,-205.95756)">
      <g
         id="g3306">
        <path
           style="fill:#f9caca;fill-opacity:1;stroke:#ff99a9;stroke-width:0.85239673px;stroke-linecap:butt;stroke-linejoin:miter;stroke-opacity:1"
           d="m 2035.8248,746.66465 c 0,0 20.6781,9.88701 27.6803,-5.26451 7.0021,-15.15152 6.6739,-27.09298 -0.8753,-37.622 0,0 8.315,-16.69235 0.2188,-30.68825 -8.0962,-13.99589 -22.8663,-16.30715 -31.8378,-5.26451 0,0 -13.3478,-20.15923 -31.1814,3.21007 0,0 -18.3806,-1.28403 -18.1618,20.67283 0,0 -9.5185,5.90653 -10.5031,20.54444 l 0.7658,11.29944 c 0,0 0,9.3734 8.4244,19.90242 0,0 12.2538,11.94146 29.1027,3.59528 0,0 11.9254,16.43555 26.3674,-0.38521 z"
           id="path3302"
           inkscape:connector-curvature="0" />
        <path
           style="fill:#d38d5f;fill-opacity:1;stroke:#c87137;stroke-width:0.85239673px;stroke-linecap:butt;stroke-linejoin:miter;stroke-opacity:1"
           d="m 2019.4135,777.36832 13.3478,-0.38521 -3.6104,-43.27173 7.1115,-11.29943 -0.6565,-1.41243 -7.0021,6.03492 -0.9846,-19.77401 h -3.0635 l -1.7505,32.22908 -4.0482,-4.23729 -1.094,2.05444 4.3763,7.44736 z"
           id="path3304"
           inkscape:connector-curvature="0" />
      </g>
    </g>
    <g
       transform="translate(-442.06559,-137.82897)"
       id="g3316">
      <g
         transform="matrix(0.85089846,0,0,0.85089846,299.80989,88.044851)"
         id="g3314">
        <path
           style="opacity:1;fill:#f9caca;fill-opacity:1;fill-rule:nonzero;stroke:#ff99a9;stroke-width:10.26062679;stroke-linecap:round;stroke-linejoin:bevel;stroke-miterlimit:4;stroke-dasharray:none;stroke-opacity:1;paint-order:stroke markers fill"
           d="m 2145.7773,505.5957 a 35.974312,26.29587 0 0 0 -35.9746,26.29492 35.974312,26.29587 0 0 0 14.0489,20.80665 28.040461,22.176359 0 0 0 -3.9532,11.30078 28.040461,22.176359 0 0 0 8.5352,15.90039 21.868118,18.388016 0 0 0 -2.5781,8.64453 21.868118,18.388016 0 0 0 21.8672,18.38867 21.868118,18.388016 0 0 0 21.8691,-18.38867 21.868118,18.388016 0 0 0 -2.4316,-8.41602 28.040461,22.176359 0 0 0 8.8203,-16.1289 28.040461,22.176359 0 0 0 -5.4239,-13.0625 35.974312,26.29587 0 0 0 11.1934,-19.04493 35.974312,26.29587 0 0 0 -35.9727,-26.29492 z"
           id="path3310"
           inkscape:connector-curvature="0" />
        <path
           inkscape:connector-curvature="0"
           id="path3312"
           d="m 2139.9368,626.25563 18.6561,-0.32746 -5.0463,-36.78467 9.9397,-9.60549 -0.9175,-1.20068 -9.7868,5.1302 -1.3763,-16.8096 h -4.2817 l -2.4467,27.39747 -5.6581,-3.60206 -1.5291,1.74646 6.1167,6.33089 z"
           style="fill:#d38d5f;fill-opacity:1;stroke:#c87137;stroke-width:0.92913455px;stroke-linecap:butt;stroke-linejoin:miter;stroke-opacity:1" />
      </g>
    </g>
    <g
       transform="translate(-419.43181,254.4941)"
       id="g3322">
      <ellipse
         ry="33.442886"
         rx="30.655979"
         cy="173.39873"
         cx="2024.7144"
         id="ellipse3318"
         style="opacity:1;fill:#fbd5e5;fill-opacity:1;fill-rule:nonzero;stroke:#ff99a9;stroke-width:6.16182327;stroke-linecap:round;stroke-linejoin:bevel;stroke-miterlimit:4;stroke-dasharray:none;stroke-opacity:1;paint-order:stroke markers fill" />
      <path
         style="fill:#d38d5f;stroke:#c87137;stroke-width:0.61618233px;stroke-linecap:butt;stroke-linejoin:miter;stroke-opacity:1"
         d="m 2019.2611,225.37614 10.453,-0.25704 -2.8274,-28.87418 5.5692,-7.53984 -0.5141,-0.94248 -5.4835,4.02696 -0.7711,-13.19473 h -2.3991 l -1.3709,21.5057 -3.1702,-2.82745 -0.8568,1.37088 3.4272,4.96945 z"
         id="path3320"
         inkscape:connector-curvature="0" />
    </g>
    <g
       id="g3328"
       transform="translate(-520.41046,279.45294)">
      <path
         inkscape:connector-curvature="0"
         id="path3324"
         d="m 2139.8622,101.86497 c 0,0 14.693,-0.16417 20.8494,-13.461776 6.1562,-13.297605 -0.903,-27.333966 -0.903,-27.333966 0,0 3.7759,-15.021371 -3.2012,-21.916423 0,0 2.5445,-18.058476 -5.3355,-23.147684 -7.8801,-5.089208 -17.7301,-4.104205 -23.6402,2.380433 -5.9101,6.484637 -3.5296,18.222644 -2.7087,19.53599 0,0 -8.0443,10.753004 -3.858,23.558104 0,0 -4.9251,8.45465 -4.843,12.887185 l 0.082,4.432535 c 0,0 -0.1642,20.520993 23.5581,23.065602 z"
         style="fill:#fdd7f2;fill-opacity:1;stroke:#ff99a9;stroke-width:0.59032071px;stroke-linecap:butt;stroke-linejoin:miter;stroke-opacity:1" />
      <path
         inkscape:connector-curvature="0"
         id="path3326"
         d="m 2135.3476,110.40171 9.9321,0.0821 -2.6266,-28.072722 5.0892,-7.14131 -0.9029,-1.231262 -4.6788,4.514619 -1.2313,-12.640932 -2.3804,-0.08208 -0.9851,20.356831 -3.1192,-2.872943 -0.7387,1.641681 3.7759,4.432535 z"
         style="fill:#d38d5f;fill-opacity:1;stroke:#c87137;stroke-width:0.59032071px;stroke-linecap:butt;stroke-linejoin:miter;stroke-opacity:1" />
    </g>
    <g
       id="g3340"
       transform="matrix(0.76652264,0,0,0.76652264,-117.88706,71.48899)">
      <path
         inkscape:connector-curvature="0"
         id="path3330"
         d="m 2103.3113,468.81467 c 0,0 13.168,2.92158 21.7318,2.13298 8.5638,-0.78861 26.9293,-2.93005 26.9293,-2.93005 0,0 14.2098,-3.57506 12.2625,-5.57409 -1.9473,-1.99905 -13.9966,-10.20893 -13.9966,-10.20893 l -34.9903,1.13878 z"
         style="fill:#eb9ac0;fill-opacity:1;stroke:#f9caca;stroke-width:0.61572111px;stroke-linecap:butt;stroke-linejoin:miter;stroke-opacity:1" />
      <path
         inkscape:connector-curvature="0"
         id="path3332"
         d="m 2127.0288,458.32458 c 0,0 -2.2937,23.01599 -3.4674,23.63677 l 26.5743,0.0651 -6.4369,-25.79583 -16.7598,-0.2661 z"
         style="fill:#d38d5f;fill-opacity:1;stroke:#c87137;stroke-width:0.61572111px;stroke-linecap:butt;stroke-linejoin:miter;stroke-opacity:1" />
      <path
         inkscape:connector-curvature="0"
         id="path3334"
         d="m 2110.9026,427.08021 -10.3419,37.60278 c 0,0 -0.4209,7.67031 6.0786,4.95077 6.4995,-2.71952 6.5149,-2.47786 6.5149,-2.47786 l 0.1802,-3.83322 1.1104,3.14432 2.688,-0.65667 0.8311,-8.84904 0.867,7.89151 c 0,0 15.381,-6.13689 34.8221,-2.82661 l 0.1867,-4.68292 2.5179,5.23845 c 0,0 7.593,2.06376 8.8466,-1.10995 1.2536,-3.17371 -2.4262,-10.46127 -2.4262,-10.46127 l -12.103,-27.13314 z"
         style="fill:#eb9ac0;fill-opacity:1;stroke:#f9caca;stroke-width:0.61572111px;stroke-linecap:butt;stroke-linejoin:miter;stroke-opacity:1" />
      <path
         inkscape:connector-curvature="0"
         id="path3336"
         d="m 2115.5743,406.15713 -11.9626,34.06635 c 0,0 -1.3051,4.26891 3.963,1.26392 5.268,-3.005 4.9505,-3.22741 4.9505,-3.22741 l 2.8056,-9.27824 -0.9789,8.43384 c 0,0 4.2268,-2.21067 10.5706,-2.6151 l 0.652,-4.0453 0.9227,4.00557 c 0,0 1.7484,-3.02327 20.3359,0.22011 l 0.3038,-4.75104 1.4984,5.42476 c 0,0 6.9761,0.95049 7.6381,1.81823 0.6619,0.86774 1.6389,0.0168 0.8961,-2.11966 -0.7428,-2.13649 -15.4089,-31.41141 -15.4089,-31.41141 z"
         style="fill:#eb9ac0;fill-opacity:1;stroke:#f9caca;stroke-width:0.61572111px;stroke-linecap:butt;stroke-linejoin:miter;stroke-opacity:1" />
      <path
         inkscape:connector-curvature="0"
         id="path3338"
         d="m 2109.4395,413.64575 12.9596,-27.94233 c 0,0 2.8453,-7.70354 9.29,0.13569 6.4447,7.83923 17.6848,24.29015 17.6848,24.29015 0,0 0.1771,2.77918 -2.0402,2.25325 -2.2174,-0.52592 -4.6572,-0.73436 -4.6572,-0.73436 l -2.4473,-3.18042 c 0,0 -0.046,-0.725 -0.6042,0.0385 -0.5579,0.76352 -0.8138,1.50778 -0.8138,1.50778 0,0 -3.6813,-2.55578 -10.3787,-1.03688 l -1.0408,-4.90797 -0.9771,0.8509 0.085,4.18032 c 0,0 -5.9389,1.0459 -7.4674,1.81064 -1.5285,0.76473 -0.8406,-1.76629 -0.8406,-1.76629 l -1.1171,0.55652 -0.6506,2.16466 -5.4274,2.40853 c 0,0 -1.7213,0.59504 -1.5566,-0.62871 z"
         style="fill:#eb9ac0;fill-opacity:1;stroke:#f9caca;stroke-width:0.61572111px;stroke-linecap:butt;stroke-linejoin:miter;stroke-opacity:1" />
    </g>
    <g
       transform="matrix(0.76100887,0,0,0.76100887,-11.376606,-55.24786)"
       id="g3348">
      <g
         id="g3346">
        <path
           inkscape:connector-curvature="0"
           id="path3342"
           d="m 2035.8248,746.66465 c 0,0 20.6781,9.88701 27.6803,-5.26451 7.0021,-15.15152 6.6739,-27.09298 -0.8753,-37.622 0,0 8.315,-16.69235 0.2188,-30.68825 -8.0962,-13.99589 -22.8663,-16.30715 -31.8378,-5.26451 0,0 -13.3478,-20.15923 -31.1814,3.21007 0,0 -18.3806,-1.28403 -18.1618,20.67283 0,0 -9.5185,5.90653 -10.5031,20.54444 l 0.7658,11.29944 c 0,0 0,9.3734 8.4244,19.90242 0,0 12.2538,11.94146 29.1027,3.59528 0,0 11.9254,16.43555 26.3674,-0.38521 z"
           style="fill:#f9caca;fill-opacity:1;stroke:#ff99a9;stroke-width:0.85239673px;stroke-linecap:butt;stroke-linejoin:miter;stroke-opacity:1" />
        <path
           inkscape:connector-curvature="0"
           id="path3344"
           d="m 2019.4135,777.36832 13.3478,-0.38521 -3.6104,-43.27173 7.1115,-11.29943 -0.6565,-1.41243 -7.0021,6.03492 -0.9846,-19.77401 h -3.0635 l -1.7505,32.22908 -4.0482,-4.23729 -1.094,2.05444 4.3763,7.44736 z"
           style="fill:#d38d5f;fill-opacity:1;stroke:#c87137;stroke-width:0.85239673px;stroke-linecap:butt;stroke-linejoin:miter;stroke-opacity:1" />
      </g>
    </g>
    <g
       transform="matrix(0.85588523,0,0,0.85588523,-165.24407,151.5323)"
       id="g3356">
      <g
         id="g3354"
         transform="translate(-135.16936,68.234531)">
        <path
           style="fill:#f9caca;fill-opacity:1;stroke:#ff99a9;stroke-width:0.47886518px;stroke-linecap:butt;stroke-linejoin:miter;stroke-opacity:1"
           d="m 2139.0331,133.66784 c 0,0 -18.2685,1.50667 -17.5151,37.29013 0.7533,35.78346 16.95,35.78346 16.95,35.78346 l 4.7084,-0.18833 c 0,0 26.9317,-2.63668 23.9184,-40.68015 -3.0134,-38.04346 -28.0617,-32.20511 -28.0617,-32.20511 z"
           id="path3350"
           inkscape:connector-curvature="0" />
        <path
           style="fill:#d38d5f;fill-opacity:1;stroke:#c87137;stroke-width:0.47886518px;stroke-linecap:butt;stroke-linejoin:miter;stroke-opacity:1"
           d="m 2138.071,243.18112 h 7.3244 l -2.2486,-48.34603 16.0084,-12.14755 -16.1496,8.5692 -0.1884,-11.86504 13.1834,-16.43215 -13.56,11.95921 -0.1884,-8.28669 6.9213,-9.6992 -7.2509,6.78002 -0.4237,-21.75258 -0.8475,26.64926 -8.8046,-11.48837 8.3808,14.69005 -0.047,11.20587 -13.6071,-15.25505 13.0421,19.21007 -0.2354,8.05128 -12.0534,-9.1342 11.9121,12.52421 z"
           id="path3352"
           inkscape:connector-curvature="0" />
      </g>
    </g>
    <path
       style="fill:#d38d5f;fill-opacity:1;stroke:#c87137;stroke-width:4.98808622;stroke-linecap:butt;stroke-linejoin:miter;stroke-miterlimit:4;stroke-dasharray:none;stroke-opacity:1"
       d="m 1522.9639,-2.5867845 c 0,0 3.1156,7.3699891 -4.1525,12.3497998 -7.268,4.9798107 -814.65694,471.9961447 -814.65694,471.9961447 0,0 -12.19387,9.38464 0.51889,18.24792 l 818.94325,506.35942 -279.1677,0.2737 -943.98889,-504.80833 c 0,0 -32.31333,-26.07287 1.35579,-44.44892 L 1239.1715,10.414744 c 0,0 5.572,-3.4224122 5.1251,-13.0015285 z"
       id="path3366"
       inkscape:connector-curvature="0" />
  </g>
</svg>
