<?xml version="1.0" encoding="UTF-8" standalone="no"?>
<!-- Created with Inkscape (http://www.inkscape.org/) -->

<svg
   xmlns:dc="http://purl.org/dc/elements/1.1/"
   xmlns:cc="http://creativecommons.org/ns#"
   xmlns:rdf="http://www.w3.org/1999/02/22-rdf-syntax-ns#"
   xmlns:svg="http://www.w3.org/2000/svg"
   xmlns="http://www.w3.org/2000/svg"
   xmlns:sodipodi="http://sodipodi.sourceforge.net/DTD/sodipodi-0.dtd"
   xmlns:inkscape="http://www.inkscape.org/namespaces/inkscape"
   width="450"
   height="450"
   viewBox="0 0 450 450"
   version="1.1"
   id="SVGRoot"
   inkscape:version="0.92.4 (5da689c313, 2019-01-14)"
   sodipodi:docname="mguia.svg">
  <defs
     id="defs10" />
  <sodipodi:namedview
     id="base"
     pagecolor="#ffffff"
     bordercolor="#666666"
     borderopacity="1.0"
     inkscape:pageopacity="0.0"
     inkscape:pageshadow="2"
     inkscape:zoom="1.2483333"
     inkscape:cx="225"
     inkscape:cy="139.78638"
     inkscape:document-units="px"
     inkscape:current-layer="layer1"
     showgrid="false"
     inkscape:window-width="1920"
     inkscape:window-height="966"
     inkscape:window-x="0"
     inkscape:window-y="84"
     inkscape:window-maximized="1" />
  <metadata
     id="metadata13">
    <rdf:RDF>
      <cc:Work
         rdf:about="">
        <dc:format>image/svg+xml</dc:format>
        <dc:type
           rdf:resource="http://purl.org/dc/dcmitype/StillImage" />
        <dc:title></dc:title>
      </cc:Work>
    </rdf:RDF>
  </metadata>
  <g
     inkscape:label="Capa 1"
     inkscape:groupmode="layer"
     id="layer1"
     transform="translate(0,-350)">
    <g
       id="g31"
       transform="matrix(0.23056175,0,0,0.57446741,4.6352961,344.58245)">
      <path
         sodipodi:nodetypes="ccccccccscccccccccccccccccccsccsccccccccccscccccccccccccccccccccccccccc"
         inkscape:connector-curvature="0"
         id="path4544"
         d="m 127.62492,67.087557 c 0,0 12.55477,-9.5005 59.98387,5.1462 0,0 26.96948,7.9171 60.44887,-1.9793 0,0 29.75945,-3.1669 43.70919,0 0,0 42.31421,0.3959 48.82408,-8.7089 l 33.01438,-3.5627 28.82946,13.855 14.87971,10.6882 c 0,0 11.62479,9.5006 13.01976,-4.3544 1.39499,-13.8551 0.46499,-12.2716 0.46499,-12.2716 0,0 -3.25493,-14.6468 31.15443,-6.3338 0,0 26.9695,5.542 59.51888,-3.5627 l 73.93361,-10.6881 92.99828,-0.3959 70.67865,2.771 31.15443,4.3544 43.70918,-1.5834 27.43449,30.4811 5.1149,-30.0852 60.91385,0.3958 c 0,0 29.29445,8.7089 48.35911,1.9793 l 31.61946,-1.5834 c 0,0 19.5296,-17.4178 53.9389,-1.5834 l 25.1095,0.7917 101.8332,-1.5835 33.4793,-8.313 34.4093,20.5846 73.0037,9.1048 c 0,0 35.8043,7.5213 67.4238,-15.0426 31.6193,-22.5639 99.5081,-7.9172 99.5081,-7.9172 0,0 32.5494,3.9586 44.174,-1.1876 0,0 -4.1848,-3.9585 53.939,5.1462 58.1241,9.1047 61.3791,0 61.3791,0 0,0 -1.3951,-4.3545 40.9191,1.9793 42.3142,6.3337 66.9588,3.9586 66.9588,3.9586 l 14.4146,-2.3752 8.37,-1.5834 h 0.9299 l 8.37,8.7088 2.3248,3.5628 4.1516,672.958113 c 0,0 -132.4892,-10.6881 -183.1732,-1.1875 0,0 -23.2497,-7.5213 -59.984,-3.9586 -36.7341,3.5627 -57.1939,1.5834 -55.334,1.5834 0,0 -98.1131,-1.1876 -100.903,-1.9793 0,0 -16.7397,-8.7088 -33.4793,-9.1047 l -29.2944,1.1876 c 0,0 -28.8295,-14.2509 -55.334,0.7917 0,0 -20.4597,12.2716 -83.6986,4.7503 l -70.6787,0.7917 -126.9425,-2.771 c 0,0 -23.71455,-17.8136 -39.52424,-13.4592 0,0 -15.8097,8.313 -20.92461,15.8343 l -112.52788,-3.1668 -9.29984,3.1668 -70.21368,-2.771 -22.78457,-26.5224 c 0,0 13.01975,35.6272 -13.48475,32.8562 l -28.36448,-3.5628 -36.26931,5.542 -94.39324,-4.3544 -33.94436,-17.4177 -43.24419,20.1887 -57.19393,-0.3958 -12.08977,-3.1669 -22.31959,6.3337 -29.75944,-0.7917 -39.98926,-2.3751 c 0,0 -32.54938,11.8757 -66.95873,-1.5835 -34.40936,-13.4591 -148.19091,6.3338 -148.19091,6.3338 z"
         style="fill:#fff6d5;fill-opacity:1;stroke:#d4aa00;stroke-width:6.00622177;stroke-linecap:butt;stroke-linejoin:miter;stroke-miterlimit:4;stroke-dasharray:none;stroke-opacity:1" />
      <path
         style="fill:#ffeeaa;stroke:#d4aa00;stroke-width:6;stroke-linecap:butt;stroke-linejoin:miter;stroke-miterlimit:4;stroke-dasharray:none;stroke-opacity:1"
         d="m 55.182338,34.287587 c 0,0 0.370866,-6.352443 0,-9.655712 0,0 30.411002,-19.5655223 56.927912,1.270489 v 8.385223 z"
         id="path823"
         inkscape:connector-curvature="0" />
      <path
         inkscape:connector-curvature="0"
         id="path821"
         d="m 25.456221,53.087557 c 0,0 0.737327,-9.21659 0,-14.009217 0,0 60.460829,-28.387097 113.179719,1.843318 v 12.165899 z"
         style="fill:#ffeeaa;stroke:#d4aa00;stroke-width:6;stroke-linecap:butt;stroke-linejoin:miter;stroke-miterlimit:4;stroke-dasharray:none;stroke-opacity:1" />
      <path
         inkscape:connector-curvature="0"
         id="path825"
         d="m 108.85877,765.31013 c 0,0 -0.37087,6.35244 0,9.65571 0,0 -30.41101,19.56552 -56.927917,-1.27049 v -8.38522 z"
         style="fill:#ffeeaa;stroke:#d4aa00;stroke-width:6;stroke-linecap:butt;stroke-linejoin:miter;stroke-miterlimit:4;stroke-dasharray:none;stroke-opacity:1" />
      <path
         style="fill:#ffeeaa;stroke:#d4aa00;stroke-width:6;stroke-linecap:butt;stroke-linejoin:miter;stroke-miterlimit:4;stroke-dasharray:none;stroke-opacity:1"
         d="m 138.58488,746.51015 c 0,0 -0.73732,9.2166 0,14.00922 0,0 -60.46083,28.3871 -113.179717,-1.84331 v -12.16591 z"
         id="path827"
         inkscape:connector-curvature="0" />
      <path
         inkscape:connector-curvature="0"
         id="path819"
         d="m 8.866359,55.299539 c 0,0 94.483761,-28.886204 144.516131,0 0,0 -61.93549,240.368661 2.94931,688.663591 0,0 -92.903229,25.06913 -150.414749,0 0,0 39.815667,-606.08295 2.949308,-688.663591 z"
         style="fill:#ffeeaa;stroke:#d4aa00;stroke-width:6;stroke-linecap:butt;stroke-linejoin:miter;stroke-miterlimit:4;stroke-dasharray:none;stroke-opacity:1" />
      <g
         transform="translate(1732)"
         id="g887">
        <path
           style="fill:#ffeeaa;stroke:#d4aa00;stroke-width:6;stroke-linecap:butt;stroke-linejoin:miter;stroke-miterlimit:4;stroke-dasharray:none;stroke-opacity:1"
           d="m 83.182338,34.287587 c 0,0 0.370866,-6.352443 0,-9.655712 0,0 30.411002,-19.5655223 56.927912,1.270489 v 8.385223 z"
           id="path877"
           inkscape:connector-curvature="0" />
        <path
           inkscape:connector-curvature="0"
           id="path879"
           d="m 53.456221,53.087557 c 0,0 0.737327,-9.21659 0,-14.009217 0,0 60.460829,-28.387097 113.179719,1.843318 v 12.165899 z"
           style="fill:#ffeeaa;stroke:#d4aa00;stroke-width:6;stroke-linecap:butt;stroke-linejoin:miter;stroke-miterlimit:4;stroke-dasharray:none;stroke-opacity:1" />
        <path
           inkscape:connector-curvature="0"
           id="path881"
           d="m 136.85877,765.31013 c 0,0 -0.37087,6.35244 0,9.65571 0,0 -30.41101,19.56552 -56.927917,-1.27049 v -8.38522 z"
           style="fill:#ffeeaa;stroke:#d4aa00;stroke-width:6;stroke-linecap:butt;stroke-linejoin:miter;stroke-miterlimit:4;stroke-dasharray:none;stroke-opacity:1" />
        <path
           style="fill:#ffeeaa;stroke:#d4aa00;stroke-width:6;stroke-linecap:butt;stroke-linejoin:miter;stroke-miterlimit:4;stroke-dasharray:none;stroke-opacity:1"
           d="m 166.58488,746.51015 c 0,0 -0.73732,9.2166 0,14.00922 0,0 -60.46083,28.3871 -113.179717,-1.84331 v -12.16591 z"
           id="path883"
           inkscape:connector-curvature="0" />
        <path
           inkscape:connector-curvature="0"
           id="path885"
           d="m 36.866359,55.299539 c 0,0 94.483761,-28.886204 144.516131,0 0,0 -61.93549,240.368661 2.94931,688.663591 0,0 -92.903229,25.06913 -150.414749,0 0,0 39.815667,-606.08295 2.949308,-688.663591 z"
           style="fill:#ffeeaa;stroke:#d4aa00;stroke-width:6;stroke-linecap:butt;stroke-linejoin:miter;stroke-miterlimit:4;stroke-dasharray:none;stroke-opacity:1" />
      </g>
    </g>
  </g>
</svg>
