<?xml version="1.0" encoding="UTF-8" standalone="no"?>
<!-- Created with Inkscape (http://www.inkscape.org/) -->

<svg
   xmlns:dc="http://purl.org/dc/elements/1.1/"
   xmlns:cc="http://creativecommons.org/ns#"
   xmlns:rdf="http://www.w3.org/1999/02/22-rdf-syntax-ns#"
   xmlns:svg="http://www.w3.org/2000/svg"
   xmlns="http://www.w3.org/2000/svg"
   xmlns:sodipodi="http://sodipodi.sourceforge.net/DTD/sodipodi-0.dtd"
   xmlns:inkscape="http://www.inkscape.org/namespaces/inkscape"
   width="1920"
   height="1200"
   viewBox="0 0 1920 1200"
   version="1.1"
   id="SVGRoot"
   inkscape:version="0.92.4 (5da689c313, 2019-01-14)"
   sodipodi:docname="mletrero.svg">
  <defs
     id="defs621" />
  <sodipodi:namedview
     id="base"
     pagecolor="#ffffff"
     bordercolor="#666666"
     borderopacity="1.0"
     inkscape:pageopacity="0.0"
     inkscape:pageshadow="2"
     inkscape:zoom="0.62416667"
     inkscape:cx="960"
     inkscape:cy="600"
     inkscape:document-units="px"
     inkscape:current-layer="layer1"
     showgrid="false"
     inkscape:window-width="1920"
     inkscape:window-height="966"
     inkscape:window-x="0"
     inkscape:window-y="84"
     inkscape:window-maximized="1" />
  <metadata
     id="metadata624">
    <rdf:RDF>
      <cc:Work
         rdf:about="">
        <dc:format>image/svg+xml</dc:format>
        <dc:type
           rdf:resource="http://purl.org/dc/dcmitype/StillImage" />
        <dc:title></dc:title>
      </cc:Work>
    </rdf:RDF>
  </metadata>
  <g
     inkscape:label="Capa 1"
     inkscape:groupmode="layer"
     id="layer1"
     transform="translate(0,400)">
    <g
       id="g62"
       transform="matrix(0.99982149,0,0,1.4993611,0.17172531,-396.043)">
      <g
         transform="matrix(1.5908913,0,0,1.4696902,-499.43066,-178.11762)"
         id="g1510">
        <path
           style="fill:#803300;fill-opacity:1;stroke:#552200;stroke-width:1px;stroke-linecap:butt;stroke-linejoin:miter;stroke-opacity:1"
           d="m 1355.6513,660.61142 38.1494,-0.39329 V 485.38355 h -38.3325 z"
           id="path667"
           inkscape:connector-curvature="0" />
        <path
           style="fill:#803300;fill-opacity:1;stroke:#552200;stroke-width:1px;stroke-linecap:butt;stroke-linejoin:miter;stroke-opacity:1"
           d="M 1355.6513,660.61142 1344.9004,645.1518 V 481.86007 l 10.7234,2.87332"
           id="path669"
           inkscape:connector-curvature="0" />
      </g>
      <g
         transform="matrix(1.5908913,0,0,1.4696902,-499.43066,-178.11762)"
         id="g1504">
        <path
           inkscape:connector-curvature="0"
           id="path659"
           d="m 515.04981,658.61142 -38.14936,-0.39329 V 483.38355 h 38.33246 z"
           style="fill:#803300;fill-opacity:1;stroke:#552200;stroke-width:1px;stroke-linecap:butt;stroke-linejoin:miter;stroke-opacity:1" />
        <path
           inkscape:connector-curvature="0"
           id="path661"
           d="M 515.04981,658.61142 525.8007,643.1518 V 479.86007 l -10.72337,2.87332"
           style="fill:#803300;fill-opacity:1;stroke:#552200;stroke-width:1px;stroke-linecap:butt;stroke-linejoin:miter;stroke-opacity:1" />
      </g>
      <path
         inkscape:connector-curvature="0"
         id="path645"
         d="m 274.36049,14.079558 c 0,0 -118.11765,-26.723009 -106.06483,54.188315 0,0 12.85634,56.415217 12.85634,69.776727 l -137.402162,0.7423 c 0,0 -27.319724,0.74231 -14.463381,34.14606 l -4.017605,74.23057 c 0,0 1.607039,44.53833 -16.8739637,69.77673 -18.4809863,25.23839 31.3373447,112.08815 31.3373447,112.08815 l -4.821132,165.53416 c 0,0 5.62466,49.73448 50.621859,42.31142 l 267.57264,-8.16536 c 0,0 69.10285,20.04225 141.41977,0.74231 0,0 18.48099,-6.68076 46.60424,-2.22692 l 875.83839,7.42305 c 0,0 160.7043,15.58842 202.4873,0.74232 l 16.874,-1.48461 c 0,0 76.3346,-18.55765 172.7571,1.48461 l 82.7628,-3.71153 c 0,0 30.5338,-3.71153 23.3021,-46.02295 -7.2317,-42.31143 -10.4458,-90.5613 -10.4458,-90.5613 0,0 24.9092,-86.10744 10.4458,-107.63432 -14.4634,-21.52686 -2.4105,-65.32289 -2.4105,-65.32289 l -4.0177,-92.7882 c 0,0 -16.0704,-39.3422 -2.4105,-54.18832 13.6599,-14.84612 0.8034,-43.05372 -49.8184,-43.05372 -50.6219,0 -76.3345,-14.10381 -97.2261,-9.64999 l 3.2141,-42.311407 c 0,0 34.5515,-73.4882574 -38.5691,-72.745961 -73.1204,0.7423111 -78.745,3.711526 -78.745,3.711526 0,0 -98.0296,-1.4846073 -98.0296,3.711526 0,5.196149 -37.7655,2.226919 -69.9064,6.680757 -32.1408,4.453837 -88.3874,-3.711527 -88.3874,-3.711527 l -27.3198,-6.680756 -4.821,11.134594 H 467.20565 c 0,0 -184.00642,-1.484608 -192.84516,-8.165364 z"
         style="fill:#803300;stroke:#803300;stroke-width:1.5290904px;stroke-linecap:butt;stroke-linejoin:miter;stroke-opacity:1" />
      <path
         inkscape:connector-curvature="0"
         id="path647"
         d="M 234.65204,134.71643 217.60678,63.331478 c 0,0 -27.8406,-51.439157 45.45404,-25.719579 73.29462,25.719579 173.86169,15.221802 194.316,8.923122 20.45433,-6.298666 46.5904,-19.945798 141.47569,-1.049771 l 771.01409,8.398222 146.5894,-5.248896 c 0,0 60.2265,-17.321342 102.2715,-6.298666 42.0449,11.022677 71.0219,-9.972906 71.0219,-9.972906 0,0 45.4541,-9.448007 31.2497,39.891595 -14.2045,49.339601 -17.0453,94.480091 34.0906,92.380521 51.1357,-2.09955 113.6349,1.57467 113.6349,1.57467 l 1.7047,40.94138 c 0,0 -34.0906,68.23562 -13.6364,108.6521 20.4545,40.41648 39.7723,69.2854 -1.1363,120.72455 0,0 -5.6817,103.92809 18.1816,127.02323 23.8634,23.09512 6.8181,57.21293 -60.2265,50.91425 -67.0448,-6.29866 -193.7478,-8.39822 -193.7478,-8.39822 L 1214.1866,603.96753 66.472109,594.51952 59.653995,413.95757 c 0,0 -24.431541,-23.62002 -15.340742,-66.66094 9.090814,-43.04094 0,-85.03208 0,-85.03208 0,0 22.158856,-83.45741 14.772571,-97.10453 l 176.134396,-0.5249 z"
         style="fill:#ffccaa;stroke:#ffccaa;stroke-width:1.5290904px;stroke-linecap:butt;stroke-linejoin:miter;stroke-opacity:1" />
      <path
         inkscape:connector-curvature="0"
         id="path673"
         d="m 220.77918,94.770679 88.53447,0.289 -88.53447,7.514231 z"
         style="fill:#803300;fill-opacity:1;stroke:#803300;stroke-width:1.5290904px;stroke-linecap:butt;stroke-linejoin:miter;stroke-opacity:1" />
      <path
         inkscape:connector-curvature="0"
         id="path675"
         d="m 248.26327,153.6792 68.1997,9.24829 h -90.09868 l 1.87706,-11.27135 z"
         style="fill:#803300;fill-opacity:1;stroke:#803300;stroke-width:1.5290904px;stroke-linecap:butt;stroke-linejoin:miter;stroke-opacity:1" />
      <path
         inkscape:connector-curvature="0"
         id="path677"
         d="m 42.950829,280.94344 82.070071,1.83924 -82.291284,13.28341 z"
         style="fill:#803300;fill-opacity:1;stroke:#803300;stroke-width:1.5290904px;stroke-linecap:butt;stroke-linejoin:miter;stroke-opacity:1" />
      <path
         inkscape:connector-curvature="0"
         id="path693"
         d="M 36.790039,380.67119 126.38137,394.9764 40.88248,409.58815 Z"
         style="fill:#803300;fill-opacity:1;stroke:#803300;stroke-width:1.5290904px;stroke-linecap:butt;stroke-linejoin:miter;stroke-opacity:1" />
      <path
         inkscape:connector-curvature="0"
         id="path681"
         d="m 1875.9376,548.80369 -146.4104,6.06919 151.103,10.1153 z"
         style="fill:#803300;fill-opacity:1;stroke:#803300;stroke-width:1.5290904px;stroke-linecap:butt;stroke-linejoin:miter;stroke-opacity:1" />
      <path
         inkscape:connector-curvature="0"
         id="path683"
         d="m 1853.7833,430.73943 -94.9005,5.10901 111.4914,3.0654 -1.106,-9.80929 z"
         style="fill:#803300;fill-opacity:1;stroke:#803300;stroke-width:1.5290904px;stroke-linecap:butt;stroke-linejoin:miter;stroke-opacity:1" />
      <path
         inkscape:connector-curvature="0"
         id="path685"
         d="m 1838.3168,265.41206 -93.1308,11.03545 120.34,-4.29156 -1.9909,-10.01366 z"
         style="fill:#803300;fill-opacity:1;stroke:#803300;stroke-width:1.5290904px;stroke-linecap:butt;stroke-linejoin:miter;stroke-opacity:1" />
      <path
         inkscape:connector-curvature="0"
         id="path687"
         d="m 1710.8027,153.82371 -79.4621,6.35819 133.271,0.86703 -4.3799,-9.24829 z"
         style="fill:#803300;fill-opacity:1;stroke:#803300;stroke-width:1.5290904px;stroke-linecap:butt;stroke-linejoin:miter;stroke-opacity:1" />
      <path
         inkscape:connector-curvature="0"
         id="path689"
         d="m 1730.981,78.730671 -98.389,3.901631 102.2995,5.05766 z"
         style="fill:#803300;fill-opacity:1;stroke:#803300;stroke-width:1.5290904px;stroke-linecap:butt;stroke-linejoin:miter;stroke-opacity:1" />
      <path
         inkscape:connector-curvature="0"
         id="path691"
         d="m 51.168896,519.22739 c 1.106067,0 76.539754,0.81745 76.539754,0.81745 l -78.751888,12.46597 z"
         style="fill:#803300;fill-opacity:1;stroke:#803300;stroke-width:1.5290904px;stroke-linecap:butt;stroke-linejoin:miter;stroke-opacity:1" />
    </g>
  </g>
</svg>
