<?xml version="1.0" encoding="UTF-8" standalone="no"?>
<!-- Created with Inkscape (http://www.inkscape.org/) -->

<svg
   xmlns:dc="http://purl.org/dc/elements/1.1/"
   xmlns:cc="http://creativecommons.org/ns#"
   xmlns:rdf="http://www.w3.org/1999/02/22-rdf-syntax-ns#"
   xmlns:svg="http://www.w3.org/2000/svg"
   xmlns="http://www.w3.org/2000/svg"
   xmlns:sodipodi="http://sodipodi.sourceforge.net/DTD/sodipodi-0.dtd"
   xmlns:inkscape="http://www.inkscape.org/namespaces/inkscape"
   width="1920px"
   height="800px"
   viewBox="0 0 1920 800"
   version="1.1"
   id="SVGRoot"
   inkscape:version="0.92.4 (5da689c313, 2019-01-14)"
   sodipodi:docname="guia.svg">
  <defs
     id="defs10" />
  <sodipodi:namedview
     id="base"
     pagecolor="#ffffff"
     bordercolor="#666666"
     borderopacity="1.0"
     inkscape:pageopacity="0.0"
     inkscape:pageshadow="2"
     inkscape:zoom="0.49497475"
     inkscape:cx="955.45142"
     inkscape:cy="363.65824"
     inkscape:document-units="px"
     inkscape:current-layer="layer1"
     showgrid="false"
     inkscape:window-width="1920"
     inkscape:window-height="1050"
     inkscape:window-x="1920"
     inkscape:window-y="0"
     inkscape:window-maximized="1" />
  <metadata
     id="metadata13">
    <rdf:RDF>
      <cc:Work
         rdf:about="">
        <dc:format>image/svg+xml</dc:format>
        <dc:type
           rdf:resource="http://purl.org/dc/dcmitype/StillImage" />
        <dc:title></dc:title>
      </cc:Work>
    </rdf:RDF>
  </metadata>
  <g
     inkscape:label="Capa 1"
     inkscape:groupmode="layer"
     id="layer1">
    <path
       style="fill:#ffb380;stroke:#803300;stroke-width:5.71807957;stroke-linecap:butt;stroke-linejoin:miter;stroke-miterlimit:4;stroke-dasharray:none;stroke-opacity:1"
       d="M 151.99466,731.93915 12.086443,58.980977 C 131.76696,-1.189401 209.30645,46.313528 209.30645,46.313528 l 72.48258,693.542782 c 0,0 -2.10706,17.02188 -37.92693,12.27159 0,0 -7.16398,-7.12544 -25.70604,-1.58343 0,0 -16.8564,-12.27159 -25.28461,-9.50059 0,0 -15.59217,4.75029 -26.97026,-0.39586 z"
       id="path4542"
       inkscape:connector-curvature="0" />
    <path
       style="fill:#ffccaa;stroke:#803300;stroke-width:5.71807957;stroke-linecap:butt;stroke-linejoin:miter;stroke-miterlimit:4;stroke-dasharray:none;stroke-opacity:1;fill-opacity:1"
       d="m 211.41351,67.293985 c 0,0 11.37808,-9.500582 54.36193,5.146154 0,0 24.44178,7.917158 54.78333,-1.979284 0,0 26.97026,-3.16687 39.61257,0 0,0 38.34834,0.395854 44.24808,-8.708875 l 29.92013,-3.56272 26.12744,13.855024 13.48512,10.688152 c 0,0 10.53526,9.500587 11.79949,-4.354434 1.26424,-13.855018 0.42141,-12.271592 0.42141,-12.271592 0,0 -2.94987,-14.646731 28.23449,-6.333719 0,0 24.4418,5.542009 53.94052,-3.56272 l 67.00423,-10.688159 84.28207,-0.395858 64.05435,2.771005 28.23449,4.354435 39.61257,-1.583431 24.86321,30.481043 4.63551,-30.085185 55.20474,0.395858 c 0,0 26.54885,8.70887 43.82668,1.979288 l 28.65593,-1.58343 c 0,0 17.6992,-17.417742 48.8836,-1.583432 l 22.7561,0.791716 92.2889,-1.583431 30.3415,-8.313013 31.1843,20.584603 66.1615,9.104729 c 0,0 32.4486,7.521293 61.1045,-15.042596 28.6559,-22.563891 90.1818,-7.917154 90.1818,-7.917154 0,0 29.4987,3.958578 40.0339,-1.187573 0,0 -3.7927,-3.958578 48.8836,5.146151 52.6764,9.104727 55.6263,0 55.6263,0 0,0 -1.2644,-4.354436 37.084,1.979288 38.3483,6.333724 60.6831,3.958578 60.6831,3.958578 l 13.0637,-2.375147 7.5854,-1.583431 h 0.8428 l 7.5855,8.708871 2.107,3.562714 -121.3662,672.95818 c 0,0 5.0569,-10.68815 -40.8768,-1.18758 0,0 -21.0706,-7.52129 -54.362,-3.95856 -33.2913,3.56271 -51.8334,1.58342 -50.1478,1.58342 0,0 -88.9175,-1.18757 -91.446,-1.97929 0,0 -15.1708,-8.70887 -30.3415,-9.10472 l -26.5488,1.18757 c 0,0 -26.1275,-14.25088 -50.1479,0.79171 0,0 -18.542,12.27159 -75.8539,4.7503 l -64.0544,0.79171 -115.0449,-2.771 c 0,0 -21.49196,-17.8136 -35.8199,-13.45917 0,0 -14.32795,8.31301 -18.96346,15.83432 l -101.98129,-3.16686 -8.42821,3.16686 -63.63295,-2.77101 -20.6491,-26.52247 c 0,0 11.79949,35.62719 -12.2209,32.85619 l -25.70603,-3.56271 -32.87,5.542 -85.54629,-4.35443 -30.76295,-17.41775 -39.19116,20.18875 -51.83347,-0.39586 -10.95666,-3.16686 -20.2277,6.33373 -26.97025,-0.79172 -36.24129,-2.37515 c 0,0 -29.49872,11.87574 -60.68308,-1.58343 -31.18436,-13.45916 -40.45538,6.33373 -40.45538,6.33373 z"
       id="path4544"
       inkscape:connector-curvature="0" />
    <path
       inkscape:connector-curvature="0"
       id="path4548"
       d="M 1722.8455,772.58523 1914.3505,53.125731 C 1799.6318,-21.010719 1718.6283,24.754112 1718.6283,24.754112 L 1592.7817,771.54104 c 0,0 0.787,18.617 36.8795,16.12299 0,0 7.6951,-7.19619 25.7605,0.19006 0,0 17.7595,-12.05813 25.9516,-8.42754 0,0 15.1843,6.30874 26.9298,1.57183 z"
       style="fill:#ffb380;stroke:#803300;stroke-width:5.71807957;stroke-linecap:butt;stroke-linejoin:miter;stroke-miterlimit:4;stroke-dasharray:none;stroke-opacity:1" />
  </g>
</svg>
