<?xml version="1.0" encoding="UTF-8" standalone="no"?>
<!-- Created with Inkscape (http://www.inkscape.org/) -->

<svg
   xmlns:dc="http://purl.org/dc/elements/1.1/"
   xmlns:cc="http://creativecommons.org/ns#"
   xmlns:rdf="http://www.w3.org/1999/02/22-rdf-syntax-ns#"
   xmlns:svg="http://www.w3.org/2000/svg"
   xmlns="http://www.w3.org/2000/svg"
   xmlns:sodipodi="http://sodipodi.sourceforge.net/DTD/sodipodi-0.dtd"
   xmlns:inkscape="http://www.inkscape.org/namespaces/inkscape"
   width="793.70081"
   height="1122.5197"
   viewBox="0 0 210 297"
   version="1.1"
   id="svg8"
   inkscape:version="0.92.4 (5da689c313, 2019-01-14)"
   sodipodi:docname="saludo.svg">
  <defs
     id="defs2" />
  <sodipodi:namedview
     id="base"
     pagecolor="#ffffff"
     bordercolor="#666666"
     borderopacity="1.0"
     inkscape:pageopacity="0.0"
     inkscape:pageshadow="2"
     inkscape:zoom="0.6672489"
     inkscape:cx="396.8504"
     inkscape:cy="561.25983"
     inkscape:document-units="mm"
     inkscape:current-layer="layer1"
     showgrid="false"
     units="px"
     inkscape:window-width="1920"
     inkscape:window-height="966"
     inkscape:window-x="0"
     inkscape:window-y="84"
     inkscape:window-maximized="1" />
  <metadata
     id="metadata5">
    <rdf:RDF>
      <cc:Work
         rdf:about="">
        <dc:format>image/svg+xml</dc:format>
        <dc:type
           rdf:resource="http://purl.org/dc/dcmitype/StillImage" />
        <dc:title />
      </cc:Work>
    </rdf:RDF>
  </metadata>
  <g
     inkscape:label="Capa 1"
     inkscape:groupmode="layer"
     id="layer1">
    <path
       style="fill:#ffb380;stroke:#000000;stroke-width:0.26458332px;stroke-linecap:butt;stroke-linejoin:miter;stroke-opacity:1"
       d="m 66.35293,215.06725 -0.743492,7.28621 c 0,0 0.396528,7.78188 6.493158,8.02971 6.096627,0.24783 8.079271,-3.76702 6.542722,-14.27504 z"
       id="path938"
       inkscape:connector-curvature="0" />
    <path
       style="fill:#502d16;stroke:#000000;stroke-width:0.26458332px;stroke-linecap:butt;stroke-linejoin:miter;stroke-opacity:1"
       d="m 80.891853,232.26668 c 0,0 0.09913,10.80541 2.081776,10.80541 1.982642,0 0.495659,5.15487 -0.495663,5.15487 -0.99132,0 -6.047062,7.53405 4.262684,7.63318 10.309746,0.0991 10.90454,0.0991 10.90454,0.0991 0,0 4.54762,-1.18673 4.54762,-2.62557 0,-1.43885 0.11159,-6.29633 0.11159,-6.29633 l 5.65054,-8.6245 4.9566,8.72363 v 5.94794 c 0,0 3.96529,2.57743 7.33578,2.87483 3.3705,0.2974 9.41756,-0.39653 9.41756,-0.39653 0,0 3.76702,-0.0991 4.85748,-2.28004 1.09045,-2.18091 -0.0991,-7.43491 -1.48699,-7.43491 -1.38785,0 -1.38785,-2.47831 -0.29739,-3.3705 1.09045,-0.89219 1.98264,-7.13751 1.58611,-9.71495 z"
       id="path919"
       inkscape:connector-curvature="0" />
    <path
       inkscape:connector-curvature="0"
       id="path974"
       d="m 78.843752,171.97269 c 0,0 -13.77937,27.41004 -13.77937,45.4521 0,0 2.18091,5.35314 11.30107,2.7757 0,0 10.90453,-43.02336 9.31842,-46.69125 0,0 -1.68525,-3.76702 -6.84012,-1.53655 z"
       style="fill:#214478;fill-opacity:1;stroke:#000000;stroke-width:0.26458332px;stroke-linecap:butt;stroke-linejoin:miter;stroke-opacity:1" />
    <path
       inkscape:connector-curvature="0"
       id="path865"
       d="m 172.22217,163.01652 4.99644,-3.34794 c 0,0 4.71246,-4.32847 1.67448,-8.31305 -3.038,-3.98458 -6.61538,-3.13432 -12.4541,3.34346 z"
       style="fill:#ffb380;stroke:#000000;stroke-width:0.21727227px;stroke-linecap:butt;stroke-linejoin:miter;stroke-opacity:1" />
    <path
       style="fill:#214478;fill-opacity:1;stroke:#000000;stroke-width:0.26458332px;stroke-linecap:butt;stroke-linejoin:miter;stroke-opacity:1"
       d="m 132.61511,183.90325 c 0,0 29.20092,-9.40676 42.05948,-22.06272 0,0 2.28534,-5.30941 -5.94913,-10.00135 0,0 -38.31191,22.40794 -39.8134,26.11128 0,0 -1.5026,3.84353 3.70305,5.95279 z"
       id="path863"
       inkscape:connector-curvature="0" />
    <g
       id="g989">
      <path
         inkscape:connector-curvature="0"
         id="path968"
         d="m 83.976243,171.6665 c 0,0 -11.60976,49.59651 -6.851414,65.06113 l 60.470631,1.38785 c 0,0 1.78438,-6.69142 1.14002,-14.27503 -0.64436,-7.58361 -3.2218,-39.45461 -2.82527,-40.84246 v -10.9541 z"
         style="fill:#214478;stroke:#000000;stroke-width:0.26458332px;stroke-linecap:butt;stroke-linejoin:miter;stroke-opacity:1" />
      <g
         id="g926">
        <path
           style="opacity:1;fill:#725043;fill-opacity:1;stroke:#000000;stroke-width:0.26458332px;stroke-linecap:butt;stroke-linejoin:miter;stroke-opacity:1"
           d="m 76.05528,223.78364 c -0.140195,-2.17301 0.595823,-7.85087 0.595823,-7.85087 0,0 58.069517,1.19147 61.440017,0.32407 0,0 0.66914,6.59229 0.64436,7.58361 -2.57743,0.74349 -62.6802,-0.0568 -62.6802,-0.0568 z"
           id="path909"
           inkscape:connector-curvature="0" />
        <path
           style="opacity:1;fill:#ffe680;stroke:#000000;stroke-width:0.26458332px;stroke-linecap:butt;stroke-linejoin:miter;stroke-opacity:1"
           d="m 99.454352,215.75383 v 8.74842 h 1.313498 v 2.05699 l 12.96153,-0.0744 v -1.98264 h 1.71003 v -8.79798 h -1.63568 v -1.16481 h -12.01977 l -0.0248,1.21442 z"
           id="path911"
           inkscape:connector-curvature="0" />
        <path
           style="opacity:1;fill:#725043;fill-opacity:1;stroke:#000000;stroke-width:0.26458332px;stroke-linecap:butt;stroke-linejoin:miter;stroke-opacity:1"
           d="m 104.064,217.53821 8.37667,-0.0991 v 2.70135 h -4.43617 l -0.7311,0.7311 0.7311,0.7311 h 4.31225 v 1.80916 h -8.74841 l -1.00372,-1.00371 v -4.05203 z"
           id="path913"
           inkscape:connector-curvature="0" />
      </g>
    </g>
    <g
       id="g1140">
      <path
         inkscape:connector-curvature="0"
         id="path870"
         d="m 121.6534,183.54795 7.88592,-7.88592 c -1.61224,11.14543 0.77106,11.42582 0.77106,11.42582 5.81806,0.56077 17.59436,-23.55261 17.59436,-23.55261 0,0 0.49068,12.26698 3.85533,12.12679 3.36466,-0.1402 3.71515,-12.54737 3.71515,-12.54737 v -16.613 c 0,0 5.25727,8.55184 7.71067,8.06116 2.4534,-0.49068 1.82252,-2.3833 2.17301,-7.36019 0.35048,-4.97689 -4.6965,-15.91202 -4.6965,-15.91202 V 118.26468 H 55.414886 l 0.594791,14.57243 c 0,0 -6.047063,9.71495 -5.5514,12.58979 0.49566,2.87483 0.669142,5.15487 0.669142,5.15487 0,0 0.148698,5.82401 3.667889,1.43742 l 4.076812,-4.07681 v 14.18829 c 0,0 0.731099,12.88718 4.175942,13.63067 3.444843,0.74349 4.857477,-9.54147 4.857477,-9.54147 0,0 8.710517,18.76506 16.105754,20.02681 0,0 1.612232,0.28039 1.261747,-2.90903 l -0.94631,-8.79717 9.393002,9.63834 c 0,0 8.386408,4.27144 9.774258,9.12892 l 0.2974,3.17223 c 0,0 -3.66789,6.34446 1.48698,10.60714 l 0.59479,-2.97396 c 0,0 2.37917,4.36181 1.58612,9.21929 0,0 2.08177,1.68524 4.56008,-8.52537 0,0 1.28871,1.88351 2.08177,1.88351 0,0 0.69393,-6.24533 -0.79306,-8.12884 0,0 -2.67656,-2.87483 -2.67656,-4.75834 0,0 2.7757,-5.94793 5.74966,-5.94793 z"
         style="opacity:1;fill:#ff6600;stroke:#000000;stroke-width:0.26458332px;stroke-linecap:butt;stroke-linejoin:miter;stroke-opacity:1" />
      <path
         inkscape:connector-curvature="0"
         id="path885"
         d="m 71.573429,126.69091 c 0,0 -9.51669,11.30107 0.594794,23.79173 10.11148,12.49065 19.826432,14.27503 21.412549,14.27503 1.586113,0 3.223228,-9.70417 11.074098,-9.84437 7.85086,-0.14019 14.79047,1.47204 17.94484,10.79495 0,0 30.46037,-8.88115 23.52111,-39.01733 H 128.4753 c 0,0 0,10.90454 -6.93926,11.69759 0,0 3.17223,-6.34446 2.37918,-11.1028 0,0 -5.15488,13.68024 -11.49934,13.8785 0,0 4.56008,-8.72363 1.78438,-14.27503 l -8.92189,-0.19826 c 0,0 1.38785,12.09412 -5.947932,10.70627 0,0 4.419062,-7.83169 0,-9.91322 z"
         style="opacity:1;fill:#ffccaa;stroke:#ffccaa;stroke-width:0.26458332px;stroke-linecap:butt;stroke-linejoin:miter;stroke-opacity:1" />
      <path
         inkscape:connector-curvature="0"
         id="path1073"
         d="m 103.49399,193.30774 h 7.48448 c 0,0 0.89219,2.4783 0,2.4783 -0.89219,0 -7.28622,0 -7.28622,0 0,0 -0.74349,-1.14002 -0.19826,-2.4783 z"
         style="fill:#a05a2c;stroke:#000000;stroke-width:0.26458332px;stroke-linecap:butt;stroke-linejoin:miter;stroke-opacity:1" />
    </g>
    <g
       id="g873"
       transform="matrix(0.82140513,0,0,0.82140513,19.384066,27.507792)">
      <path
         inkscape:connector-curvature="0"
         id="path867"
         d="m 99.818173,163.04456 h 17.594357 c 0,0 1.19165,10.65475 -8.76213,10.72485 -9.95378,0.0701 -8.832227,-10.72485 -8.832227,-10.72485 z"
         style="fill:#000000;stroke:#000000;stroke-width:0.26458332px;stroke-linecap:butt;stroke-linejoin:miter;stroke-opacity:1" />
      <path
         sodipodi:nodetypes="csccc"
         inkscape:connector-curvature="0"
         id="path869"
         d="m 101.5005,170.05083 c 0,0 1.99777,-1.64729 6.32626,-1.48957 4.32849,0.15772 7.29009,2.3132 7.29009,2.3132 0,0 -1.69985,2.54101 -7.0097,2.57606 0,0 -5.74796,-0.50822 -6.60665,-3.39969 z"
         style="fill:#d40000;stroke:#000000;stroke-width:0.26458332px;stroke-linecap:butt;stroke-linejoin:miter;stroke-opacity:1" />
    </g>
    <g
       id="g898">
      <ellipse
         ry="3.5014381"
         rx="3.7815533"
         cy="146.23871"
         cx="91.921272"
         id="path886"
         style="opacity:1;fill:#000000;fill-opacity:1;fill-rule:nonzero;stroke:#000000;stroke-width:1.99805212;stroke-linecap:round;stroke-linejoin:bevel;stroke-miterlimit:4;stroke-dasharray:none;stroke-opacity:1;paint-order:stroke markers fill" />
      <ellipse
         ry="0.5283795"
         rx="0.13698728"
         cy="143.82483"
         cx="94.033699"
         id="path892"
         style="opacity:1;fill:#ffffff;fill-opacity:1;fill-rule:nonzero;stroke:#ffffff;stroke-width:0.83753669;stroke-linecap:round;stroke-linejoin:bevel;stroke-miterlimit:4;stroke-dasharray:none;stroke-opacity:1;paint-order:stroke markers fill" />
    </g>
    <g
       id="g904"
       transform="translate(32.279168)">
      <ellipse
         style="opacity:1;fill:#000000;fill-opacity:1;fill-rule:nonzero;stroke:#000000;stroke-width:1.99805212;stroke-linecap:round;stroke-linejoin:bevel;stroke-miterlimit:4;stroke-dasharray:none;stroke-opacity:1;paint-order:stroke markers fill"
         id="ellipse900"
         cx="91.921272"
         cy="146.23871"
         rx="3.7815533"
         ry="3.5014381" />
      <ellipse
         style="opacity:1;fill:#ffffff;fill-opacity:1;fill-rule:nonzero;stroke:#ffffff;stroke-width:0.83753669;stroke-linecap:round;stroke-linejoin:bevel;stroke-miterlimit:4;stroke-dasharray:none;stroke-opacity:1;paint-order:stroke markers fill"
         id="ellipse902"
         cx="94.033699"
         cy="143.82483"
         rx="0.13698728"
         ry="0.5283795" />
    </g>
    <g
       id="g934">
      <path
         inkscape:connector-curvature="0"
         id="path866"
         d="m 53.273745,112.08402 c 0,0 -8.131257,5.18718 -3.645048,10.37436 0,0 0.841166,6.58912 35.4691,9.95378 0,0 37.011233,3.50485 51.170833,-0.14019 0,0 21.3095,-1.82253 27.61823,-8.41165 0,0 6.30873,-6.72931 -1.96272,-9.393 z"
         style="fill:#ac9d93;stroke:#241f1c;stroke-width:0.26458332px;stroke-linecap:butt;stroke-linejoin:miter;stroke-opacity:1" />
      <path
         inkscape:connector-curvature="0"
         id="path864"
         d="m 53.554132,115.58887 0.280387,-16.122315 c 0,0 9.953778,-30.141725 41.076861,-32.665217 l 25.9359,-0.420582 c 0,0 37.8524,12.477272 41.07686,33.646574 v 14.43999 c 0,0 -7.99106,6.58912 -41.35724,8.13126 l -25.935907,0.84116 c 0,0 -21.870275,0.14019 -41.076861,-7.85087 z"
         style="fill:#917c6f;stroke:#241f1c;stroke-width:0.26458332px;stroke-linecap:butt;stroke-linejoin:miter;stroke-opacity:1" />
      <path
         inkscape:connector-curvature="0"
         id="path860"
         d="m 74.863628,77.876669 c 0,0 -17.664451,-11.636108 -21.870273,-22.571244 0,0 -5.467567,-13.879213 -7.850866,-1.401941 0,0 -0.981359,19.346781 1.40194,24.674156 0,0 6.448927,11.916495 13.879213,15.281153 0,0 8.473219,1.902886 13.380261,-4.491139 3.915721,-5.848798 1.059725,-11.490985 1.059725,-11.490985 z"
         style="fill:#ac9d93;stroke:#241f1c;stroke-width:0.26458332px;stroke-linecap:butt;stroke-linejoin:miter;stroke-opacity:1" />
      <path
         style="fill:#ac9d93;stroke:#241f1c;stroke-width:0.26458332px;stroke-linecap:butt;stroke-linejoin:miter;stroke-opacity:1"
         d="m 140.13641,77.876669 c 0,0 17.66446,-11.636108 21.87028,-22.571244 0,0 5.46757,-13.879213 7.85087,-1.401941 0,0 0.98136,19.346781 -1.40194,24.674156 0,0 -6.44893,11.916495 -13.87922,15.281153 0,0 -8.47322,1.902886 -13.38027,-4.491139 -3.91572,-5.848798 -1.05972,-11.490985 -1.05972,-11.490985 z"
         id="path862"
         inkscape:connector-curvature="0" />
      <g
         id="g920">
        <path
           style="fill:#ac9d93;stroke:#241f1c;stroke-width:0.26458332px;stroke-linecap:butt;stroke-linejoin:miter;stroke-opacity:1"
           d="m 94.91138,66.801338 v 58.601112 h 24.95454 V 66.520948 l -2.8795,-4.987446 H 97.715262 Z"
           id="path868"
           inkscape:connector-curvature="0" />
        <g
           id="g911">
          <path
             inkscape:connector-curvature="0"
             id="path10830"
             d="m 102.52714,118.14125 v -9.39404 l 4.69703,4.69702 4.69701,-4.69702 v 9.39404"
             style="fill:#802000;fill-opacity:0;stroke:#502d16;stroke-width:1.18350065;stroke-linecap:round;stroke-linejoin:bevel;stroke-miterlimit:4;stroke-dasharray:none;stroke-opacity:1;paint-order:stroke markers fill" />
          <path
             inkscape:connector-curvature="0"
             id="path10832"
             d="m 111.92118,107.18155 -9.39404,-4.69703 9.39404,-4.697013"
             style="fill:#802000;fill-opacity:0;stroke:#502d16;stroke-width:1.18350065;stroke-linecap:round;stroke-linejoin:bevel;stroke-miterlimit:4;stroke-dasharray:none;stroke-opacity:1;paint-order:stroke markers fill" />
          <path
             inkscape:connector-curvature="0"
             id="path10834"
             d="m 107.22417,96.221834 v -9.394038 l 4.69701,4.697018"
             style="fill:#802000;fill-opacity:0;stroke:#502d16;stroke-width:1.18350065;stroke-linecap:round;stroke-linejoin:bevel;stroke-miterlimit:4;stroke-dasharray:none;stroke-opacity:1;paint-order:stroke markers fill" />
          <path
             inkscape:connector-curvature="0"
             id="path10836"
             d="m 102.52714,85.262124 v -9.394038 l 9.39404,5.423647 v 3.970391"
             style="fill:#802000;fill-opacity:0;stroke:#502d16;stroke-width:1.18350065;stroke-linecap:round;stroke-linejoin:bevel;stroke-miterlimit:4;stroke-dasharray:none;stroke-opacity:1;paint-order:stroke markers fill" />
          <path
             inkscape:connector-curvature="0"
             id="path10838"
             d="m 102.52714,74.302413 v -9.394037 l 9.39404,9.394037 v -9.394037 z"
             style="fill:#802000;fill-opacity:0;stroke:#502d16;stroke-width:1.18350065;stroke-linecap:round;stroke-linejoin:bevel;stroke-miterlimit:4;stroke-dasharray:none;stroke-opacity:1;paint-order:stroke markers fill" />
        </g>
      </g>
    </g>
    <ellipse
       style="opacity:1;fill:#ffb380;fill-opacity:1;fill-rule:nonzero;stroke:#ffb380;stroke-width:1.5;stroke-linecap:round;stroke-linejoin:bevel;stroke-miterlimit:4;stroke-dasharray:none;stroke-opacity:1;paint-order:stroke markers fill"
       id="path936"
       cx="108.05457"
       cy="152.07437"
       rx="4.3109674"
       ry="2.0678625" />
    <path
       inkscape:connector-curvature="0"
       id="path852"
       d="m 86.496808,138.17796 c 0,0 5.327367,-6.02835 10.093964,0.56077"
       style="fill:none;stroke:#000000;stroke-width:1;stroke-linecap:round;stroke-linejoin:bevel;stroke-miterlimit:4;stroke-dasharray:none;stroke-opacity:1;paint-order:markers fill stroke" />
    <path
       style="fill:none;stroke:#000000;stroke-width:1;stroke-linecap:round;stroke-linejoin:bevel;stroke-miterlimit:4;stroke-dasharray:none;stroke-opacity:1;paint-order:markers fill stroke"
       d="m 119.83433,138.17796 c 0,0 5.32737,-6.02835 10.09397,0.56077"
       id="path856"
       inkscape:connector-curvature="0" />
  </g>
</svg>
