<?xml version="1.0" encoding="UTF-8" standalone="no"?>
<!-- Created with Inkscape (http://www.inkscape.org/) -->

<svg
   xmlns:dc="http://purl.org/dc/elements/1.1/"
   xmlns:cc="http://creativecommons.org/ns#"
   xmlns:rdf="http://www.w3.org/1999/02/22-rdf-syntax-ns#"
   xmlns:svg="http://www.w3.org/2000/svg"
   xmlns="http://www.w3.org/2000/svg"
   xmlns:sodipodi="http://sodipodi.sourceforge.net/DTD/sodipodi-0.dtd"
   xmlns:inkscape="http://www.inkscape.org/namespaces/inkscape"
   width="485"
   height="150"
   viewBox="0 0 485 150"
   version="1.1"
   id="SVGRoot"
   inkscape:version="0.92.4 (5da689c313, 2019-01-14)"
   sodipodi:docname="boton-ini.svg"
   inkscape:export-filename="/home/emmtell/Documents/proyectos/runa-dulce/docs/botones/mboton-ini.png"
   inkscape:export-xdpi="96"
   inkscape:export-ydpi="96">
  <defs
     id="defs10" />
  <sodipodi:namedview
     id="base"
     pagecolor="#ffffff"
     bordercolor="#666666"
     borderopacity="1.0"
     inkscape:pageopacity="0.0"
     inkscape:pageshadow="2"
     inkscape:zoom="2.340625"
     inkscape:cx="132.6632"
     inkscape:cy="113.52349"
     inkscape:document-units="px"
     inkscape:current-layer="layer1"
     showgrid="false"
     inkscape:window-width="1920"
     inkscape:window-height="966"
     inkscape:window-x="0"
     inkscape:window-y="84"
     inkscape:window-maximized="1"
     units="px" />
  <metadata
     id="metadata13">
    <rdf:RDF>
      <cc:Work
         rdf:about="">
        <dc:format>image/svg+xml</dc:format>
        <dc:type
           rdf:resource="http://purl.org/dc/dcmitype/StillImage" />
        <dc:title />
      </cc:Work>
    </rdf:RDF>
  </metadata>
  <g
     inkscape:label="Capa 1"
     inkscape:groupmode="layer"
     id="layer1"
     transform="translate(0,-10)">
    <path
       style="fill:#502d16;stroke:#502d16;stroke-width:0.25625315px;stroke-linecap:butt;stroke-linejoin:miter;stroke-opacity:1"
       d="m 439.65084,157.33851 15.64974,-2.47101 c 0,0 3.47774,-34.2281 -0.36606,-40.63443 -3.8438,-6.40633 8.96886,-37.339744 8.96886,-37.339744 0,0 2.92859,-7.504558 -3.66076,-10.067089 0,0 10.61619,-11.165314 11.34835,-22.513669 0.73214,-11.348353 11.89745,-26.540505 11.89745,-26.540505 0,0 -35.6924,-3.660758 -103.59948,2.928607 0,0 -91.51897,12.263545 -116.59519,9.517975 0,0 -106.89416,-3.843797 -158.14479,-10.067087 0,0 -43.563035,-10.2501272 -64.429363,-7.504558 L 10.112309,13.471833 18.93808,31.865986 202.7082,75.245985 Z"
       id="path5778"
       inkscape:connector-curvature="0" />
    <path
       style="opacity:1;fill:#a05a2c;fill-opacity:1;stroke:#502d16;stroke-width:0.25625315px;stroke-linecap:butt;stroke-linejoin:miter;stroke-opacity:1"
       d="M 10.112309,13.471833 9.5945991,25.638007 c 0,0 7.5067889,18.896399 5.6948049,25.626624 l 6.471368,-0.258856 -5.177094,3.882822 c 0,0 4.659386,30.803717 1.553129,36.757377 h 1.294274 l -8.455153,32.471146 -8.7858221,17.11405 c 0,0 -0.9151896,6.04025 3.8437973,6.22329 l 18.6698728,-0.0915 14.917595,-0.27455 19.67658,-1.00671 10.524683,-0.82368 9.517975,-0.64063 15.741265,0.18304 17.754686,-0.64063 c 0,0 13.72784,-1.00671 28.27936,2.37949 14.55152,3.3862 17.57164,3.20317 17.57164,3.20317 0,0 20.40874,0.91519 40.90899,1.73886 l 22.23911,-0.27456 h 11.62291 l 8.87735,0.36608 15.28367,0.91519 10.98227,1.09822 13.36178,-0.0915 22.14758,0.27456 26.35748,0.0915 38.71252,-0.36608 12.17203,-0.82367 c 0,0 14.82609,-0.36607 30.65887,3.11165 15.83278,3.47772 17.84618,1.00671 17.84618,1.00671 0,0 4.30139,-1.64734 9.79254,0.54911 0,0 3.02012,0.54912 2.47102,-2.83709 -0.54912,-3.3862 -2.47102,-12.90417 -2.47102,-12.90417 0,0 -2.56253,-5.94874 -2.01341,-16.10734 0.5491,-10.15861 -0.0915,-16.8395 -0.0915,-16.8395 0,0 -15.74125,-7.32152 -26.63201,-5.85721 -10.89076,1.4643 14.73456,-6.223294 26.26595,0.82367 l 0.91518,-12.172027 c 0,0 8.96886,-7.413037 9.06037,-15.375189 l -0.36606,-9.334935 -28.82848,-2.745571 31.20797,-1.281266 c 0,0 12.35507,-32.397719 11.80594,-38.163415 0,0 -17.75468,-1.555823 -38.43797,2.01342 -20.68329,3.56924 -57.84,9.426454 -70.28657,7.870631 l -61.13468,1.555823 -107.44329,-3.111646 c 0,0 -101.311516,-9.334936 -109.273667,-11.897468 0,0 -57.462299,-6.037929 -64.286274,-7.503394 z"
       id="path5774"
       inkscape:connector-curvature="0" />
    <path
       inkscape:connector-curvature="0"
       id="path5794"
       d="m 376.26239,142.63644 7.37735,-1.16484 h 6.34196 l 6.98907,2.97683 v 2.20026 c 0,0 -9.18934,2.20027 -15.14302,-1.55313 -5.95366,-3.75339 -5.56536,-2.45912 -5.56536,-2.45912 z"
       style="fill:#502d16;stroke:#502d16;stroke-width:0.25625315px;stroke-linecap:butt;stroke-linejoin:miter;stroke-opacity:1" />
    <path
       style="fill:#502d16;stroke:#502d16;stroke-width:0.25804973;stroke-linecap:butt;stroke-linejoin:miter;stroke-miterlimit:4;stroke-dasharray:none;stroke-opacity:1"
       d="m 376.26239,104.19847 7.37735,-1.16485 h 6.34196 l 6.98907,2.97683 v 2.20027 c 0,0 -9.18934,2.20026 -15.14302,-1.55313 -5.95366,-3.75339 -5.56536,-2.45912 -5.56536,-2.45912 z"
       id="path5792"
       inkscape:connector-curvature="0" />
    <path
       style="fill:#502d16;stroke:#502d16;stroke-width:0.25804973;stroke-linecap:butt;stroke-linejoin:miter;stroke-miterlimit:4;stroke-dasharray:none;stroke-opacity:1"
       d="m 376.26239,65.760498 7.37735,-1.164847 h 6.34196 l 6.98907,2.976831 v 2.200264 c 0,0 -9.18934,2.200266 -15.14302,-1.553127 -5.95366,-3.753394 -5.56536,-2.459121 -5.56536,-2.459121 z"
       id="path5788"
       inkscape:connector-curvature="0" />
    <ellipse
       style="opacity:1;fill:#999999;fill-opacity:1;fill-rule:nonzero;stroke:#4d4d4d;stroke-width:1.28126574;stroke-linecap:round;stroke-linejoin:bevel;stroke-miterlimit:4;stroke-dasharray:none;stroke-opacity:1;paint-order:stroke markers fill"
       id="ellipse5784"
       cx="420.70401"
       cy="145.33684"
       rx="8.8010626"
       ry="3.6239667" />
    <path
       style="fill:none;stroke:#502d16;stroke-width:0.25882462;stroke-linecap:butt;stroke-linejoin:miter;stroke-miterlimit:4;stroke-dasharray:none;stroke-opacity:1"
       d="m 18.93808,31.865986 226.601,6.223292"
       id="path5796"
       inkscape:connector-curvature="0" />
    <path
       style="fill:none;stroke:#502d16;stroke-width:0.25804973;stroke-linecap:butt;stroke-linejoin:miter;stroke-miterlimit:4;stroke-dasharray:none;stroke-opacity:1"
       d="M 17.473776,39.553581 245.53908,38.089278"
       id="path5798"
       inkscape:connector-curvature="0" />
    <path
       style="fill:none;stroke:#502d16;stroke-width:0.25882462;stroke-linecap:butt;stroke-linejoin:miter;stroke-miterlimit:4;stroke-dasharray:none;stroke-opacity:1"
       d="M 19.85327,44.495607 245.53908,38.089278"
       id="path5800"
       inkscape:connector-curvature="0" />
    <path
       style="fill:none;stroke:#502d16;stroke-width:0.25882462;stroke-linecap:butt;stroke-linejoin:miter;stroke-miterlimit:4;stroke-dasharray:none;stroke-opacity:1"
       d="M 22.415801,75.612061 228.15047,73.232566"
       id="path5802"
       inkscape:connector-curvature="0" />
    <path
       style="fill:none;stroke:#502d16;stroke-width:0.25882462;stroke-linecap:butt;stroke-linejoin:miter;stroke-miterlimit:4;stroke-dasharray:none;stroke-opacity:1"
       d="M 22.415801,75.612061 242.79351,76.344212"
       id="path5804"
       inkscape:connector-curvature="0" />
    <path
       style="fill:none;stroke:#502d16;stroke-width:0.25882462;stroke-linecap:butt;stroke-linejoin:miter;stroke-miterlimit:4;stroke-dasharray:none;stroke-opacity:1"
       d="m 22.598838,79.821933 c 0.732154,0.366076 226.784042,0.549115 226.784042,0.549115"
       id="path5806"
       inkscape:connector-curvature="0" />
    <path
       style="fill:none;stroke:#502d16;stroke-width:0.25882462;stroke-linecap:butt;stroke-linejoin:miter;stroke-miterlimit:4;stroke-dasharray:none;stroke-opacity:1"
       d="M 30.103396,84.397882 149.44415,86.594338"
       id="path5808"
       inkscape:connector-curvature="0" />
    <path
       style="fill:none;stroke:#502d16;stroke-width:0.25882462;stroke-linecap:butt;stroke-linejoin:miter;stroke-miterlimit:4;stroke-dasharray:none;stroke-opacity:1"
       d="m 28.639091,100.50522 c 0,0 119.889869,-14.459997 187.796949,7.32152"
       id="path5810"
       inkscape:connector-curvature="0" />
    <path
       style="fill:none;stroke:#502d16;stroke-width:0.25804973;stroke-linecap:butt;stroke-linejoin:miter;stroke-miterlimit:4;stroke-dasharray:none;stroke-opacity:1"
       d="M 13.813017,112.58573 241.87832,112.03662"
       id="path5812"
       inkscape:connector-curvature="0" />
    <path
       style="fill:none;stroke:#502d16;stroke-width:0.25804973;stroke-linecap:butt;stroke-linejoin:miter;stroke-miterlimit:4;stroke-dasharray:none;stroke-opacity:1"
       d="M 14.911244,116.24649 H 249.74895"
       id="path5814"
       inkscape:connector-curvature="0" />
    <path
       style="fill:none;stroke:#502d16;stroke-width:0.25804973;stroke-linecap:butt;stroke-linejoin:miter;stroke-miterlimit:4;stroke-dasharray:none;stroke-opacity:1"
       d="m 16.009472,120.09029 c 0,0 219.096448,4.39291 233.739478,-3.8438"
       id="path5816"
       inkscape:connector-curvature="0" />
    <g
       id="g5824"
       style="fill:none;stroke:#502d16;stroke-width:1.70700002;stroke-miterlimit:4;stroke-dasharray:none"
       transform="matrix(0.25625315,0,0,0.25625315,-4.1247038,-14.991732)">
      <path
         inkscape:connector-curvature="0"
         id="path5818"
         d="M 1415.7143,608.57143 C 1371.4286,610 1211.4286,585.71429 1211.4286,585.71429 c 0,0 -108.5715,-21.42858 98.5714,-32.85715"
         style="fill:none;stroke:#502d16;stroke-width:1.70700002;stroke-linecap:butt;stroke-linejoin:miter;stroke-miterlimit:4;stroke-dasharray:none;stroke-opacity:1" />
      <path
         inkscape:connector-curvature="0"
         id="path5820"
         d="m 1310,552.85714 384.2857,-11.42857"
         style="fill:none;stroke:#502d16;stroke-width:1.70700002;stroke-linecap:butt;stroke-linejoin:miter;stroke-miterlimit:4;stroke-dasharray:none;stroke-opacity:1" />
    </g>
    <g
       id="g5830"
       transform="matrix(0.44097026,0,0,0.27788258,-320.53213,-30.206124)"
       style="fill:none;stroke:#502d16;stroke-width:0.00000005;stroke-miterlimit:4;stroke-dasharray:none">
      <path
         style="fill:none;stroke:#502d16;stroke-width:0.00000005;stroke-linecap:butt;stroke-linejoin:miter;stroke-miterlimit:4;stroke-dasharray:none;stroke-opacity:1"
         d="M 1415.7143,608.57143 C 1371.4286,610 1211.4286,585.71429 1211.4286,585.71429 c 0,0 -108.5715,-21.42858 98.5714,-32.85715"
         id="path5826"
         inkscape:connector-curvature="0" />
      <path
         style="fill:none;stroke:#502d16;stroke-width:0.00000005;stroke-linecap:butt;stroke-linejoin:miter;stroke-miterlimit:4;stroke-dasharray:none;stroke-opacity:1"
         d="m 1310,552.85714 384.2857,-11.42857"
         id="path5828"
         inkscape:connector-curvature="0" />
    </g>
    <g
       id="g5836"
       transform="matrix(0.25625315,0,0,0.25625315,-4.1247038,-50.354667)"
       style="fill:none;stroke:#502d16;stroke-width:1.00701094;stroke-miterlimit:4;stroke-dasharray:none">
      <path
         style="fill:none;stroke:#502d16;stroke-width:1.00701094;stroke-linecap:butt;stroke-linejoin:miter;stroke-miterlimit:4;stroke-dasharray:none;stroke-opacity:1"
         d="M 1415.7143,608.57143 C 1371.4286,610 1211.4286,585.71429 1211.4286,585.71429 c 0,0 -108.5715,-21.42858 98.5714,-32.85715"
         id="path5832"
         inkscape:connector-curvature="0" />
      <path
         style="fill:none;stroke:#502d16;stroke-width:1.00701094;stroke-linecap:butt;stroke-linejoin:miter;stroke-miterlimit:4;stroke-dasharray:none;stroke-opacity:1"
         d="m 1310,552.85714 384.2857,-11.42857"
         id="path5834"
         inkscape:connector-curvature="0" />
    </g>
    <g
       transform="matrix(0.44097026,0,0,0.27788258,-320.53213,-65.569059)"
       id="g5842"
       style="fill:none;stroke:#502d16;stroke-width:0.00000005;stroke-miterlimit:4;stroke-dasharray:none">
      <path
         inkscape:connector-curvature="0"
         id="path5838"
         d="M 1415.7143,608.57143 C 1371.4286,610 1211.4286,585.71429 1211.4286,585.71429 c 0,0 -108.5715,-21.42858 98.5714,-32.85715"
         style="fill:none;stroke:#502d16;stroke-width:0.00000005;stroke-linecap:butt;stroke-linejoin:miter;stroke-miterlimit:4;stroke-dasharray:none;stroke-opacity:1" />
      <path
         inkscape:connector-curvature="0"
         id="path5840"
         d="m 1310,552.85714 384.2857,-11.42857"
         style="fill:none;stroke:#502d16;stroke-width:0.00000005;stroke-linecap:butt;stroke-linejoin:miter;stroke-miterlimit:4;stroke-dasharray:none;stroke-opacity:1" />
    </g>
    <g
       transform="matrix(0.25625315,0,0,0.25625315,-4.1247038,-91.355171)"
       id="g5848"
       style="fill:none;stroke:#502d16;stroke-width:1.00701094;stroke-miterlimit:4;stroke-dasharray:none">
      <path
         inkscape:connector-curvature="0"
         id="path5844"
         d="M 1415.7143,608.57143 C 1371.4286,610 1211.4286,585.71429 1211.4286,585.71429 c 0,0 -108.5715,-21.42858 98.5714,-32.85715"
         style="fill:none;stroke:#502d16;stroke-width:1.00701094;stroke-linecap:butt;stroke-linejoin:miter;stroke-miterlimit:4;stroke-dasharray:none;stroke-opacity:1" />
      <path
         inkscape:connector-curvature="0"
         id="path5846"
         d="m 1310,552.85714 384.2857,-11.42857"
         style="fill:none;stroke:#502d16;stroke-width:1.00701094;stroke-linecap:butt;stroke-linejoin:miter;stroke-miterlimit:4;stroke-dasharray:none;stroke-opacity:1" />
    </g>
    <g
       id="g5854"
       transform="matrix(0.44097026,0,0,0.27788258,-320.53213,-106.56956)"
       style="fill:none;stroke:#502d16;stroke-width:0.00000005;stroke-miterlimit:4;stroke-dasharray:none">
      <path
         style="fill:none;stroke:#502d16;stroke-width:0.00000005;stroke-linecap:butt;stroke-linejoin:miter;stroke-miterlimit:4;stroke-dasharray:none;stroke-opacity:1"
         d="M 1415.7143,608.57143 C 1371.4286,610 1211.4286,585.71429 1211.4286,585.71429 c 0,0 -108.5715,-21.42858 98.5714,-32.85715"
         id="path5850"
         inkscape:connector-curvature="0" />
      <path
         style="fill:none;stroke:#502d16;stroke-width:0.00000005;stroke-linecap:butt;stroke-linejoin:miter;stroke-miterlimit:4;stroke-dasharray:none;stroke-opacity:1"
         d="m 1310,552.85714 384.2857,-11.42857"
         id="path5852"
         inkscape:connector-curvature="0" />
    </g>
    <path
       style="fill:none;stroke:#502d16;stroke-width:0.25804973;stroke-linecap:butt;stroke-linejoin:miter;stroke-miterlimit:4;stroke-dasharray:none;stroke-opacity:1"
       d="m 262.56161,37.723203 154.11798,0.366075"
       id="path5856"
       inkscape:connector-curvature="0" />
    <path
       style="fill:none;stroke:#502d16;stroke-width:0.25804973;stroke-linecap:butt;stroke-linejoin:miter;stroke-miterlimit:4;stroke-dasharray:none;stroke-opacity:1"
       d="M 265.30719,41.567 419.97426,41.200922"
       id="path5860"
       inkscape:connector-curvature="0" />
    <path
       style="fill:none;stroke:#502d16;stroke-width:0.25804973;stroke-linecap:butt;stroke-linejoin:miter;stroke-miterlimit:4;stroke-dasharray:none;stroke-opacity:1"
       d="m 273.36084,72.500415 159.42608,1.647341"
       id="path5862"
       inkscape:connector-curvature="0" />
    <path
       style="fill:none;stroke:#502d16;stroke-width:0.25804973;stroke-linecap:butt;stroke-linejoin:miter;stroke-miterlimit:4;stroke-dasharray:none;stroke-opacity:1"
       d="M 276.28945,76.344212 439.0102,77.991553"
       id="path5866"
       inkscape:connector-curvature="0" />
    <path
       style="fill:none;stroke:#502d16;stroke-width:0.25804973;stroke-linecap:butt;stroke-linejoin:miter;stroke-miterlimit:4;stroke-dasharray:none;stroke-opacity:1"
       d="M 280.31629,82.384465 432.60388,80.92016"
       id="path5868"
       inkscape:connector-curvature="0" />
    <path
       style="fill:none;stroke:#502d16;stroke-width:0.25804973;stroke-linecap:butt;stroke-linejoin:miter;stroke-miterlimit:4;stroke-dasharray:none;stroke-opacity:1"
       d="m 279.03503,110.93839 150.82327,3.29468"
       id="path5870"
       inkscape:connector-curvature="0" />
    <path
       style="fill:none;stroke:#502d16;stroke-width:0.25804973;stroke-linecap:butt;stroke-linejoin:miter;stroke-miterlimit:4;stroke-dasharray:none;stroke-opacity:1"
       d="m 279.03503,114.96522 155.94834,2.74557"
       id="path5872"
       inkscape:connector-curvature="0" />
    <path
       style="fill:none;stroke:#502d16;stroke-width:0.25804973;stroke-linecap:butt;stroke-linejoin:miter;stroke-miterlimit:4;stroke-dasharray:none;stroke-opacity:1"
       d="m 273.90996,119.35813 100.85391,-0.73215"
       id="path5874"
       inkscape:connector-curvature="0" />
    <ellipse
       ry="3.6239667"
       rx="8.8010626"
       cy="40.273052"
       cx="433.00415"
       id="ellipse5876"
       style="opacity:1;fill:#999999;fill-opacity:1;fill-rule:nonzero;stroke:#4d4d4d;stroke-width:1.28126574;stroke-linecap:round;stroke-linejoin:bevel;stroke-miterlimit:4;stroke-dasharray:none;stroke-opacity:1;paint-order:stroke markers fill" />
    <ellipse
       style="opacity:1;fill:#999999;fill-opacity:1;fill-rule:nonzero;stroke:#4d4d4d;stroke-width:1.28126574;stroke-linecap:round;stroke-linejoin:bevel;stroke-miterlimit:4;stroke-dasharray:none;stroke-opacity:1;paint-order:stroke markers fill"
       id="ellipse5878"
       cx="29.661705"
       cy="26.947887"
       rx="8.8010626"
       ry="3.6239667" />
    <ellipse
       ry="3.6239667"
       rx="8.8010626"
       cy="138.16176"
       cx="29.661705"
       id="ellipse5880"
       style="opacity:1;fill:#999999;fill-opacity:1;fill-rule:nonzero;stroke:#4d4d4d;stroke-width:1.28126574;stroke-linecap:round;stroke-linejoin:bevel;stroke-miterlimit:4;stroke-dasharray:none;stroke-opacity:1;paint-order:stroke markers fill" />
    <text
       xml:space="preserve"
       style="font-style:normal;font-weight:normal;font-size:95.80049896px;line-height:1.25;font-family:sans-serif;letter-spacing:0px;word-spacing:0px;display:inline;fill:#f1f29c;fill-opacity:1;stroke:#bf890b;stroke-width:2.395;stroke-opacity:1;stroke-miterlimit:4;stroke-dasharray:none"
       x="83.614174"
       y="136.19853"
       id="text9530"
       transform="scale(1.1070424,0.90330777)"><tspan
         sodipodi:role="line"
         x="83.614174"
         y="136.19853"
         style="font-style:normal;font-variant:normal;font-weight:normal;font-stretch:normal;font-size:119.58480072px;font-family:'Passero One';-inkscape-font-specification:'Passero One, Normal';font-variant-ligatures:normal;font-variant-caps:normal;font-variant-numeric:normal;font-feature-settings:normal;text-align:justify;writing-mode:lr-tb;text-anchor:start;fill:#f1f29c;fill-opacity:1;stroke:#bf890b;stroke-width:2.395;stroke-opacity:1;stroke-miterlimit:4;stroke-dasharray:none"
         id="tspan9532">Inicio</tspan></text>
  </g>
</svg>
