<?xml version="1.0" encoding="UTF-8" standalone="no"?>
<!-- Created with Inkscape (http://www.inkscape.org/) -->

<svg
   xmlns:dc="http://purl.org/dc/elements/1.1/"
   xmlns:cc="http://creativecommons.org/ns#"
   xmlns:rdf="http://www.w3.org/1999/02/22-rdf-syntax-ns#"
   xmlns:svg="http://www.w3.org/2000/svg"
   xmlns="http://www.w3.org/2000/svg"
   xmlns:sodipodi="http://sodipodi.sourceforge.net/DTD/sodipodi-0.dtd"
   xmlns:inkscape="http://www.inkscape.org/namespaces/inkscape"
   width="1920"
   height="1000"
   viewBox="0 0 1920 1000"
   version="1.1"
   id="SVGRoot"
   inkscape:version="0.92.4 (5da689c313, 2019-01-14)"
   sodipodi:docname="boton-madera.svg">
  <defs
     id="defs5207" />
  <sodipodi:namedview
     id="base"
     pagecolor="#ffffff"
     bordercolor="#666666"
     borderopacity="1.0"
     inkscape:pageopacity="0.0"
     inkscape:pageshadow="2"
     inkscape:zoom="0.49497475"
     inkscape:cx="510.55187"
     inkscape:cy="470.78607"
     inkscape:document-units="px"
     inkscape:current-layer="layer1"
     showgrid="false"
     inkscape:window-width="1920"
     inkscape:window-height="966"
     inkscape:window-x="0"
     inkscape:window-y="84"
     inkscape:window-maximized="1"
     showguides="false" />
  <metadata
     id="metadata5210">
    <rdf:RDF>
      <cc:Work
         rdf:about="">
        <dc:format>image/svg+xml</dc:format>
        <dc:type
           rdf:resource="http://purl.org/dc/dcmitype/StillImage" />
        <dc:title></dc:title>
      </cc:Work>
    </rdf:RDF>
  </metadata>
  <g
     inkscape:label="Capa 1"
     inkscape:groupmode="layer"
     id="layer1"
     transform="translate(0,200)">
    <g
       id="g1014">
      <path
         inkscape:connector-curvature="0"
         id="path5778"
         d="m 1744.8136,798.76986 62.1876,-16.98083 c 0,0 13.8195,-235.21586 -1.4546,-279.24021 -15.2742,-44.02436 35.6397,-256.59911 35.6397,-256.59911 0,0 11.6373,-51.5714 -14.5468,-69.18114 0,0 42.1856,-76.72815 45.0951,-154.714166 2.9093,-77.985997 47.277,-182.386624 47.277,-182.386624 0,0 -141.8314,-25.15677 -411.6747,20.12542 0,0 -363.6701,84.275207 -463.3158,65.407618 0,0 -424.76679,-26.414618 -628.42211,-69.181128 0,0 -173.10703,-70.43898 -256.02383,-51.5714 L 37.950559,-189.88345 73.021645,-63.478636 803.27144,234.62917 Z"
         style="fill:#502d16;stroke:#502d16;stroke-width:1.3390888px;stroke-linecap:butt;stroke-linejoin:miter;stroke-opacity:1" />
      <path
         inkscape:connector-curvature="0"
         id="path5774"
         d="m 37.950559,-189.88345 -2.057229,83.60608 c 0,0 29.829827,129.85625 22.629524,176.106426 L 84.238216,68.05019 63.665927,94.732983 c 0,0 18.515064,211.683467 6.171688,252.597077 h 5.143074 L 41.382337,570.47211 6.4699956,688.08005 c 0,0 -3.6367015,41.50868 15.2741494,42.76651 l 74.188724,-0.62891 59.278251,-1.88677 78.18909,-6.91811 41.82208,-5.66028 37.8217,-4.40243 62.55128,1.25784 70.55201,-4.40243 c 0,0 54.55054,-6.91811 112.37411,16.35189 57.82356,23.27003 69.82467,22.01218 69.82467,22.01218 0,0 81.09846,6.2892 162.56059,11.94948 l 88.37187,-1.88676 h 46.18611 l 35.27601,2.51568 60.73296,6.28919 43.6404,7.54703 53.0959,-0.62892 88.0081,1.88676 104.7371,0.62892 153.8324,-2.51568 48.3682,-5.66028 c 0,0 58.9146,-2.51567 121.8295,21.38326 62.915,23.89894 70.9157,6.91812 70.9157,6.91812 0,0 17.0925,-11.32055 38.9127,3.77352 0,0 12.0011,3.77352 9.8191,-19.49651 -2.182,-23.27 -9.8191,-88.67763 -9.8191,-88.67763 0,0 -10.1828,-40.87976 -8.0007,-110.6898 2.182,-69.81006 -0.3637,-115.72118 -0.3637,-115.72118 0,0 -62.5512,-50.31355 -105.828,-40.25084 -43.2767,10.0627 58.5509,-42.76653 104.3734,5.66027 l 3.6366,-83.64628 c 0,0 35.6397,-50.94247 36.0033,-105.65846 l -1.4546,-64.14977 -114.5561,-18.86759 124.0116,-8.80488 c 0,0 49.0954,-222.637458 46.9134,-262.25938 0,0 -70.552,-10.69163 -152.7415,13.836239 -82.1895,24.527854 -229.8396,64.77869 -279.2987,54.087058 l -242.9317,10.691632 -426.94887,-21.383264 c 0,0 -402.58293,-64.149775 -434.22224,-81.759515 0,0 -228.338709,-41.49271 -255.455231,-51.56341 z"
         style="opacity:1;fill:#a05a2c;fill-opacity:1;stroke:#502d16;stroke-width:1.3390888px;stroke-linecap:butt;stroke-linejoin:miter;stroke-opacity:1" />
      <path
         style="fill:#502d16;stroke:#502d16;stroke-width:1.3390888px;stroke-linecap:butt;stroke-linejoin:miter;stroke-opacity:1"
         d="m 1492.9261,697.73709 29.3155,-8.00484 h 25.2011 l 27.7726,20.45681 v 15.12024 c 0,0 -36.5158,15.12025 -60.1741,-10.67311 -23.6581,-25.79336 -22.1151,-16.8991 -22.1151,-16.8991 z"
         id="path5794"
         inkscape:connector-curvature="0" />
      <path
         inkscape:connector-curvature="0"
         id="path5792"
         d="m 1492.9261,433.59095 29.3155,-8.00485 h 25.2011 l 27.7726,20.45682 v 15.12023 c 0,0 -36.5158,15.12026 -60.1741,-10.6731 -23.6581,-25.79336 -22.1151,-16.8991 -22.1151,-16.8991 z"
         style="fill:#502d16;stroke:#502d16;stroke-width:1.34847713;stroke-linecap:butt;stroke-linejoin:miter;stroke-miterlimit:4;stroke-dasharray:none;stroke-opacity:1" />
      <path
         inkscape:connector-curvature="0"
         id="path5788"
         d="m 1492.9261,169.4448 29.3155,-8.00484 h 25.2011 l 27.7726,20.45681 v 15.12024 c 0,0 -36.5158,15.12025 -60.1741,-10.67311 -23.6581,-25.79336 -22.1151,-16.8991 -22.1151,-16.8991 z"
         style="fill:#502d16;stroke:#502d16;stroke-width:1.34847713;stroke-linecap:butt;stroke-linejoin:miter;stroke-miterlimit:4;stroke-dasharray:none;stroke-opacity:1" />
      <ellipse
         ry="24.903938"
         rx="34.9729"
         cy="716.29425"
         cx="1669.5243"
         id="ellipse5784"
         style="opacity:1;fill:#999999;fill-opacity:1;fill-rule:nonzero;stroke:#4d4d4d;stroke-width:6.69544411;stroke-linecap:round;stroke-linejoin:bevel;stroke-miterlimit:4;stroke-dasharray:none;stroke-opacity:1;paint-order:stroke markers fill" />
      <path
         inkscape:connector-curvature="0"
         id="path5796"
         d="M 73.021645,-63.478636 973.46909,-20.712107"
         style="fill:none;stroke:#502d16;stroke-width:1.35252655;stroke-linecap:butt;stroke-linejoin:miter;stroke-miterlimit:4;stroke-dasharray:none;stroke-opacity:1" />
      <path
         inkscape:connector-curvature="0"
         id="path5798"
         d="m 67.202921,-10.649407 906.266169,-10.0627"
         style="fill:none;stroke:#502d16;stroke-width:1.34847713;stroke-linecap:butt;stroke-linejoin:miter;stroke-miterlimit:4;stroke-dasharray:none;stroke-opacity:1" />
      <path
         inkscape:connector-curvature="0"
         id="path5800"
         d="M 76.658348,23.31225 973.46909,-20.712107"
         style="fill:none;stroke:#502d16;stroke-width:1.35252655;stroke-linecap:butt;stroke-linejoin:miter;stroke-miterlimit:4;stroke-dasharray:none;stroke-opacity:1" />
      <path
         inkscape:connector-curvature="0"
         id="path5802"
         d="M 86.841115,237.14484 904.37175,220.79293"
         style="fill:none;stroke:#502d16;stroke-width:1.35252655;stroke-linecap:butt;stroke-linejoin:miter;stroke-miterlimit:4;stroke-dasharray:none;stroke-opacity:1" />
      <path
         inkscape:connector-curvature="0"
         id="path5804"
         d="m 86.841115,237.14484 875.717875,5.03135"
         style="fill:none;stroke:#502d16;stroke-width:1.35252655;stroke-linecap:butt;stroke-linejoin:miter;stroke-miterlimit:4;stroke-dasharray:none;stroke-opacity:1" />
      <path
         inkscape:connector-curvature="0"
         id="path5806"
         d="m 87.568449,266.07513 c 2.909369,2.51568 901.174801,3.77352 901.174801,3.77352"
         style="fill:none;stroke:#502d16;stroke-width:1.35252655;stroke-linecap:butt;stroke-linejoin:miter;stroke-miterlimit:4;stroke-dasharray:none;stroke-opacity:1" />
      <path
         inkscape:connector-curvature="0"
         id="path5808"
         d="m 117.38941,297.5211 474.22596,15.09406"
         style="fill:none;stroke:#502d16;stroke-width:1.35252655;stroke-linecap:butt;stroke-linejoin:miter;stroke-miterlimit:4;stroke-dasharray:none;stroke-opacity:1" />
      <path
         inkscape:connector-curvature="0"
         id="path5810"
         d="m 111.57068,408.21092 c 0,0 476.40799,-99.36928 746.25129,50.31354"
         style="fill:none;stroke:#502d16;stroke-width:1.35252655;stroke-linecap:butt;stroke-linejoin:miter;stroke-miterlimit:4;stroke-dasharray:none;stroke-opacity:1" />
      <path
         inkscape:connector-curvature="0"
         id="path5812"
         d="M 52.656113,491.22827 958.92229,487.45476"
         style="fill:none;stroke:#502d16;stroke-width:1.34847713;stroke-linecap:butt;stroke-linejoin:miter;stroke-miterlimit:4;stroke-dasharray:none;stroke-opacity:1" />
      <path
         inkscape:connector-curvature="0"
         id="path5814"
         d="M 57.020155,516.38505 H 990.19793"
         style="fill:none;stroke:#502d16;stroke-width:1.34847713;stroke-linecap:butt;stroke-linejoin:miter;stroke-miterlimit:4;stroke-dasharray:none;stroke-opacity:1" />
      <path
         inkscape:connector-curvature="0"
         id="path5816"
         d="m 61.384199,542.79967 c 0,0 870.626501,30.18813 928.813731,-26.41462"
         style="fill:none;stroke:#502d16;stroke-width:1.34847713;stroke-linecap:butt;stroke-linejoin:miter;stroke-miterlimit:4;stroke-dasharray:none;stroke-opacity:1" />
      <g
         transform="matrix(1.0182766,0,0,1.7609743,-18.623249,-385.48536)"
         style="fill:none;stroke:#502d16;stroke-width:1.70700002;stroke-miterlimit:4;stroke-dasharray:none"
         id="g5824">
        <path
           style="fill:none;stroke:#502d16;stroke-width:1.70700002;stroke-linecap:butt;stroke-linejoin:miter;stroke-miterlimit:4;stroke-dasharray:none;stroke-opacity:1"
           d="M 1415.7143,608.57143 C 1371.4286,610 1211.4286,585.71429 1211.4286,585.71429 c 0,0 -108.5715,-21.42858 98.5714,-32.85715"
           id="path5818"
           inkscape:connector-curvature="0" />
        <path
           style="fill:none;stroke:#502d16;stroke-width:1.70700002;stroke-linecap:butt;stroke-linejoin:miter;stroke-miterlimit:4;stroke-dasharray:none;stroke-opacity:1"
           d="m 1310,552.85714 384.2857,-11.42857"
           id="path5820"
           inkscape:connector-curvature="0" />
      </g>
      <g
         style="fill:none;stroke:#502d16;stroke-width:0.00000005;stroke-miterlimit:4;stroke-dasharray:none"
         transform="matrix(1.7522895,0,0,1.909612,-1275.9357,-490.03882)"
         id="g5830">
        <path
           inkscape:connector-curvature="0"
           id="path5826"
           d="M 1415.7143,608.57143 C 1371.4286,610 1211.4286,585.71429 1211.4286,585.71429 c 0,0 -108.5715,-21.42858 98.5714,-32.85715"
           style="fill:none;stroke:#502d16;stroke-width:0.00000005;stroke-linecap:butt;stroke-linejoin:miter;stroke-miterlimit:4;stroke-dasharray:none;stroke-opacity:1" />
        <path
           inkscape:connector-curvature="0"
           id="path5828"
           d="m 1310,552.85714 384.2857,-11.42857"
           style="fill:none;stroke:#502d16;stroke-width:0.00000005;stroke-linecap:butt;stroke-linejoin:miter;stroke-miterlimit:4;stroke-dasharray:none;stroke-opacity:1" />
      </g>
      <g
         style="fill:none;stroke:#502d16;stroke-width:1.00701094;stroke-miterlimit:4;stroke-dasharray:none"
         transform="matrix(1.0182766,0,0,1.7609743,-18.623249,-628.49981)"
         id="g5836">
        <path
           inkscape:connector-curvature="0"
           id="path5832"
           d="M 1415.7143,608.57143 C 1371.4286,610 1211.4286,585.71429 1211.4286,585.71429 c 0,0 -108.5715,-21.42858 98.5714,-32.85715"
           style="fill:none;stroke:#502d16;stroke-width:1.00701094;stroke-linecap:butt;stroke-linejoin:miter;stroke-miterlimit:4;stroke-dasharray:none;stroke-opacity:1" />
        <path
           inkscape:connector-curvature="0"
           id="path5834"
           d="m 1310,552.85714 384.2857,-11.42857"
           style="fill:none;stroke:#502d16;stroke-width:1.00701094;stroke-linecap:butt;stroke-linejoin:miter;stroke-miterlimit:4;stroke-dasharray:none;stroke-opacity:1" />
      </g>
      <g
         style="fill:none;stroke:#502d16;stroke-width:0.00000005;stroke-miterlimit:4;stroke-dasharray:none"
         id="g5842"
         transform="matrix(1.7522895,0,0,1.909612,-1275.9357,-733.05328)">
        <path
           style="fill:none;stroke:#502d16;stroke-width:0.00000005;stroke-linecap:butt;stroke-linejoin:miter;stroke-miterlimit:4;stroke-dasharray:none;stroke-opacity:1"
           d="M 1415.7143,608.57143 C 1371.4286,610 1211.4286,585.71429 1211.4286,585.71429 c 0,0 -108.5715,-21.42858 98.5714,-32.85715"
           id="path5838"
           inkscape:connector-curvature="0" />
        <path
           style="fill:none;stroke:#502d16;stroke-width:0.00000005;stroke-linecap:butt;stroke-linejoin:miter;stroke-miterlimit:4;stroke-dasharray:none;stroke-opacity:1"
           d="m 1310,552.85714 384.2857,-11.42857"
           id="path5840"
           inkscape:connector-curvature="0" />
      </g>
      <g
         style="fill:none;stroke:#502d16;stroke-width:1.00701094;stroke-miterlimit:4;stroke-dasharray:none"
         id="g5848"
         transform="matrix(1.0182766,0,0,1.7609743,-18.623249,-910.2557)">
        <path
           style="fill:none;stroke:#502d16;stroke-width:1.00701094;stroke-linecap:butt;stroke-linejoin:miter;stroke-miterlimit:4;stroke-dasharray:none;stroke-opacity:1"
           d="M 1415.7143,608.57143 C 1371.4286,610 1211.4286,585.71429 1211.4286,585.71429 c 0,0 -108.5715,-21.42858 98.5714,-32.85715"
           id="path5844"
           inkscape:connector-curvature="0" />
        <path
           style="fill:none;stroke:#502d16;stroke-width:1.00701094;stroke-linecap:butt;stroke-linejoin:miter;stroke-miterlimit:4;stroke-dasharray:none;stroke-opacity:1"
           d="m 1310,552.85714 384.2857,-11.42857"
           id="path5846"
           inkscape:connector-curvature="0" />
      </g>
      <g
         style="fill:none;stroke:#502d16;stroke-width:0.00000005;stroke-miterlimit:4;stroke-dasharray:none"
         transform="matrix(1.7522895,0,0,1.909612,-1275.9357,-1014.8092)"
         id="g5854">
        <path
           inkscape:connector-curvature="0"
           id="path5850"
           d="M 1415.7143,608.57143 C 1371.4286,610 1211.4286,585.71429 1211.4286,585.71429 c 0,0 -108.5715,-21.42858 98.5714,-32.85715"
           style="fill:none;stroke:#502d16;stroke-width:0.00000005;stroke-linecap:butt;stroke-linejoin:miter;stroke-miterlimit:4;stroke-dasharray:none;stroke-opacity:1" />
        <path
           inkscape:connector-curvature="0"
           id="path5852"
           d="m 1310,552.85714 384.2857,-11.42857"
           style="fill:none;stroke:#502d16;stroke-width:0.00000005;stroke-linecap:butt;stroke-linejoin:miter;stroke-miterlimit:4;stroke-dasharray:none;stroke-opacity:1" />
      </g>
      <path
         inkscape:connector-curvature="0"
         id="path5856"
         d="m 1041.1118,-23.227782 612.4206,2.515675"
         style="fill:none;stroke:#502d16;stroke-width:1.34847713;stroke-linecap:butt;stroke-linejoin:miter;stroke-miterlimit:4;stroke-dasharray:none;stroke-opacity:1" />
      <path
         inkscape:connector-curvature="0"
         id="path5860"
         d="M 1052.0219,3.1868323 1666.6245,0.67113967"
         style="fill:none;stroke:#502d16;stroke-width:1.34847713;stroke-linecap:butt;stroke-linejoin:miter;stroke-miterlimit:4;stroke-dasharray:none;stroke-opacity:1" />
      <path
         inkscape:connector-curvature="0"
         id="path5862"
         d="m 1084.0248,215.76158 633.5136,11.32054"
         style="fill:none;stroke:#502d16;stroke-width:1.34847713;stroke-linecap:butt;stroke-linejoin:miter;stroke-miterlimit:4;stroke-dasharray:none;stroke-opacity:1" />
      <path
         inkscape:connector-curvature="0"
         id="path5866"
         d="m 1095.6623,242.17619 646.6056,11.32055"
         style="fill:none;stroke:#502d16;stroke-width:1.34847713;stroke-linecap:butt;stroke-linejoin:miter;stroke-miterlimit:4;stroke-dasharray:none;stroke-opacity:1" />
      <path
         inkscape:connector-curvature="0"
         id="path5868"
         d="M 1111.6638,283.68487 1716.811,273.62216"
         style="fill:none;stroke:#502d16;stroke-width:1.34847713;stroke-linecap:butt;stroke-linejoin:miter;stroke-miterlimit:4;stroke-dasharray:none;stroke-opacity:1" />
      <path
         inkscape:connector-curvature="0"
         id="path5870"
         d="m 1106.5724,479.90772 599.3285,22.6411"
         style="fill:none;stroke:#502d16;stroke-width:1.34847713;stroke-linecap:butt;stroke-linejoin:miter;stroke-miterlimit:4;stroke-dasharray:none;stroke-opacity:1" />
      <path
         inkscape:connector-curvature="0"
         id="path5872"
         d="m 1106.5724,507.58018 619.694,18.86757"
         style="fill:none;stroke:#502d16;stroke-width:1.34847713;stroke-linecap:butt;stroke-linejoin:miter;stroke-miterlimit:4;stroke-dasharray:none;stroke-opacity:1" />
      <path
         inkscape:connector-curvature="0"
         id="path5874"
         d="m 1086.2069,537.7683 400.7645,-5.03135"
         style="fill:none;stroke:#502d16;stroke-width:1.34847713;stroke-linecap:butt;stroke-linejoin:miter;stroke-miterlimit:4;stroke-dasharray:none;stroke-opacity:1" />
      <ellipse
         style="opacity:1;fill:#999999;fill-opacity:1;fill-rule:nonzero;stroke:#4d4d4d;stroke-width:6.69544411;stroke-linecap:round;stroke-linejoin:bevel;stroke-miterlimit:4;stroke-dasharray:none;stroke-opacity:1;paint-order:stroke markers fill"
         id="ellipse5876"
         cx="1718.4016"
         cy="-5.7051988"
         rx="34.9729"
         ry="24.903938" />
      <ellipse
         ry="24.903938"
         rx="34.9729"
         cy="-97.275864"
         cx="115.63426"
         id="ellipse5878"
         style="opacity:1;fill:#999999;fill-opacity:1;fill-rule:nonzero;stroke:#4d4d4d;stroke-width:6.69544411;stroke-linecap:round;stroke-linejoin:bevel;stroke-miterlimit:4;stroke-dasharray:none;stroke-opacity:1;paint-order:stroke markers fill" />
      <ellipse
         style="opacity:1;fill:#999999;fill-opacity:1;fill-rule:nonzero;stroke:#4d4d4d;stroke-width:6.69544411;stroke-linecap:round;stroke-linejoin:bevel;stroke-miterlimit:4;stroke-dasharray:none;stroke-opacity:1;paint-order:stroke markers fill"
         id="ellipse5880"
         cx="115.63426"
         cy="666.987"
         rx="34.9729"
         ry="24.903938" />
      <g
         style="fill:#f1f29c;fill-opacity:1;stroke:#bf890b;stroke-width:0.94834888;stroke-miterlimit:4;stroke-dasharray:none;stroke-opacity:1"
         transform="matrix(8.0184095,0,0,13.866776,-3348.5179,-5581.8212)"
         id="g5895">
        <text
           xml:space="preserve"
           style="font-style:normal;font-variant:normal;font-weight:normal;font-stretch:normal;font-size:48.81610489px;font-family:'Passero One';-inkscape-font-specification:'Passero One, Normal';font-variant-ligatures:normal;font-variant-caps:normal;font-variant-numeric:normal;font-feature-settings:normal;text-align:justify;writing-mode:lr-tb;text-anchor:start;fill:#f1f29c;fill-opacity:1;stroke:#bf890b;stroke-width:0.94834888;stroke-miterlimit:4;stroke-dasharray:none;stroke-opacity:1"
           x="409.0928"
           y="480.33908"
           id="text9530"
           transform="scale(1.1070424,0.90330776)"><tspan
             sodipodi:role="line"
             x="409.0928"
             y="480.33908"
             style="font-style:normal;font-variant:normal;font-weight:normal;font-stretch:normal;font-size:48.81610489px;font-family:'Passero One';-inkscape-font-specification:'Passero One, Normal';font-variant-ligatures:normal;font-variant-caps:normal;font-variant-numeric:normal;font-feature-settings:normal;text-align:justify;writing-mode:lr-tb;text-anchor:start;fill:#f1f29c;fill-opacity:1;stroke:#bf890b;stroke-width:0.94834888;stroke-miterlimit:4;stroke-dasharray:none;stroke-opacity:1"
             id="tspan9532">Mapa</tspan></text>
        <path
           style="display:inline;fill:#f1f29c;fill-opacity:1;stroke:#bf890b;stroke-width:0.94834888;stroke-miterlimit:4;stroke-dasharray:none;stroke-opacity:1"
           d="m 603.8983,441.36475 c -6.06409,-8.68562 -11.70053,-18.3063 -13.36067,-22.80492 -0.68994,-1.86958 -0.80656,-2.41946 -0.81068,-3.8231 -0.005,-1.89347 0.41701,-3.34141 1.4463,-4.95549 1.77911,-2.78994 4.98885,-4.97292 8.71817,-5.92929 1.62551,-0.41684 2.7027,-0.53847 4.77271,-0.53877 2.01131,-3.4e-4 3.00482,0.10658 4.61561,0.49655 4.36552,1.05702 8.17109,3.96099 9.61046,7.33357 0.62339,1.46075 0.90321,3.3298 0.68781,4.5944 -0.39669,2.32883 -2.35898,6.64206 -5.47564,12.03586 -2.18006,3.77288 -9.1865,14.56608 -9.45559,14.56608 -0.037,0 -0.37414,-0.43873 -0.74848,-0.97489 z m 1.65352,-23.03441 c 1.58751,-0.23169 3.12092,-1.37473 3.54041,-2.63902 0.99835,-3.00896 -3.06478,-5.48481 -6.6564,-4.05611 -0.63872,0.25436 -1.45472,0.85636 -1.83413,1.35379 -0.79766,1.04575 -0.80882,2.47389 -0.0276,3.54561 0.33381,0.458 1.22303,1.14663 1.85474,1.4363 0.82257,0.37719 2.04077,0.51737 3.12308,0.35943 z"
           id="path9599"
           inkscape:connector-curvature="0" />
      </g>
    </g>
  </g>
</svg>
