<?xml version="1.0" encoding="UTF-8" standalone="no"?>
<!-- Created with Inkscape (http://www.inkscape.org/) -->

<svg
   xmlns:dc="http://purl.org/dc/elements/1.1/"
   xmlns:cc="http://creativecommons.org/ns#"
   xmlns:rdf="http://www.w3.org/1999/02/22-rdf-syntax-ns#"
   xmlns:svg="http://www.w3.org/2000/svg"
   xmlns="http://www.w3.org/2000/svg"
   xmlns:sodipodi="http://sodipodi.sourceforge.net/DTD/sodipodi-0.dtd"
   xmlns:inkscape="http://www.inkscape.org/namespaces/inkscape"
   width="793.70081"
   height="1122.5197"
   viewBox="0 0 210 297"
   version="1.1"
   id="svg8"
   inkscape:version="0.92.4 (5da689c313, 2019-01-14)"
   sodipodi:docname="buscar.svg">
  <defs
     id="defs2" />
  <sodipodi:namedview
     id="base"
     pagecolor="#ffffff"
     bordercolor="#666666"
     borderopacity="1.0"
     inkscape:pageopacity="0.0"
     inkscape:pageshadow="2"
     inkscape:zoom="1.3344978"
     inkscape:cx="313.38202"
     inkscape:cy="334.74456"
     inkscape:document-units="mm"
     inkscape:current-layer="layer1"
     showgrid="false"
     units="px"
     inkscape:window-width="1920"
     inkscape:window-height="966"
     inkscape:window-x="0"
     inkscape:window-y="84"
     inkscape:window-maximized="1" />
  <metadata
     id="metadata5">
    <rdf:RDF>
      <cc:Work
         rdf:about="">
        <dc:format>image/svg+xml</dc:format>
        <dc:type
           rdf:resource="http://purl.org/dc/dcmitype/StillImage" />
        <dc:title />
      </cc:Work>
    </rdf:RDF>
  </metadata>
  <g
     inkscape:label="Capa 1"
     inkscape:groupmode="layer"
     id="layer1">
    <g
       id="g71"
       transform="matrix(-1,0,0,1,201.72846,0)">
      <path
         inkscape:connector-curvature="0"
         id="path919"
         d="m 80.891853,232.26668 c 0,0 0.09913,10.80541 2.081776,10.80541 1.982642,0 0.495659,5.15487 -0.495663,5.15487 -0.99132,0 -6.047062,7.53405 4.262684,7.63318 10.309746,0.0991 10.90454,0.0991 10.90454,0.0991 0,0 4.54762,-1.18673 4.54762,-2.62557 0,-1.43885 0.11159,-6.29633 0.11159,-6.29633 l 5.65054,-8.6245 4.9566,8.72363 v 5.94794 c 0,0 3.96529,2.57743 7.33578,2.87483 3.3705,0.2974 9.41756,-0.39653 9.41756,-0.39653 0,0 3.76702,-0.0991 4.85748,-2.28004 1.09045,-2.18091 -0.0991,-7.43491 -1.48699,-7.43491 -1.38785,0 -1.38785,-2.47831 -0.29739,-3.3705 1.09045,-0.89219 1.98264,-7.13751 1.58611,-9.71495 z"
         style="fill:#502d16;stroke:#000000;stroke-width:0.26458332px;stroke-linecap:butt;stroke-linejoin:miter;stroke-opacity:1" />
      <g
         id="g62">
        <path
           style="fill:#214478;stroke:#000000;stroke-width:0.26458332px;stroke-linecap:butt;stroke-linejoin:miter;stroke-opacity:1"
           d="m 83.976243,171.6665 c 0,0 -11.60976,49.59651 -6.851414,65.06113 l 60.470631,1.38785 c 0,0 1.78438,-6.69142 1.14002,-14.27503 -0.64436,-7.58361 -3.2218,-39.45461 -2.82527,-40.84246 v -10.9541 z"
           id="path968"
           inkscape:connector-curvature="0" />
        <g
           id="g55">
          <path
             inkscape:connector-curvature="0"
             id="path909"
             d="m 76.05528,223.78364 c -0.140195,-2.17301 0.595823,-7.85087 0.595823,-7.85087 0,0 58.069517,1.19147 61.440017,0.32407 0,0 0.66914,6.59229 0.64436,7.58361 -2.57743,0.74349 -62.6802,-0.0568 -62.6802,-0.0568 z"
             style="opacity:1;fill:#725043;fill-opacity:1;stroke:#000000;stroke-width:0.26458332px;stroke-linecap:butt;stroke-linejoin:miter;stroke-opacity:1" />
          <path
             inkscape:connector-curvature="0"
             id="path911"
             d="m 99.454352,215.75383 v 8.74842 h 1.313498 v 2.05699 l 12.96153,-0.0744 v -1.98264 h 1.71003 v -8.79798 h -1.63568 v -1.16481 h -12.01977 l -0.0248,1.21442 z"
             style="opacity:1;fill:#ffe680;stroke:#000000;stroke-width:0.26458332px;stroke-linecap:butt;stroke-linejoin:miter;stroke-opacity:1" />
          <path
             inkscape:connector-curvature="0"
             id="path913"
             d="m 104.064,217.53821 8.37667,-0.0991 v 2.70135 h -4.43617 l -0.7311,0.7311 0.7311,0.7311 h 4.31225 v 1.80916 h -8.74841 l -1.00372,-1.00371 v -4.05203 z"
             style="opacity:1;fill:#725043;fill-opacity:1;stroke:#000000;stroke-width:0.26458332px;stroke-linecap:butt;stroke-linejoin:miter;stroke-opacity:1" />
        </g>
      </g>
    </g>
    <path
       style="fill:#ffb380;stroke:#000000;stroke-width:0.22389093px;stroke-linecap:butt;stroke-linejoin:miter;stroke-opacity:1"
       d="m 159.94947,177.34265 5.94435,-2.15064 c 0,0 5.88418,-3.17386 3.69775,-7.75603 -2.18643,-4.58216 -6.07561,-4.55567 -13.63053,0.46741 z"
       id="path938"
       inkscape:connector-curvature="0" />
    <path
       style="fill:#d38d5f;stroke:#784421;stroke-width:1.39157438;stroke-linecap:round;stroke-linejoin:round;stroke-miterlimit:4;stroke-dasharray:none;stroke-opacity:1;paint-order:markers fill stroke"
       d="m 164.83541,166.15933 v 26.19795"
       id="path1021"
       inkscape:connector-curvature="0" />
    <path
       inkscape:connector-curvature="0"
       id="path974"
       d="m 115.37419,184.83546 c 0,0 30.67868,-0.002 46.79797,-8.10648 0,0 3.80297,-4.35315 -2.59662,-11.34355 0,0 -43.33667,9.58393 -45.90117,12.64865 0,0 -2.60854,3.19782 1.69982,6.80138 z"
       style="fill:#214478;fill-opacity:1;stroke:#000000;stroke-width:0.26458332px;stroke-linecap:butt;stroke-linejoin:miter;stroke-opacity:1" />
    <g
       id="g1140"
       transform="matrix(-1,0,0,1,201.72846,0)">
      <path
         inkscape:connector-curvature="0"
         id="path870"
         d="m 121.6534,183.54795 7.88592,-7.88592 c -1.61224,11.14543 0.77106,11.42582 0.77106,11.42582 5.81806,0.56077 17.59436,-23.55261 17.59436,-23.55261 0,0 0.49068,12.26698 3.85533,12.12679 3.36466,-0.1402 3.71515,-12.54737 3.71515,-12.54737 v -16.613 c 0,0 5.25727,8.55184 7.71067,8.06116 2.4534,-0.49068 1.82252,-2.3833 2.17301,-7.36019 0.35048,-4.97689 -4.6965,-15.91202 -4.6965,-15.91202 V 118.26468 H 55.414886 l 0.594791,14.57243 c 0,0 -6.047063,9.71495 -5.5514,12.58979 0.49566,2.87483 0.669142,5.15487 0.669142,5.15487 0,0 0.148698,5.82401 3.667889,1.43742 l 4.076812,-4.07681 v 14.18829 c 0,0 0.731099,12.88718 4.175942,13.63067 3.444843,0.74349 4.857477,-9.54147 4.857477,-9.54147 0,0 8.710517,18.76506 16.105754,20.02681 0,0 1.612232,0.28039 1.261747,-2.90903 l -0.94631,-8.79717 9.393002,9.63834 c 0,0 8.386408,4.27144 9.774258,9.12892 l 0.2974,3.17223 c 0,0 -3.66789,6.34446 1.48698,10.60714 l 0.59479,-2.97396 c 0,0 2.37917,4.36181 1.58612,9.21929 0,0 2.08177,1.68524 4.56008,-8.52537 0,0 1.28871,1.88351 2.08177,1.88351 0,0 0.69393,-6.24533 -0.79306,-8.12884 0,0 -2.67656,-2.87483 -2.67656,-4.75834 0,0 2.7757,-5.94793 5.74966,-5.94793 z"
         style="opacity:1;fill:#ff6600;stroke:#000000;stroke-width:0.26458332px;stroke-linecap:butt;stroke-linejoin:miter;stroke-opacity:1" />
      <path
         inkscape:connector-curvature="0"
         id="path885"
         d="m 71.573429,126.69091 c 0,0 -9.51669,11.30107 0.594794,23.79173 10.11148,12.49065 19.826432,14.27503 21.412549,14.27503 1.586113,0 3.223228,-9.70417 11.074098,-9.84437 7.85086,-0.14019 14.79047,1.47204 17.94484,10.79495 0,0 30.46037,-8.88115 23.52111,-39.01733 H 128.4753 c 0,0 0,10.90454 -6.93926,11.69759 0,0 3.17223,-6.34446 2.37918,-11.1028 0,0 -5.15488,13.68024 -11.49934,13.8785 0,0 4.56008,-8.72363 1.78438,-14.27503 l -8.92189,-0.19826 c 0,0 1.38785,12.09412 -5.947932,10.70627 0,0 4.419062,-7.83169 0,-9.91322 z"
         style="opacity:1;fill:#ffccaa;stroke:#ffccaa;stroke-width:0.26458332px;stroke-linecap:butt;stroke-linejoin:miter;stroke-opacity:1" />
      <path
         inkscape:connector-curvature="0"
         id="path1073"
         d="m 103.49399,193.30774 h 7.48448 c 0,0 0.89219,2.4783 0,2.4783 -0.89219,0 -7.28622,0 -7.28622,0 0,0 -0.74349,-1.14002 -0.19826,-2.4783 z"
         style="fill:#a05a2c;stroke:#000000;stroke-width:0.26458332px;stroke-linecap:butt;stroke-linejoin:miter;stroke-opacity:1" />
    </g>
    <path
       style="fill:#ac9d93;stroke:#241f1c;stroke-width:0.26458332px;stroke-linecap:butt;stroke-linejoin:miter;stroke-opacity:1"
       d="m 148.45472,112.08402 c 0,0 8.13125,5.18718 3.64504,10.37436 0,0 -0.84116,6.58912 -35.4691,9.95378 0,0 -37.01123,3.50485 -51.17083,-0.14019 0,0 -21.3095,-1.82253 -27.61823,-8.41165 0,0 -6.30873,-6.72931 1.96272,-9.393 z"
       id="path866"
       inkscape:connector-curvature="0" />
    <path
       style="fill:#917c6f;stroke:#241f1c;stroke-width:0.26458332px;stroke-linecap:butt;stroke-linejoin:miter;stroke-opacity:1"
       d="m 148.17433,115.58887 -0.28039,-16.122315 c 0,0 -9.95378,-30.141725 -41.07686,-32.665217 l -25.9359,-0.420582 c 0,0 -37.8524,12.477272 -41.07686,33.646574 v 14.43999 c 0,0 7.99106,6.58912 41.35724,8.13126 l 25.93591,0.84116 c 0,0 21.87027,0.14019 41.07686,-7.85087 z"
       id="path864"
       inkscape:connector-curvature="0" />
    <path
       style="fill:#ac9d93;stroke:#241f1c;stroke-width:0.26458332px;stroke-linecap:butt;stroke-linejoin:miter;stroke-opacity:1"
       d="M 106.81708,66.801338 V 125.40245 H 81.86254 V 66.520948 l 2.8795,-4.987446 h 19.27116 z"
       id="path868"
       inkscape:connector-curvature="0" />
    <path
       style="fill:#ac9d93;stroke:#241f1c;stroke-width:0.26458332px;stroke-linecap:butt;stroke-linejoin:miter;stroke-opacity:1"
       d="m 126.86483,77.876669 c 0,0 17.66445,-11.636108 21.87027,-22.571244 0,0 5.46757,-13.879213 7.85087,-1.401941 0,0 0.98136,19.346781 -1.40194,24.674156 0,0 -6.44893,11.916495 -13.87921,15.281153 0,0 -8.47322,1.902886 -13.38026,-4.491139 -3.91572,-5.848798 -1.05973,-11.490985 -1.05973,-11.490985 z"
       id="path860"
       inkscape:connector-curvature="0" />
    <path
       inkscape:connector-curvature="0"
       id="path862"
       d="m 61.59205,77.876669 c 0,0 -17.66446,-11.636108 -21.87028,-22.571244 0,0 -5.46757,-13.879213 -7.85087,-1.401941 0,0 -0.98136,19.346781 1.40194,24.674156 0,0 6.44893,11.916495 13.87922,15.281153 0,0 8.47322,1.902886 13.38027,-4.491139 3.91572,-5.848798 1.05972,-11.490985 1.05972,-11.490985 z"
       style="fill:#ac9d93;stroke:#241f1c;stroke-width:0.26458332px;stroke-linecap:butt;stroke-linejoin:miter;stroke-opacity:1" />
    <path
       style="fill:#802000;fill-opacity:0;stroke:#502d16;stroke-width:1.18350065;stroke-linecap:round;stroke-linejoin:bevel;stroke-miterlimit:4;stroke-dasharray:none;stroke-opacity:1;paint-order:stroke markers fill"
       d="m 89.799795,118.14125 v -9.39404 l 4.69703,4.69702 4.69701,-4.69702 v 9.39404"
       id="path10830"
       inkscape:connector-curvature="0" />
    <path
       style="fill:#802000;fill-opacity:0;stroke:#502d16;stroke-width:1.18350065;stroke-linecap:round;stroke-linejoin:bevel;stroke-miterlimit:4;stroke-dasharray:none;stroke-opacity:1;paint-order:stroke markers fill"
       d="m 99.193835,107.18155 -9.39404,-4.69703 9.39404,-4.697013"
       id="path10832"
       inkscape:connector-curvature="0" />
    <path
       style="fill:#802000;fill-opacity:0;stroke:#502d16;stroke-width:1.18350065;stroke-linecap:round;stroke-linejoin:bevel;stroke-miterlimit:4;stroke-dasharray:none;stroke-opacity:1;paint-order:stroke markers fill"
       d="m 94.496825,96.221834 v -9.394038 l 4.69701,4.697018"
       id="path10834"
       inkscape:connector-curvature="0" />
    <path
       style="fill:#802000;fill-opacity:0;stroke:#502d16;stroke-width:1.18350065;stroke-linecap:round;stroke-linejoin:bevel;stroke-miterlimit:4;stroke-dasharray:none;stroke-opacity:1;paint-order:stroke markers fill"
       d="m 89.799795,85.262124 v -9.394038 l 9.39404,5.423647 v 3.970391"
       id="path10836"
       inkscape:connector-curvature="0" />
    <path
       style="fill:#802000;fill-opacity:0;stroke:#502d16;stroke-width:1.18350065;stroke-linecap:round;stroke-linejoin:bevel;stroke-miterlimit:4;stroke-dasharray:none;stroke-opacity:1;paint-order:stroke markers fill"
       d="m 89.799795,74.302413 v -9.394037 l 9.39404,9.394037 v -9.394037 z"
       id="path10838"
       inkscape:connector-curvature="0" />
    <path
       style="fill:#483e37;fill-opacity:1;stroke:#483e37;stroke-width:0.26458332px;stroke-linecap:butt;stroke-linejoin:miter;stroke-opacity:1"
       d="m 108.74795,153.85313 c 0,0 1.30654,-2.57744 2.72613,0 l -0.59871,22.89954 c 0,0 -1.64443,2.23048 -2.67657,0 z"
       id="path949"
       inkscape:connector-curvature="0" />
    <g
       id="g906"
       transform="matrix(-0.67457834,0.36536144,0.36536144,0.67457834,90.838538,11.49069)">
      <path
         style="fill:#ffb380;stroke:#000000;stroke-width:0.29101706px;stroke-linecap:butt;stroke-linejoin:miter;stroke-opacity:1"
         d="m 90.965579,205.93399 -8.037731,0.53842 c 0,0 -8.538959,-0.73372 -8.578035,-7.44487 -0.03908,-6.71115 4.450102,-8.73688 15.942125,-6.64564 z"
         id="path940"
         inkscape:connector-curvature="0" />
      <path
         inkscape:connector-curvature="0"
         id="path902"
         d="m 129.53932,175.66203 -16.15737,16.15737 -26.145638,-0.7917 v 15.46461 l 33.357978,0.54523 17.19943,-25.2787 c 0,0 1.78438,-2.47831 -1.38785,-5.50184 -3.17223,-3.02353 -6.86655,-0.59497 -6.86655,-0.59497 z"
         style="fill:#214478;fill-opacity:1;stroke:#000000;stroke-width:0.26458332px;stroke-linecap:butt;stroke-linejoin:miter;stroke-opacity:1" />
    </g>
    <g
       transform="matrix(-1.2422981,0,0,1.2422981,224.36629,-37.070605)"
       id="g898">
      <ellipse
         ry="3.5014381"
         rx="3.7815533"
         cy="146.23871"
         cx="91.921272"
         id="path886"
         style="opacity:1;fill:#000000;fill-opacity:1;fill-rule:nonzero;stroke:#000000;stroke-width:1.99805212;stroke-linecap:round;stroke-linejoin:bevel;stroke-miterlimit:4;stroke-dasharray:none;stroke-opacity:1;paint-order:stroke markers fill" />
      <ellipse
         ry="0.5283795"
         rx="0.13698728"
         cy="143.82483"
         cx="94.033699"
         id="path892"
         style="opacity:1;fill:#ffffff;fill-opacity:1;fill-rule:nonzero;stroke:#ffffff;stroke-width:0.83753669;stroke-linecap:round;stroke-linejoin:bevel;stroke-miterlimit:4;stroke-dasharray:none;stroke-opacity:1;paint-order:stroke markers fill" />
    </g>
    <ellipse
       style="opacity:1;fill:#ffb380;fill-opacity:1;fill-rule:nonzero;stroke:#ffb380;stroke-width:1.5;stroke-linecap:round;stroke-linejoin:bevel;stroke-miterlimit:4;stroke-dasharray:none;stroke-opacity:1;paint-order:stroke markers fill"
       id="path936"
       cx="-94.468559"
       cy="150.93404"
       rx="4.3109674"
       ry="2.0678625"
       transform="scale(-1,1)" />
    <path
       inkscape:connector-curvature="0"
       id="path852"
       d="m 114.96798,139.1545 c 0,0 -5.32736,-6.02835 -10.09396,0.56077"
       style="fill:none;stroke:#000000;stroke-width:1;stroke-linecap:round;stroke-linejoin:bevel;stroke-miterlimit:4;stroke-dasharray:none;stroke-opacity:1;paint-order:markers fill stroke" />
    <g
       id="g138"
       transform="matrix(-1,0,0,1,170.77311,-1.1401971)">
      <ellipse
         style="opacity:1;fill:#000000;fill-opacity:1;fill-rule:nonzero;stroke:#000000;stroke-width:1.99805212;stroke-linecap:round;stroke-linejoin:bevel;stroke-miterlimit:4;stroke-dasharray:none;stroke-opacity:1;paint-order:stroke markers fill"
         id="ellipse134"
         cx="91.921272"
         cy="146.23871"
         rx="3.7815533"
         ry="3.5014381" />
      <ellipse
         style="opacity:1;fill:#ffffff;fill-opacity:1;fill-rule:nonzero;stroke:#ffffff;stroke-width:0.83753669;stroke-linecap:round;stroke-linejoin:bevel;stroke-miterlimit:4;stroke-dasharray:none;stroke-opacity:1;paint-order:stroke markers fill"
         id="ellipse136"
         cx="94.033699"
         cy="143.82483"
         rx="0.13698728"
         ry="0.5283795" />
    </g>
    <path
       style="fill:none;stroke:#000000;stroke-width:1;stroke-linecap:round;stroke-linejoin:bevel;stroke-miterlimit:4;stroke-dasharray:none;stroke-opacity:1"
       d="m 72.445667,137.01939 3.085385,-2.24649 8.064943,3.58085"
       id="path140"
       inkscape:connector-curvature="0" />
    <ellipse
       style="opacity:1;fill:none;fill-opacity:1;fill-rule:nonzero;stroke:#483e37;stroke-width:3.5;stroke-linecap:round;stroke-linejoin:bevel;stroke-miterlimit:4;stroke-dasharray:none;stroke-opacity:1;paint-order:stroke markers fill"
       id="path947"
       cx="110.41303"
       cy="144.73161"
       rx="9.0733509"
       ry="8.9218969" />
    <g
       id="g1204"
       transform="matrix(1.2826896,0,0,1.2826896,-46.467786,-52.372972)">
      <g
         id="g1187">
        <ellipse
           style="opacity:1;fill:#fff6d5;fill-opacity:1;fill-rule:nonzero;stroke:#d4aa00;stroke-width:3.5;stroke-linecap:round;stroke-linejoin:bevel;stroke-miterlimit:4;stroke-dasharray:none;stroke-opacity:1;paint-order:stroke markers fill"
           id="path951"
           cx="164.89268"
           cy="202.85793"
           rx="7.3357806"
           ry="7.4349127" />
        <rect
           style="opacity:1;fill:#ffdd55;fill-opacity:1;fill-rule:nonzero;stroke:#ffdd55;stroke-width:3.5;stroke-linecap:round;stroke-linejoin:bevel;stroke-miterlimit:4;stroke-dasharray:none;stroke-opacity:1;paint-order:stroke markers fill"
           id="rect953"
           width="2.7337842"
           height="0.84116435"
           x="163.4566"
           y="192.63239" />
      </g>
      <g
         transform="translate(-6.8470677,1.3710657)"
         id="g972">
        <path
           style="fill:#ff0000;stroke:#000000;stroke-width:0.26458332px;stroke-linecap:butt;stroke-linejoin:miter;stroke-opacity:1"
           d="m 171.15943,198.77652 -1.26194,2.18573 h 3.68028 l -1.2575,-2.17806 c 0,0 -0.56502,-1.21684 -1.16084,-0.008 z"
           id="path955"
           inkscape:connector-curvature="0" />
        <path
           inkscape:connector-curvature="0"
           id="path957"
           d="m 171.1596,203.41056 -1.26194,-2.18573 h 3.68028 l -1.2575,2.17806 c 0,0 -0.56502,1.21684 -1.16084,0.008 z"
           style="fill:#aaccff;stroke:#000000;stroke-width:0.26458332px;stroke-linecap:butt;stroke-linejoin:miter;stroke-opacity:1" />
        <ellipse
           style="opacity:1;fill:#ffffff;fill-opacity:1;fill-rule:nonzero;stroke:#000000;stroke-width:0.30000001;stroke-linecap:round;stroke-linejoin:bevel;stroke-miterlimit:4;stroke-dasharray:none;stroke-opacity:1;paint-order:stroke markers fill"
           id="path967"
           cx="171.74384"
           cy="201.10489"
           rx="0.52673632"
           ry="0.55618852" />
      </g>
      <path
         inkscape:connector-curvature="0"
         id="path989"
         d="m 157.46356,202.41796 h 0.61973"
         style="fill:none;stroke:#000000;stroke-width:0.26458332px;stroke-linecap:butt;stroke-linejoin:miter;stroke-opacity:1" />
      <path
         style="fill:none;stroke:#000000;stroke-width:0.26458332px;stroke-linecap:butt;stroke-linejoin:miter;stroke-opacity:1"
         d="m 159.66755,197.43982 0.44511,0.43122"
         id="path991"
         inkscape:connector-curvature="0" />
      <path
         style="fill:none;stroke:#000000;stroke-width:0.26458332px;stroke-linecap:butt;stroke-linejoin:miter;stroke-opacity:1"
         d="m 171.75109,202.41796 h 0.61973"
         id="path993"
         inkscape:connector-curvature="0" />
      <path
         inkscape:connector-curvature="0"
         id="path995"
         d="m 164.85356,209.78587 v 0.61973"
         style="fill:none;stroke:#000000;stroke-width:0.26458332px;stroke-linecap:butt;stroke-linejoin:miter;stroke-opacity:1" />
      <path
         style="fill:none;stroke:#000000;stroke-width:0.26458332px;stroke-linecap:butt;stroke-linejoin:miter;stroke-opacity:1"
         d="m 164.84529,195.29992 v 0.61973"
         id="path997"
         inkscape:connector-curvature="0" />
      <path
         inkscape:connector-curvature="0"
         id="path999"
         d="m 170.13513,207.57667 0.44511,0.43122"
         style="fill:none;stroke:#000000;stroke-width:0.26458332px;stroke-linecap:butt;stroke-linejoin:miter;stroke-opacity:1" />
      <path
         style="fill:none;stroke:#000000;stroke-width:0.26458332px;stroke-linecap:butt;stroke-linejoin:miter;stroke-opacity:1"
         d="m 159.74068,207.63541 -0.42989,0.44638"
         id="path1001"
         inkscape:connector-curvature="0" />
      <path
         inkscape:connector-curvature="0"
         id="path1003"
         d="m 169.84347,197.13506 -0.42989,0.44638"
         style="fill:none;stroke:#000000;stroke-width:0.26458332px;stroke-linecap:butt;stroke-linejoin:miter;stroke-opacity:1" />
    </g>
    <g
       id="g1183">
      <path
         inkscape:connector-curvature="0"
         id="path1177"
         d="m 87.410998,159.32942 c 0,0 -5.747956,1.92767 -2.873978,6.48397"
         style="fill:none;stroke:#000000;stroke-width:1;stroke-linecap:butt;stroke-linejoin:miter;stroke-opacity:1;stroke-miterlimit:4;stroke-dasharray:none" />
      <path
         inkscape:connector-curvature="0"
         id="path1179"
         d="m 84.046339,162.09825 c 0,0 6.413879,4.87174 13.388533,3.68009"
         style="fill:none;stroke:#000000;stroke-width:1;stroke-linecap:butt;stroke-linejoin:miter;stroke-opacity:1;stroke-miterlimit:4;stroke-dasharray:none" />
    </g>
  </g>
</svg>
