<?xml version="1.0" encoding="UTF-8" standalone="no"?>
<!-- Created with Inkscape (http://www.inkscape.org/) -->

<svg
   xmlns:dc="http://purl.org/dc/elements/1.1/"
   xmlns:cc="http://creativecommons.org/ns#"
   xmlns:rdf="http://www.w3.org/1999/02/22-rdf-syntax-ns#"
   xmlns:svg="http://www.w3.org/2000/svg"
   xmlns="http://www.w3.org/2000/svg"
   xmlns:sodipodi="http://sodipodi.sourceforge.net/DTD/sodipodi-0.dtd"
   xmlns:inkscape="http://www.inkscape.org/namespaces/inkscape"
   width="1920px"
   height="1000px"
   viewBox="0 0 1920 1000"
   version="1.1"
   id="SVGRoot"
   inkscape:version="0.92.4 (5da689c313, 2019-01-14)"
   sodipodi:docname="camino-5.svg">
  <defs
     id="defs815">
    <inkscape:perspective
       sodipodi:type="inkscape:persp3d"
       inkscape:vp_x="0 : 500 : 1"
       inkscape:vp_y="0 : 1000 : 0"
       inkscape:vp_z="1920 : 500 : 1"
       inkscape:persp3d-origin="960 : 333.33333 : 1"
       id="perspective1844" />
  </defs>
  <sodipodi:namedview
     id="base"
     pagecolor="#ffffff"
     bordercolor="#666666"
     borderopacity="1.0"
     inkscape:pageopacity="0.0"
     inkscape:pageshadow="2"
     inkscape:zoom="0.833"
     inkscape:cx="960"
     inkscape:cy="307.92317"
     inkscape:document-units="px"
     inkscape:current-layer="layer1"
     showgrid="false"
     inkscape:window-width="1920"
     inkscape:window-height="1050"
     inkscape:window-x="1920"
     inkscape:window-y="0"
     inkscape:window-maximized="1"
     showguides="true" />
  <metadata
     id="metadata818">
    <rdf:RDF>
      <cc:Work
         rdf:about="">
        <dc:format>image/svg+xml</dc:format>
        <dc:type
           rdf:resource="http://purl.org/dc/dcmitype/StillImage" />
        <dc:title />
      </cc:Work>
    </rdf:RDF>
  </metadata>
  <g
     inkscape:label="Capa 1"
     inkscape:groupmode="layer"
     id="layer1">
    <rect
       style="opacity:1;fill:#deaa87;fill-opacity:1;fill-rule:nonzero;stroke:none;stroke-width:1.00041223;stroke-linecap:round;stroke-linejoin:bevel;stroke-miterlimit:4;stroke-dasharray:none;stroke-dashoffset:6;stroke-opacity:1;paint-order:fill markers stroke"
       id="rect1371"
       width="1924.1489"
       height="1009.3458"
       x="-1926.0422"
       y="-2.6702271"
       transform="scale(-1,1)" />
    <path
       style="fill:#d38d5f;fill-opacity:1;stroke:#c87137;stroke-width:5;stroke-linecap:butt;stroke-linejoin:miter;stroke-miterlimit:4;stroke-dasharray:none;stroke-opacity:1"
       d="m 678.832,-2.5867845 c 0,0 -3.1305,7.3699891 4.1723,12.3497998 7.3028,4.9798107 818.5531,471.9961447 818.5531,471.9961447 0,0 12.2522,9.38464 -0.5214,18.24792 l -822.8599,506.35942 280.5028,0.2737 948.5036,-504.80833 c 0,0 32.4679,-26.07287 -1.3622,-44.44892 L 963.9816,10.414744 c 0,0 -5.5987,-3.4224122 -5.1496,-13.0015285 z"
       id="path3366"
       inkscape:connector-curvature="0" />
    <g
       transform="matrix(-0.85588523,0,0,0.85588523,3460.6374,-42.70185)"
       id="g80">
      <g
         id="g78"
         transform="translate(-135.16936,68.234531)">
        <path
           style="fill:#f9caca;fill-opacity:1;stroke:#ff99a9;stroke-width:0.47886518px;stroke-linecap:butt;stroke-linejoin:miter;stroke-opacity:1"
           d="m 2139.0331,133.66784 c 0,0 -18.2685,1.50667 -17.5151,37.29013 0.7533,35.78346 16.95,35.78346 16.95,35.78346 l 4.7084,-0.18833 c 0,0 26.9317,-2.63668 23.9184,-40.68015 -3.0134,-38.04346 -28.0617,-32.20511 -28.0617,-32.20511 z"
           id="path74"
           inkscape:connector-curvature="0" />
        <path
           style="fill:#d38d5f;fill-opacity:1;stroke:#c87137;stroke-width:0.47886518px;stroke-linecap:butt;stroke-linejoin:miter;stroke-opacity:1"
           d="m 2138.071,243.18112 h 7.3244 l -2.2486,-48.34603 16.0084,-12.14755 -16.1496,8.5692 -0.1884,-11.86504 13.1834,-16.43215 -13.56,11.95921 -0.1884,-8.28669 6.9213,-9.6992 -7.2509,6.78002 -0.4237,-21.75258 -0.8475,26.64926 -8.8046,-11.48837 8.3808,14.69005 -0.047,11.20587 -13.6071,-15.25505 13.0421,19.21007 -0.2354,8.05128 -12.0534,-9.1342 11.9121,12.52421 z"
           id="path76"
           inkscape:connector-curvature="0" />
      </g>
    </g>
    <g
       id="g88"
       transform="matrix(-1,0,0,1,3859.8164,-221.14203)">
      <path
         inkscape:connector-curvature="0"
         id="path82"
         d="m 2160.1058,315.48071 c 0,0 -2.6233,5.08159 -1.5365,14.61016 0,0 0.4553,15.38482 5.3581,16.42051 l -32.5815,-1.60085 c 0,0 12.769,-15.75968 12.1096,-27.31136 0,0 -0.1197,-1.43423 -2.0346,-4.37483"
         style="fill:#d38d5f;fill-opacity:1;stroke:#c87137;stroke-width:0.49569091px;stroke-linecap:butt;stroke-linejoin:miter;stroke-opacity:1" />
      <path
         inkscape:connector-curvature="0"
         id="path84"
         d="m 2159.2586,318.8241 c 0,0 11.5935,0.47655 17.2865,-8.46516 5.6931,-8.94173 8.0312,-22.67806 5.5026,-31.38405 -2.5286,-8.70599 -7.8611,-18.14518 -19.7871,-20.3827 -11.9259,-2.23752 -22.9172,-0.89614 -28.6845,2.39416 -5.7672,3.2903 -11.9028,15.66088 -11.8837,18.90546 0.019,3.24458 -8.354,27.54114 4.6282,32.11519 12.9823,4.57405 18.4342,5.44397 18.4342,5.44397 l 2.1523,-1.51786 1.1702,1.79703 1.7476,-1.60333 0.9499,2.17316 2.7278,-2.24163 0.872,1.87493 1.7895,-0.46735 1.5539,1.31452 2.3878,-3.29973 z"
         style="fill:#f38ccb;fill-opacity:1;stroke:#e38570;stroke-width:0.49569091px;stroke-linecap:butt;stroke-linejoin:miter;stroke-opacity:1" />
      <path
         inkscape:connector-curvature="0"
         id="path86"
         d="m 2130.5042,340.22414 -4.0442,6.47216 45.977,1.1179 -8.4231,-6.14705 -2.897,0.37429 -1.3126,-1.12266 -0.9175,2.34228 -4.6218,-0.13098 -0.4313,-2.62719 -1.8616,2.14283 -1.3621,-1.55577 -0.7541,2.23588 -2.9084,-3.57315 -0.5698,2.6975 -3.1934,-2.22441 -1.4854,2.36318 -5.1671,-2.21867 1.9719,2.67085 -4.2096,-0.74836 0.5261,-1.1569 -2.5132,-0.10822 -0.9611,3.88288 z"
         style="fill:#f9caca;fill-opacity:1;stroke:#ff99a9;stroke-width:0.49569091px;stroke-linecap:butt;stroke-linejoin:miter;stroke-opacity:1" />
    </g>
    <g
       id="g108"
       transform="matrix(-1,0,0,1,3357.2502,-606.7467)">
      <g
         id="g106">
        <path
           style="fill:#f9caca;fill-opacity:1;stroke:#ff99a9;stroke-width:0.85239673px;stroke-linecap:butt;stroke-linejoin:miter;stroke-opacity:1"
           d="m 2035.8248,746.66465 c 0,0 20.6781,9.88701 27.6803,-5.26451 7.0021,-15.15152 6.6739,-27.09298 -0.8753,-37.622 0,0 8.315,-16.69235 0.2188,-30.68825 -8.0962,-13.99589 -22.8663,-16.30715 -31.8378,-5.26451 0,0 -13.3478,-20.15923 -31.1814,3.21007 0,0 -18.3806,-1.28403 -18.1618,20.67283 0,0 -9.5185,5.90653 -10.5031,20.54444 l 0.7658,11.29944 c 0,0 0,9.3734 8.4244,19.90242 0,0 12.2538,11.94146 29.1027,3.59528 0,0 11.9254,16.43555 26.3674,-0.38521 z"
           id="path102"
           inkscape:connector-curvature="0" />
        <path
           style="fill:#d38d5f;fill-opacity:1;stroke:#c87137;stroke-width:0.85239673px;stroke-linecap:butt;stroke-linejoin:miter;stroke-opacity:1"
           d="m 2019.4135,777.36832 13.3478,-0.38521 -3.6104,-43.27173 7.1115,-11.29943 -0.6565,-1.41243 -7.0021,6.03492 -0.9846,-19.77401 h -3.0635 l -1.7505,32.22908 -4.0482,-4.23729 -1.094,2.05444 4.3763,7.44736 z"
           id="path104"
           inkscape:connector-curvature="0" />
      </g>
    </g>
    <g
       id="g120"
       transform="matrix(-0.87413097,0,0,0.87413097,3314.6835,-147.12001)">
      <path
         inkscape:connector-curvature="0"
         id="path116"
         d="m 1994.432,469.96503 h 47.8719 c 0,0 7.9786,2.45496 3.2732,-5.52367 -4.7053,-7.97865 -8.3877,-13.91148 -8.3877,-13.91148 0,0 -4.91,-6.54658 2.8641,-6.54658 0,0 4.3216,0.80622 0.6328,-5.84815 l -5.5694,-9.76458 c 0,0 -3.0379,-5.49708 2.7485,-4.84611 0,0 2.9808,7.4e-4 -0.5482,-5.57403 l -16.1619,-27.99325 c 0,0 -2.276,-3.05184 -4.424,0.22144 -2.1481,3.2733 -16.5857,28.72721 -16.5857,28.72721 0,0 -4.077,6.25606 0.9864,4.87515 5.0634,-1.38092 -1.074,9.20612 -1.074,9.20612 l -4.5519,7.56948 c 0,0 -2.1481,4.1939 3.8358,3.47787 5.984,-0.71603 -0.2557,8.49009 -0.2557,8.49009 l -7.4025,12.82151 c 0,0 -3.0312,4.36326 2.7483,4.61898 z"
         style="fill:#fdeaf2;fill-opacity:1;stroke:#ff99a9;stroke-width:0.73563743px;stroke-linecap:butt;stroke-linejoin:miter;stroke-opacity:1" />
      <path
         style="fill:#d38d5f;fill-opacity:1;stroke:#c87137;stroke-width:0.73563743px;stroke-linecap:butt;stroke-linejoin:miter;stroke-opacity:1"
         d="m 2011.8982,485.4587 12.4795,-0.30688 -3.3756,-34.47182 6.6488,-9.00154 -0.6137,-1.12519 -6.5466,4.80764 -0.9206,-15.7527 h -2.8641 l -1.6366,25.67486 -3.7848,-3.37558 -1.0229,1.63664 4.0916,5.93284 z"
         id="path118"
         inkscape:connector-curvature="0" />
    </g>
    <g
       id="g126"
       transform="matrix(-1,0,0,1,3187.9355,-260)">
      <path
         style="fill:#fdeaf2;fill-opacity:1;stroke:#ff99a9;stroke-width:0.64304346px;stroke-linecap:butt;stroke-linejoin:miter;stroke-opacity:1"
         d="m 1357.3421,419.07523 h 41.8463 c 0,0 6.9744,2.14595 2.8613,-4.82841 -4.1131,-6.97439 -7.332,-12.16046 -7.332,-12.16046 0,0 -4.292,-5.72257 2.5036,-5.72257 0,0 3.7776,0.70474 0.5532,-5.11205 l -4.8684,-8.53552 c 0,0 -2.6556,-4.80517 2.4025,-4.23613 0,0 2.6056,6.4e-4 -0.4792,-4.87244 l -14.1276,-24.46976 c 0,0 -1.9895,-2.66771 -3.8672,0.19357 -1.8777,2.86129 -14.498,25.11134 -14.498,25.11134 0,0 -3.5639,5.46862 0.8622,4.26152 4.4261,-1.20711 -0.9388,8.04735 -0.9388,8.04735 l -3.979,6.61672 c 0,0 -1.8777,3.66602 3.353,3.04011 5.2308,-0.6259 -0.2235,7.42146 -0.2235,7.42146 l -6.4707,11.20767 c 0,0 -2.6497,3.81406 2.4023,4.0376 z"
         id="path122"
         inkscape:connector-curvature="0" />
      <path
         inkscape:connector-curvature="0"
         id="path124"
         d="m 1372.6099,432.61872 10.9087,-0.26825 -2.9507,-30.13288 5.8119,-7.86853 -0.5364,-0.98356 -5.7226,4.2025 -0.8048,-13.76992 h -2.5036 l -1.4306,22.44319 -3.3084,-2.9507 -0.8941,1.43064 3.5766,5.18608 z"
         style="fill:#d38d5f;fill-opacity:1;stroke:#c87137;stroke-width:0.64304346px;stroke-linecap:butt;stroke-linejoin:miter;stroke-opacity:1" />
    </g>
    <g
       id="g134"
       transform="matrix(-0.85588523,0,0,0.85588523,3608.1767,-80.681234)">
      <g
         id="g132">
        <path
           inkscape:connector-curvature="0"
           id="path128"
           d="m 2139.0331,133.66784 c 0,0 -18.2685,1.50667 -17.5151,37.29013 0.7533,35.78346 16.95,35.78346 16.95,35.78346 l 4.7084,-0.18833 c 0,0 26.9317,-2.63668 23.9184,-40.68015 -3.0134,-38.04346 -28.0617,-32.20511 -28.0617,-32.20511 z"
           style="fill:#f9caca;fill-opacity:1;stroke:#ff99a9;stroke-width:0.47886518px;stroke-linecap:butt;stroke-linejoin:miter;stroke-opacity:1" />
        <path
           inkscape:connector-curvature="0"
           id="path130"
           d="m 2138.071,243.18112 h 7.3244 l -2.2486,-48.34603 16.0084,-12.14755 -16.1496,8.5692 -0.1884,-11.86504 13.1834,-16.43215 -13.56,11.95921 -0.1884,-8.28669 6.9213,-9.6992 -7.2509,6.78002 -0.4237,-21.75258 -0.8475,26.64926 -8.8046,-11.48837 8.3808,14.69005 -0.047,11.20587 -13.6071,-15.25505 13.0421,19.21007 -0.2354,8.05128 -12.0534,-9.1342 11.9121,12.52421 z"
           style="fill:#d38d5f;fill-opacity:1;stroke:#c87137;stroke-width:0.47886518px;stroke-linecap:butt;stroke-linejoin:miter;stroke-opacity:1" />
      </g>
    </g>
    <g
       transform="matrix(-0.89753269,0,0,0.89753269,3245.2125,-391.3448)"
       id="g144">
      <path
         style="fill:#d38d5f;fill-opacity:1;stroke:#c87137;stroke-width:0.62061983px;stroke-linecap:butt;stroke-linejoin:miter;stroke-opacity:1"
         d="m 2012.0522,593.35298 c 0,0 -5.4495,29.64606 -7.8547,29.41494 l 29.9958,-1.7992 c 0,0 -6.0839,-23.29859 -4.3695,-28.50892 z"
         id="path136"
         inkscape:connector-curvature="0" />
      <path
         style="fill:#f9cadc;fill-opacity:1;stroke:#ff99a9;stroke-width:0.62061983px;stroke-linecap:butt;stroke-linejoin:miter;stroke-opacity:1"
         d="m 2010.2396,559.88808 -21.1991,29.3464 c 0,0 -1.6515,8.164 3.6151,11.09751 5.2666,2.93351 11.1605,-0.66148 11.1605,-0.66148 0,0 3.7619,6.86358 10.7181,4.84446 6.9562,-2.0191 7.8779,-3.49104 7.8779,-3.49104 0,0 3.7105,4.69127 8.506,3.50488 4.7955,-1.18639 6.999,-4.26905 6.999,-4.26905 0,0 6.2677,4.24344 11.947,2.88188 5.6793,-1.36156 7.1705,-8.76069 7.1705,-8.76069 l 0.9976,-4.06549 -3.2875,-1.8764 -11.5388,-26.0768 z"
         id="path138"
         inkscape:connector-curvature="0" />
      <path
         style="fill:#f9cadc;fill-opacity:1;stroke:#ff99a9;stroke-width:0.62061983px;stroke-linecap:butt;stroke-linejoin:miter;stroke-opacity:1"
         d="m 2017.1348,533.24185 -13.6799,24.17371 c 0,0 -5.2048,6.34873 -7.3655,7.18144 -2.1607,0.83272 1.0873,5.82633 1.0873,5.82633 0,0 7.9824,3.54125 9.378,-1.95979 0,0 4.5283,5.20333 9.7285,4.3159 5.2003,-0.88742 12.1944,-4.2033 12.343,-5.74953 0.1485,-1.54622 2.1594,5.49587 5.3708,5.45767 3.2113,-0.0382 6.3451,-0.17054 7.777,-5.14793 0,0 1.2658,7.57737 6.899,7.59849 5.6331,0.0211 3.8007,-5.26993 3.8007,-5.26993 l -2.4086,-1.09839 -14.3542,-34.67002 z"
         id="path140"
         inkscape:connector-curvature="0" />
      <path
         style="fill:#f9cadc;fill-opacity:1;stroke:#ff99a9;stroke-width:0.62061983px;stroke-linecap:butt;stroke-linejoin:miter;stroke-opacity:1"
         d="m 2023.5056,521.97687 c 0,0 4.1524,-9.83096 8.2233,-0.77032 4.071,9.06063 13.982,25.01114 13.982,25.01114 0,0 -3.6043,5.02874 -8.4202,-3.49663 0,0 -0.1302,4.06213 -4.8499,2.65498 -4.7197,-1.40716 -4.9627,-4.29143 -4.9627,-4.29143 0,0 -1.4121,5.67285 -6.9049,4.19141 -5.4928,-1.48144 -5.1724,-3.01116 -5.1724,-3.01116 0,0 -3.5911,3.98966 -7.2717,2.59565 -3.6806,-1.394 0.3648,-5.6001 0.3648,-5.6001 z"
         id="path142"
         inkscape:connector-curvature="0" />
    </g>
    <g
       transform="matrix(-0.76100887,0,0,0.76100887,3025.318,-465.95756)"
       id="g152">
      <g
         id="g150">
        <path
           inkscape:connector-curvature="0"
           id="path146"
           d="m 2035.8248,746.66465 c 0,0 20.6781,9.88701 27.6803,-5.26451 7.0021,-15.15152 6.6739,-27.09298 -0.8753,-37.622 0,0 8.315,-16.69235 0.2188,-30.68825 -8.0962,-13.99589 -22.8663,-16.30715 -31.8378,-5.26451 0,0 -13.3478,-20.15923 -31.1814,3.21007 0,0 -18.3806,-1.28403 -18.1618,20.67283 0,0 -9.5185,5.90653 -10.5031,20.54444 l 0.7658,11.29944 c 0,0 0,9.3734 8.4244,19.90242 0,0 12.2538,11.94146 29.1027,3.59528 0,0 11.9254,16.43555 26.3674,-0.38521 z"
           style="fill:#f9caca;fill-opacity:1;stroke:#ff99a9;stroke-width:0.85239673px;stroke-linecap:butt;stroke-linejoin:miter;stroke-opacity:1" />
        <path
           inkscape:connector-curvature="0"
           id="path148"
           d="m 2019.4135,777.36832 13.3478,-0.38521 -3.6104,-43.27173 7.1115,-11.29943 -0.6565,-1.41243 -7.0021,6.03492 -0.9846,-19.77401 h -3.0635 l -1.7505,32.22908 -4.0482,-4.23729 -1.094,2.05444 4.3763,7.44736 z"
           style="fill:#d38d5f;fill-opacity:1;stroke:#c87137;stroke-width:0.85239673px;stroke-linecap:butt;stroke-linejoin:miter;stroke-opacity:1" />
      </g>
    </g>
    <g
       id="g160"
       transform="matrix(-1,0,0,1,3630.0011,-397.82897)">
      <g
         id="g158"
         transform="matrix(0.85089846,0,0,0.85089846,299.80989,88.044851)">
        <path
           inkscape:connector-curvature="0"
           id="path154"
           d="m 2145.7773,505.5957 a 35.974312,26.29587 0 0 0 -35.9746,26.29492 35.974312,26.29587 0 0 0 14.0489,20.80665 28.040461,22.176359 0 0 0 -3.9532,11.30078 28.040461,22.176359 0 0 0 8.5352,15.90039 21.868118,18.388016 0 0 0 -2.5781,8.64453 21.868118,18.388016 0 0 0 21.8672,18.38867 21.868118,18.388016 0 0 0 21.8691,-18.38867 21.868118,18.388016 0 0 0 -2.4316,-8.41602 28.040461,22.176359 0 0 0 8.8203,-16.1289 28.040461,22.176359 0 0 0 -5.4239,-13.0625 35.974312,26.29587 0 0 0 11.1934,-19.04493 35.974312,26.29587 0 0 0 -35.9727,-26.29492 z"
           style="opacity:1;fill:#f9caca;fill-opacity:1;fill-rule:nonzero;stroke:#ff99a9;stroke-width:10.26062679;stroke-linecap:round;stroke-linejoin:bevel;stroke-miterlimit:4;stroke-dasharray:none;stroke-opacity:1;paint-order:stroke markers fill" />
        <path
           style="fill:#d38d5f;fill-opacity:1;stroke:#c87137;stroke-width:0.92913455px;stroke-linecap:butt;stroke-linejoin:miter;stroke-opacity:1"
           d="m 2139.9368,626.25563 18.6561,-0.32746 -5.0463,-36.78467 9.9397,-9.60549 -0.9175,-1.20068 -9.7868,5.1302 -1.3763,-16.8096 h -4.2817 l -2.4467,27.39747 -5.6581,-3.60206 -1.5291,1.74646 6.1167,6.33089 z"
           id="path156"
           inkscape:connector-curvature="0" />
      </g>
    </g>
    <g
       id="g166"
       transform="matrix(-1,0,0,1,3607.3673,-5.5059)">
      <ellipse
         style="opacity:1;fill:#fbd5e5;fill-opacity:1;fill-rule:nonzero;stroke:#ff99a9;stroke-width:6.16182327;stroke-linecap:round;stroke-linejoin:bevel;stroke-miterlimit:4;stroke-dasharray:none;stroke-opacity:1;paint-order:stroke markers fill"
         id="ellipse162"
         cx="2024.7144"
         cy="173.39873"
         rx="30.655979"
         ry="33.442886" />
      <path
         inkscape:connector-curvature="0"
         id="path164"
         d="m 2019.2611,225.37614 10.453,-0.25704 -2.8274,-28.87418 5.5692,-7.53984 -0.5141,-0.94248 -5.4835,4.02696 -0.7711,-13.19473 h -2.3991 l -1.3709,21.5057 -3.1702,-2.82745 -0.8568,1.37088 3.4272,4.96945 z"
         style="fill:#d38d5f;stroke:#c87137;stroke-width:0.61618233px;stroke-linecap:butt;stroke-linejoin:miter;stroke-opacity:1" />
    </g>
    <g
       transform="matrix(-1,0,0,1,3708.346,19.45294)"
       id="g172">
      <path
         style="fill:#fdd7f2;fill-opacity:1;stroke:#ff99a9;stroke-width:0.59032071px;stroke-linecap:butt;stroke-linejoin:miter;stroke-opacity:1"
         d="m 2139.8622,101.86497 c 0,0 14.693,-0.16417 20.8494,-13.461776 6.1562,-13.297605 -0.903,-27.333966 -0.903,-27.333966 0,0 3.7759,-15.021371 -3.2012,-21.916423 0,0 2.5445,-18.058476 -5.3355,-23.147684 -7.8801,-5.089208 -17.7301,-4.104205 -23.6402,2.380433 -5.9101,6.484637 -3.5296,18.222644 -2.7087,19.53599 0,0 -8.0443,10.753004 -3.858,23.558104 0,0 -4.9251,8.45465 -4.843,12.887185 l 0.082,4.432535 c 0,0 -0.1642,20.520993 23.5581,23.065602 z"
         id="path168"
         inkscape:connector-curvature="0" />
      <path
         style="fill:#d38d5f;fill-opacity:1;stroke:#c87137;stroke-width:0.59032071px;stroke-linecap:butt;stroke-linejoin:miter;stroke-opacity:1"
         d="m 2135.3476,110.40171 9.9321,0.0821 -2.6266,-28.072722 5.0892,-7.14131 -0.9029,-1.231262 -4.6788,4.514619 -1.2313,-12.640932 -2.3804,-0.08208 -0.9851,20.356831 -3.1192,-2.872943 -0.7387,1.641681 3.7759,4.432535 z"
         id="path170"
         inkscape:connector-curvature="0" />
    </g>
    <g
       transform="matrix(-0.76652264,0,0,0.76652264,3305.8226,-188.51101)"
       id="g184">
      <path
         style="fill:#eb9ac0;fill-opacity:1;stroke:#f9caca;stroke-width:0.61572111px;stroke-linecap:butt;stroke-linejoin:miter;stroke-opacity:1"
         d="m 2103.3113,468.81467 c 0,0 13.168,2.92158 21.7318,2.13298 8.5638,-0.78861 26.9293,-2.93005 26.9293,-2.93005 0,0 14.2098,-3.57506 12.2625,-5.57409 -1.9473,-1.99905 -13.9966,-10.20893 -13.9966,-10.20893 l -34.9903,1.13878 z"
         id="path174"
         inkscape:connector-curvature="0" />
      <path
         style="fill:#d38d5f;fill-opacity:1;stroke:#c87137;stroke-width:0.61572111px;stroke-linecap:butt;stroke-linejoin:miter;stroke-opacity:1"
         d="m 2127.0288,458.32458 c 0,0 -2.2937,23.01599 -3.4674,23.63677 l 26.5743,0.0651 -6.4369,-25.79583 -16.7598,-0.2661 z"
         id="path176"
         inkscape:connector-curvature="0" />
      <path
         style="fill:#eb9ac0;fill-opacity:1;stroke:#f9caca;stroke-width:0.61572111px;stroke-linecap:butt;stroke-linejoin:miter;stroke-opacity:1"
         d="m 2110.9026,427.08021 -10.3419,37.60278 c 0,0 -0.4209,7.67031 6.0786,4.95077 6.4995,-2.71952 6.5149,-2.47786 6.5149,-2.47786 l 0.1802,-3.83322 1.1104,3.14432 2.688,-0.65667 0.8311,-8.84904 0.867,7.89151 c 0,0 15.381,-6.13689 34.8221,-2.82661 l 0.1867,-4.68292 2.5179,5.23845 c 0,0 7.593,2.06376 8.8466,-1.10995 1.2536,-3.17371 -2.4262,-10.46127 -2.4262,-10.46127 l -12.103,-27.13314 z"
         id="path178"
         inkscape:connector-curvature="0" />
      <path
         style="fill:#eb9ac0;fill-opacity:1;stroke:#f9caca;stroke-width:0.61572111px;stroke-linecap:butt;stroke-linejoin:miter;stroke-opacity:1"
         d="m 2115.5743,406.15713 -11.9626,34.06635 c 0,0 -1.3051,4.26891 3.963,1.26392 5.268,-3.005 4.9505,-3.22741 4.9505,-3.22741 l 2.8056,-9.27824 -0.9789,8.43384 c 0,0 4.2268,-2.21067 10.5706,-2.6151 l 0.652,-4.0453 0.9227,4.00557 c 0,0 1.7484,-3.02327 20.3359,0.22011 l 0.3038,-4.75104 1.4984,5.42476 c 0,0 6.9761,0.95049 7.6381,1.81823 0.6619,0.86774 1.6389,0.0168 0.8961,-2.11966 -0.7428,-2.13649 -15.4089,-31.41141 -15.4089,-31.41141 z"
         id="path180"
         inkscape:connector-curvature="0" />
      <path
         style="fill:#eb9ac0;fill-opacity:1;stroke:#f9caca;stroke-width:0.61572111px;stroke-linecap:butt;stroke-linejoin:miter;stroke-opacity:1"
         d="m 2109.4395,413.64575 12.9596,-27.94233 c 0,0 2.8453,-7.70354 9.29,0.13569 6.4447,7.83923 17.6848,24.29015 17.6848,24.29015 0,0 0.1771,2.77918 -2.0402,2.25325 -2.2174,-0.52592 -4.6572,-0.73436 -4.6572,-0.73436 l -2.4473,-3.18042 c 0,0 -0.046,-0.725 -0.6042,0.0385 -0.5579,0.76352 -0.8138,1.50778 -0.8138,1.50778 0,0 -3.6813,-2.55578 -10.3787,-1.03688 l -1.0408,-4.90797 -0.9771,0.8509 0.085,4.18032 c 0,0 -5.9389,1.0459 -7.4674,1.81064 -1.5285,0.76473 -0.8406,-1.76629 -0.8406,-1.76629 l -1.1171,0.55652 -0.6506,2.16466 -5.4274,2.40853 c 0,0 -1.7213,0.59504 -1.5566,-0.62871 z"
         id="path182"
         inkscape:connector-curvature="0" />
    </g>
    <g
       id="g192"
       transform="matrix(-0.76100887,0,0,0.76100887,3199.3121,-315.24786)">
      <g
         id="g190">
        <path
           style="fill:#f9caca;fill-opacity:1;stroke:#ff99a9;stroke-width:0.85239673px;stroke-linecap:butt;stroke-linejoin:miter;stroke-opacity:1"
           d="m 2035.8248,746.66465 c 0,0 20.6781,9.88701 27.6803,-5.26451 7.0021,-15.15152 6.6739,-27.09298 -0.8753,-37.622 0,0 8.315,-16.69235 0.2188,-30.68825 -8.0962,-13.99589 -22.8663,-16.30715 -31.8378,-5.26451 0,0 -13.3478,-20.15923 -31.1814,3.21007 0,0 -18.3806,-1.28403 -18.1618,20.67283 0,0 -9.5185,5.90653 -10.5031,20.54444 l 0.7658,11.29944 c 0,0 0,9.3734 8.4244,19.90242 0,0 12.2538,11.94146 29.1027,3.59528 0,0 11.9254,16.43555 26.3674,-0.38521 z"
           id="path186"
           inkscape:connector-curvature="0" />
        <path
           style="fill:#d38d5f;fill-opacity:1;stroke:#c87137;stroke-width:0.85239673px;stroke-linecap:butt;stroke-linejoin:miter;stroke-opacity:1"
           d="m 2019.4135,777.36832 13.3478,-0.38521 -3.6104,-43.27173 7.1115,-11.29943 -0.6565,-1.41243 -7.0021,6.03492 -0.9846,-19.77401 h -3.0635 l -1.7505,32.22908 -4.0482,-4.23729 -1.094,2.05444 4.3763,7.44736 z"
           id="path188"
           inkscape:connector-curvature="0" />
      </g>
    </g>
    <g
       id="g200"
       transform="matrix(-0.85588523,0,0,0.85588523,3353.1796,-108.4677)">
      <g
         transform="translate(-135.16936,68.234531)"
         id="g198">
        <path
           inkscape:connector-curvature="0"
           id="path194"
           d="m 2139.0331,133.66784 c 0,0 -18.2685,1.50667 -17.5151,37.29013 0.7533,35.78346 16.95,35.78346 16.95,35.78346 l 4.7084,-0.18833 c 0,0 26.9317,-2.63668 23.9184,-40.68015 -3.0134,-38.04346 -28.0617,-32.20511 -28.0617,-32.20511 z"
           style="fill:#f9caca;fill-opacity:1;stroke:#ff99a9;stroke-width:0.47886518px;stroke-linecap:butt;stroke-linejoin:miter;stroke-opacity:1" />
        <path
           inkscape:connector-curvature="0"
           id="path196"
           d="m 2138.071,243.18112 h 7.3244 l -2.2486,-48.34603 16.0084,-12.14755 -16.1496,8.5692 -0.1884,-11.86504 13.1834,-16.43215 -13.56,11.95921 -0.1884,-8.28669 6.9213,-9.6992 -7.2509,6.78002 -0.4237,-21.75258 -0.8475,26.64926 -8.8046,-11.48837 8.3808,14.69005 -0.047,11.20587 -13.6071,-15.25505 13.0421,19.21007 -0.2354,8.05128 -12.0534,-9.1342 11.9121,12.52421 z"
           style="fill:#d38d5f;fill-opacity:1;stroke:#c87137;stroke-width:0.47886518px;stroke-linecap:butt;stroke-linejoin:miter;stroke-opacity:1" />
      </g>
    </g>
    <g
       id="g206"
       transform="matrix(0.85588523,0,0,0.85588523,-410.9832,675.69912)">
      <path
         style="fill:#f9caca;fill-opacity:1;stroke:#ff99a9;stroke-width:0.47886518px;stroke-linecap:butt;stroke-linejoin:miter;stroke-opacity:1"
         d="m 2139.0331,133.66784 c 0,0 -18.2685,1.50667 -17.5151,37.29013 0.7533,35.78346 16.95,35.78346 16.95,35.78346 l 4.7084,-0.18833 c 0,0 26.9317,-2.63668 23.9184,-40.68015 -3.0134,-38.04346 -28.0617,-32.20511 -28.0617,-32.20511 z"
         id="path202"
         inkscape:connector-curvature="0" />
      <path
         style="fill:#d38d5f;fill-opacity:1;stroke:#c87137;stroke-width:0.47886518px;stroke-linecap:butt;stroke-linejoin:miter;stroke-opacity:1"
         d="m 2138.071,243.18112 h 7.3244 l -2.2486,-48.34603 16.0084,-12.14755 -16.1496,8.5692 -0.1884,-11.86504 13.1834,-16.43215 -13.56,11.95921 -0.1884,-8.28669 6.9213,-9.6992 -7.2509,6.78002 -0.4237,-21.75258 -0.8475,26.64926 -8.8046,-11.48837 8.3808,14.69005 -0.047,11.20587 -13.6071,-15.25505 13.0421,19.21007 -0.2354,8.05128 -12.0534,-9.1342 11.9121,12.52421 z"
         id="path204"
         inkscape:connector-curvature="0" />
    </g>
    <path
       inkscape:connector-curvature="0"
       id="path218"
       d="m 1736.5421,927.98247 c 0,0 11.2673,-11.54985 8.1345,-22.91229 l 20.4827,-1.41075 c 0,0 -1.8066,10.43735 3.1434,21.0964 l 3.8694,4.00391 z"
       style="fill:#d38d5f;fill-opacity:1;stroke:#c87137;stroke-width:0.47455865px;stroke-linecap:butt;stroke-linejoin:miter;stroke-opacity:1" />
    <path
       inkscape:connector-curvature="0"
       id="path220"
       d="m 1710.803,874.01549 c 0,0 -1.3421,16.39175 11.5261,15.76225 l 0.063,5.61128 c 0,0 -10.1615,1.72879 -11.9166,-6.3714 -1.7553,-8.1002 -3.8826,-16.17136 -3.8826,-16.17136 z"
       style="fill:#d38d5f;fill-opacity:1;stroke:#c87137;stroke-width:0.47455865px;stroke-linecap:butt;stroke-linejoin:miter;stroke-opacity:1" />
    <path
       inkscape:connector-curvature="0"
       id="path222"
       d="m 1765.8244,909.78539 c 0,0 17.7616,-2.69612 20.6266,-13.96487 2.8651,-11.26875 5.8343,-45.19772 -2.5642,-54.46452 -8.3984,-9.26678 -44.1208,-16.02748 -58.6571,4.01451 -14.5362,20.04199 -3.5565,33.60038 -3.5565,33.60038 0,0 -6.7898,8.95403 0.5939,19.61044 7.3836,10.65641 22.3158,12.4868 22.3158,12.4868 l 4.8207,-2.997 2.2211,2.07322 2.1313,-1.47673 2.1484,1.14285 4.9079,-1.88055 2.0495,2.27381 3.0181,-2.10754 z"
       style="fill:#f7bfd8;fill-opacity:1;stroke:#ff99a9;stroke-width:0.47455865px;stroke-linecap:butt;stroke-linejoin:miter;stroke-opacity:1" />
    <path
       inkscape:connector-curvature="0"
       id="path224"
       d="m 1711.8547,880.29849 c 0,0 9.3711,-4.66244 6.5404,-14.5508 -2.8307,-9.88836 -5.54,-13.42114 -11.1658,-13.54387 -5.6258,-0.12272 -11.575,5.20879 -10.8201,14.88468 0.7549,9.6759 7.8455,14.17732 10.2645,13.9886 2.419,-0.18871 5.181,-0.77861 5.181,-0.77861 z"
       style="fill:#f7bfd8;fill-opacity:1;stroke:#ff99a9;stroke-width:0.47455865px;stroke-linecap:butt;stroke-linejoin:miter;stroke-opacity:1" />
    <path
       style="fill:#f7bfd8;fill-opacity:1;stroke:#ff99a9;stroke-width:0.47455865px;stroke-linecap:butt;stroke-linejoin:miter;stroke-opacity:1"
       d="m 1737.6735,918.95361 c -3.2986,0.0799 -5.8359,2.68229 -5.8359,2.68229 0,0 -7.2326,5.69272 -6.2994,10.17208 0.9332,4.47937 15.1647,3.77924 15.1647,3.77924 0,0 2.7881,-0.0111 5.5706,-0.33577 4.3836,0.86825 9.8707,0.60095 9.8707,0.60095 0,0 3.668,-0.005 6.7897,-0.49602 4.5004,1.36271 11.5552,1.02446 11.5552,1.02446 0,0 9.098,-4e-4 10.8245,-1.91346 1.7264,-1.91307 -1.7266,-5.17953 -1.7266,-5.17953 0,0 -2.0531,-2.84684 -7.3257,-7.60617 -5.2726,-4.75933 -10.6375,0.74784 -10.6375,0.74784 0,0 -1.6058,1.28199 -3.2051,3.08482 -1.1199,-1.1769 -2.5927,-2.63916 -4.5003,-4.3611 -5.2726,-4.75933 -10.6395,0.74783 -10.6395,0.74783 0,10e-6 -0.8505,0.68528 -1.9096,1.72079 -0.8377,-0.82604 -1.778,-1.7262 -2.8922,-2.73189 -1.6477,-1.48729 -3.3044,-1.9727 -4.8036,-1.93636 z"
       id="path226"
       inkscape:connector-curvature="0" />
    <g
       id="g234"
       transform="translate(-191.9065,53.253336)">
      <path
         style="fill:#f9caca;fill-opacity:1;stroke:#ff99a9;stroke-width:0.85239673px;stroke-linecap:butt;stroke-linejoin:miter;stroke-opacity:1"
         d="m 2035.8248,746.66465 c 0,0 20.6781,9.88701 27.6803,-5.26451 7.0021,-15.15152 6.6739,-27.09298 -0.8753,-37.622 0,0 8.315,-16.69235 0.2188,-30.68825 -8.0962,-13.99589 -22.8663,-16.30715 -31.8378,-5.26451 0,0 -13.3478,-20.15923 -31.1814,3.21007 0,0 -18.3806,-1.28403 -18.1618,20.67283 0,0 -9.5185,5.90653 -10.5031,20.54444 l 0.7658,11.29944 c 0,0 0,9.3734 8.4244,19.90242 0,0 12.2538,11.94146 29.1027,3.59528 0,0 11.9254,16.43555 26.3674,-0.38521 z"
         id="path230"
         inkscape:connector-curvature="0" />
      <path
         style="fill:#d38d5f;fill-opacity:1;stroke:#c87137;stroke-width:0.85239673px;stroke-linecap:butt;stroke-linejoin:miter;stroke-opacity:1"
         d="m 2019.4135,777.36832 13.3478,-0.38521 -3.6104,-43.27173 7.1115,-11.29943 -0.6565,-1.41243 -7.0021,6.03492 -0.9846,-19.77401 h -3.0635 l -1.7505,32.22908 -4.0482,-4.23729 -1.094,2.05444 4.3763,7.44736 z"
         id="path232"
         inkscape:connector-curvature="0" />
    </g>
    <path
       style="fill:#fdeaf2;fill-opacity:1;stroke:#ff99a9;stroke-width:0.64304346px;stroke-linecap:butt;stroke-linejoin:miter;stroke-opacity:1"
       d="m 1821.2578,911.66773 h 41.8463 c 0,0 6.9744,2.14595 2.8612,-4.82841 -4.113,-6.97439 -7.3319,-12.16046 -7.3319,-12.16046 0,0 -4.292,-5.72257 2.5036,-5.72257 0,0 3.7776,0.70474 0.5531,-5.11205 l -4.8684,-8.53552 c 0,0 -2.6555,-4.80517 2.4026,-4.23613 0,0 2.6056,6.4e-4 -0.4792,-4.87244 l -14.1276,-24.46976 c 0,0 -1.9895,-2.66771 -3.8672,0.19357 -1.8777,2.86129 -14.498,25.11134 -14.498,25.11134 0,0 -3.5639,5.46862 0.8622,4.26152 4.4261,-1.20711 -0.9388,8.04735 -0.9388,8.04735 l -3.979,6.61672 c 0,0 -1.8777,3.66602 3.353,3.04011 5.2308,-0.6259 -0.2235,7.42146 -0.2235,7.42146 l -6.4708,11.20767 c 0,0 -2.6496,3.81406 2.4024,4.0376 z"
       id="path238"
       inkscape:connector-curvature="0" />
    <path
       inkscape:connector-curvature="0"
       id="path240"
       d="m 1836.5256,925.21122 10.9087,-0.26825 -2.9507,-30.13288 5.8119,-7.86853 -0.5365,-0.98356 -5.7226,4.2025 -0.8047,-13.76992 h -2.5036 l -1.4306,22.44319 -3.3084,-2.9507 -0.8941,1.43064 3.5766,5.18608 z"
       style="fill:#d38d5f;fill-opacity:1;stroke:#c87137;stroke-width:0.64304346px;stroke-linecap:butt;stroke-linejoin:miter;stroke-opacity:1" />
    <path
       inkscape:connector-curvature="0"
       id="path244"
       d="m 1610.055,923.69102 h 41.8463 c 0,0 6.9744,2.14595 2.8612,-4.82841 -4.113,-6.97439 -7.3319,-12.16046 -7.3319,-12.16046 0,0 -4.292,-5.72257 2.5036,-5.72257 0,0 3.7776,0.70474 0.5531,-5.11205 l -4.8683,-8.53552 c 0,0 -2.6556,-4.80517 2.4025,-4.23613 0,0 2.6056,6.4e-4 -0.4792,-4.87244 l -14.1276,-24.46976 c 0,0 -1.9895,-2.66771 -3.8672,0.19357 -1.8777,2.86129 -14.498,25.11134 -14.498,25.11134 0,0 -3.5639,5.46862 0.8622,4.26152 4.4261,-1.20711 -0.9388,8.04735 -0.9388,8.04735 l -3.979,6.61672 c 0,0 -1.8777,3.66602 3.353,3.04011 5.2308,-0.6259 -0.2235,7.42146 -0.2235,7.42146 l -6.4708,11.20767 c 0,0 -2.6496,3.81406 2.4024,4.0376 z"
       style="fill:#fdeaf2;fill-opacity:1;stroke:#ff99a9;stroke-width:0.64304346px;stroke-linecap:butt;stroke-linejoin:miter;stroke-opacity:1" />
    <path
       style="fill:#d38d5f;fill-opacity:1;stroke:#c87137;stroke-width:0.64304346px;stroke-linecap:butt;stroke-linejoin:miter;stroke-opacity:1"
       d="m 1625.3228,937.23451 10.9087,-0.26825 -2.9507,-30.13288 5.8119,-7.86853 -0.5365,-0.98356 -5.7225,4.2025 -0.8048,-13.76992 h -2.5036 l -1.4306,22.44319 -3.3084,-2.9507 -0.8941,1.43064 3.5766,5.18608 z"
       id="path246"
       inkscape:connector-curvature="0" />
    <g
       id="g380"
       transform="matrix(-1,0,0,1,2294.4909,-538.84076)">
      <path
         inkscape:connector-curvature="0"
         id="path250"
         d="m 593.18516,819.07527 h -41.8463 c 0,0 -6.9744,2.14595 -2.8613,-4.82841 4.1131,-6.97439 7.332,-12.16046 7.332,-12.16046 0,0 4.292,-5.72257 -2.5036,-5.72257 0,0 -3.7776,0.70474 -0.5532,-5.11205 l 4.8684,-8.53552 c 0,0 2.6556,-4.80517 -2.4025,-4.23613 0,0 -2.6056,6.4e-4 0.4792,-4.87244 l 14.1276,-24.46976 c 0,0 1.9895,-2.66771 3.8672,0.19357 1.8777,2.86129 14.498,25.11134 14.498,25.11134 0,0 3.5639,5.46862 -0.8622,4.26152 -4.4261,-1.20711 0.9388,8.04735 0.9388,8.04735 l 3.979,6.61672 c 0,0 1.8777,3.66602 -3.353,3.04011 -5.2308,-0.6259 0.2235,7.42146 0.2235,7.42146 l 6.4707,11.20767 c 0,0 2.6497,3.81406 -2.4023,4.0376 z"
         style="fill:#fdeaf2;fill-opacity:1;stroke:#ff99a9;stroke-width:0.64304346px;stroke-linecap:butt;stroke-linejoin:miter;stroke-opacity:1" />
      <path
         style="fill:#d38d5f;fill-opacity:1;stroke:#c87137;stroke-width:0.64304346px;stroke-linecap:butt;stroke-linejoin:miter;stroke-opacity:1"
         d="m 577.91736,832.61876 -10.9087,-0.26825 2.9507,-30.13288 -5.8119,-7.86853 0.5364,-0.98356 5.7226,4.2025 0.8048,-13.76992 h 2.5036 l 1.4306,22.44319 3.3084,-2.9507 0.8941,1.43064 -3.5766,5.18608 z"
         id="path252"
         inkscape:connector-curvature="0" />
    </g>
    <g
       id="g260"
       transform="matrix(0.85588523,0,0,0.85588523,-38.3499,69.94614)">
      <path
         inkscape:connector-curvature="0"
         id="path256"
         d="m 2139.0331,133.66784 c 0,0 -18.2685,1.50667 -17.5151,37.29013 0.7533,35.78346 16.95,35.78346 16.95,35.78346 l 4.7084,-0.18833 c 0,0 26.9317,-2.63668 23.9184,-40.68015 -3.0134,-38.04346 -28.0617,-32.20511 -28.0617,-32.20511 z"
         style="fill:#f9caca;fill-opacity:1;stroke:#ff99a9;stroke-width:0.47886518px;stroke-linecap:butt;stroke-linejoin:miter;stroke-opacity:1" />
      <path
         inkscape:connector-curvature="0"
         id="path258"
         d="m 2138.071,243.18112 h 7.3244 l -2.2486,-48.34603 16.0084,-12.14755 -16.1496,8.5692 -0.1884,-11.86504 13.1834,-16.43215 -13.56,11.95921 -0.1884,-8.28669 6.9213,-9.6992 -7.2509,6.78002 -0.4237,-21.75258 -0.8475,26.64926 -8.8046,-11.48837 8.3808,14.69005 -0.047,11.20587 -13.6071,-15.25505 13.0421,19.21007 -0.2354,8.05128 -12.0534,-9.1342 11.9121,12.52421 z"
         style="fill:#d38d5f;fill-opacity:1;stroke:#c87137;stroke-width:0.47886518px;stroke-linecap:butt;stroke-linejoin:miter;stroke-opacity:1" />
    </g>
    <path
       style="fill:#d38d5f;fill-opacity:1;stroke:#c87137;stroke-width:0.55702657px;stroke-linecap:butt;stroke-linejoin:miter;stroke-opacity:1"
       d="m 1726.0139,801.20894 c 0,0 -4.8911,26.6083 -7.0499,26.40087 l 26.9222,-1.61484 c 0,0 -5.4605,-20.91125 -3.9217,-25.58769 z"
       id="path264"
       inkscape:connector-curvature="0" />
    <path
       style="fill:#f9cadc;fill-opacity:1;stroke:#ff99a9;stroke-width:0.55702657px;stroke-linecap:butt;stroke-linejoin:miter;stroke-opacity:1"
       d="m 1724.387,771.17309 -19.0269,26.33936 c 0,0 -1.4823,7.32745 3.2447,9.96038 4.7269,2.63292 10.0169,-0.5937 10.0169,-0.5937 0,0 3.3764,6.16028 9.6198,4.34806 6.2435,-1.81221 7.0707,-3.13333 7.0707,-3.13333 0,0 3.3303,4.21057 7.6344,3.14575 4.3041,-1.06482 6.2819,-3.83161 6.2819,-3.83161 0,0 5.6254,3.80862 10.7228,2.58658 5.0973,-1.22205 6.4357,-7.86301 6.4357,-7.86301 l 0.8954,-3.64891 -2.9506,-1.68413 -10.3565,-23.40478 z"
       id="path266"
       inkscape:connector-curvature="0" />
    <path
       style="fill:#f9cadc;fill-opacity:1;stroke:#ff99a9;stroke-width:0.55702657px;stroke-linecap:butt;stroke-linejoin:miter;stroke-opacity:1"
       d="m 1730.5757,747.25723 -12.2782,21.6967 c 0,0 -4.6715,5.69819 -6.6108,6.44557 -1.9393,0.7474 0.9759,5.22933 0.9759,5.22933 0,0 7.1645,3.17838 8.4171,-1.75898 0,0 4.0643,4.67016 8.7316,3.87366 4.6675,-0.79649 10.9449,-3.7726 11.0783,-5.16039 0.1333,-1.38778 1.9381,4.93272 4.8204,4.89844 2.8823,-0.0343 5.695,-0.15307 6.9802,-4.62044 0,0 1.1361,6.80094 6.192,6.8199 5.0559,0.0189 3.4113,-4.72994 3.4113,-4.72994 l -2.1618,-0.98584 -12.8834,-31.11748 z"
       id="path268"
       inkscape:connector-curvature="0" />
    <path
       style="fill:#f9cadc;fill-opacity:1;stroke:#ff99a9;stroke-width:0.55702657px;stroke-linecap:butt;stroke-linejoin:miter;stroke-opacity:1"
       d="m 1736.2937,737.14654 c 0,0 3.7269,-8.8236 7.3806,-0.69138 3.6539,8.13221 12.5494,22.44831 12.5494,22.44831 0,0 -3.235,4.51346 -7.5575,-3.13834 0,0 -0.1168,3.6459 -4.3529,2.38293 -4.2361,-1.26297 -4.4542,-3.85169 -4.4542,-3.85169 0,0 -1.2674,5.09156 -6.1974,3.76192 -4.9299,-1.32964 -4.6424,-2.70261 -4.6424,-2.70261 0,0 -3.2231,3.58085 -6.5265,2.32968 -3.3035,-1.25116 0.3274,-5.02627 0.3274,-5.02627 z"
       id="path270"
       inkscape:connector-curvature="0" />
    <g
       id="g278"
       transform="matrix(0.76100887,0,0,0.76100887,140.0257,194.04246)">
      <path
         inkscape:connector-curvature="0"
         id="path274"
         d="m 2035.8248,746.66465 c 0,0 20.6781,9.88701 27.6803,-5.26451 7.0021,-15.15152 6.6739,-27.09298 -0.8753,-37.622 0,0 8.315,-16.69235 0.2188,-30.68825 -8.0962,-13.99589 -22.8663,-16.30715 -31.8378,-5.26451 0,0 -13.3478,-20.15923 -31.1814,3.21007 0,0 -18.3806,-1.28403 -18.1618,20.67283 0,0 -9.5185,5.90653 -10.5031,20.54444 l 0.7658,11.29944 c 0,0 0,9.3734 8.4244,19.90242 0,0 12.2538,11.94146 29.1027,3.59528 0,0 11.9254,16.43555 26.3674,-0.38521 z"
         style="fill:#f9caca;fill-opacity:1;stroke:#ff99a9;stroke-width:0.85239673px;stroke-linecap:butt;stroke-linejoin:miter;stroke-opacity:1" />
      <path
         inkscape:connector-curvature="0"
         id="path276"
         d="m 2019.4135,777.36832 13.3478,-0.38521 -3.6104,-43.27173 7.1115,-11.29943 -0.6565,-1.41243 -7.0021,6.03492 -0.9846,-19.77401 h -3.0635 l -1.7505,32.22908 -4.0482,-4.23729 -1.094,2.05444 4.3763,7.44736 z"
         style="fill:#d38d5f;fill-opacity:1;stroke:#c87137;stroke-width:0.85239673px;stroke-linecap:butt;stroke-linejoin:miter;stroke-opacity:1" />
    </g>
    <g
       id="g286"
       transform="matrix(0.85089846,0,0,0.85089846,-164.8475,350.21596)">
      <path
         inkscape:connector-curvature="0"
         id="path282"
         d="m 2145.7773,505.5957 a 35.974312,26.29587 0 0 0 -35.9746,26.29492 35.974312,26.29587 0 0 0 14.0489,20.80665 28.040461,22.176359 0 0 0 -3.9532,11.30078 28.040461,22.176359 0 0 0 8.5352,15.90039 21.868118,18.388016 0 0 0 -2.5781,8.64453 21.868118,18.388016 0 0 0 21.8672,18.38867 21.868118,18.388016 0 0 0 21.8691,-18.38867 21.868118,18.388016 0 0 0 -2.4316,-8.41602 28.040461,22.176359 0 0 0 8.8203,-16.1289 28.040461,22.176359 0 0 0 -5.4239,-13.0625 35.974312,26.29587 0 0 0 11.1934,-19.04493 35.974312,26.29587 0 0 0 -35.9727,-26.29492 z"
         style="opacity:1;fill:#f9caca;fill-opacity:1;fill-rule:nonzero;stroke:#ff99a9;stroke-width:10.26062679;stroke-linecap:round;stroke-linejoin:bevel;stroke-miterlimit:4;stroke-dasharray:none;stroke-opacity:1;paint-order:stroke markers fill" />
      <path
         style="fill:#d38d5f;fill-opacity:1;stroke:#c87137;stroke-width:0.92913455px;stroke-linecap:butt;stroke-linejoin:miter;stroke-opacity:1"
         d="m 2139.9368,626.25563 18.6561,-0.32746 -5.0463,-36.78467 9.9397,-9.60549 -0.9175,-1.20068 -9.7868,5.1302 -1.3763,-16.8096 h -4.2817 l -2.4467,27.39747 -5.6581,-3.60206 -1.5291,1.74646 6.1167,6.33089 z"
         id="path284"
         inkscape:connector-curvature="0" />
    </g>
    <ellipse
       style="opacity:1;fill:#fbd5e5;fill-opacity:1;fill-rule:nonzero;stroke:#ff99a9;stroke-width:6.16182327;stroke-linecap:round;stroke-linejoin:bevel;stroke-miterlimit:4;stroke-dasharray:none;stroke-opacity:1;paint-order:stroke markers fill"
       id="ellipse290"
       cx="1582.6908"
       cy="827.89288"
       rx="30.655979"
       ry="33.442886" />
    <path
       inkscape:connector-curvature="0"
       id="path292"
       d="m 1577.2375,879.87028 10.453,-0.25704 -2.8274,-28.87418 5.5692,-7.53984 -0.5141,-0.94248 -5.4835,4.02696 -0.7711,-13.19473 h -2.3991 l -1.3709,21.5057 -3.1702,-2.82745 -0.8568,1.37088 3.4272,4.96945 z"
       style="fill:#d38d5f;stroke:#c87137;stroke-width:0.61618233px;stroke-linecap:butt;stroke-linejoin:miter;stroke-opacity:1" />
    <path
       style="fill:#fdd7f2;fill-opacity:1;stroke:#ff99a9;stroke-width:0.59032071px;stroke-linecap:butt;stroke-linejoin:miter;stroke-opacity:1"
       d="m 1596.8599,781.31795 c 0,0 14.693,-0.16417 20.8494,-13.46178 6.1562,-13.2976 -0.903,-27.33396 -0.903,-27.33396 0,0 3.7759,-15.02137 -3.2012,-21.91643 0,0 2.5445,-18.05847 -5.3355,-23.14768 -7.8801,-5.08921 -17.7301,-4.1042 -23.6402,2.38043 -5.9101,6.48464 -3.5296,18.22265 -2.7087,19.53599 0,0 -8.0443,10.75301 -3.858,23.55811 0,0 -4.9251,8.45465 -4.843,12.88718 l 0.082,4.43254 c 0,0 -0.1642,20.52099 23.5581,23.0656 z"
       id="path296"
       inkscape:connector-curvature="0" />
    <path
       style="fill:#d38d5f;fill-opacity:1;stroke:#c87137;stroke-width:0.59032071px;stroke-linecap:butt;stroke-linejoin:miter;stroke-opacity:1"
       d="m 1592.3453,789.85469 9.9321,0.0821 -2.6266,-28.07272 5.0892,-7.14131 -0.9029,-1.23126 -4.6788,4.51461 -1.2313,-12.64093 -2.3804,-0.0821 -0.9851,20.35683 -3.1192,-2.87294 -0.7387,1.64168 3.7759,4.43254 z"
       id="path298"
       inkscape:connector-curvature="0" />
    <path
       style="fill:#eb9ac0;fill-opacity:1;stroke:#f9caca;stroke-width:0.47196418px;stroke-linecap:butt;stroke-linejoin:miter;stroke-opacity:1"
       d="m 1471.7569,830.84609 c 0,0 10.0935,2.23946 16.6579,1.63498 6.5643,-0.60449 20.6419,-2.24595 20.6419,-2.24595 0,0 10.8921,-2.74037 9.3995,-4.27267 -1.4927,-1.53232 -10.7287,-7.82538 -10.7287,-7.82538 l -26.8209,0.8729 z"
       id="path302"
       inkscape:connector-curvature="0" />
    <path
       style="fill:#d38d5f;fill-opacity:1;stroke:#c87137;stroke-width:0.47196418px;stroke-linecap:butt;stroke-linejoin:miter;stroke-opacity:1"
       d="m 1489.9369,822.8052 c 0,0 -1.7582,17.64227 -2.6579,18.11812 l 20.3698,0.0499 -4.934,-19.77309 -12.8468,-0.20397 z"
       id="path304"
       inkscape:connector-curvature="0" />
    <path
       style="fill:#eb9ac0;fill-opacity:1;stroke:#f9caca;stroke-width:0.47196418px;stroke-linecap:butt;stroke-linejoin:miter;stroke-opacity:1"
       d="m 1477.5758,798.85568 -7.9273,28.82338 c 0,0 -0.3227,5.87947 4.6594,3.79488 4.982,-2.08457 4.9938,-1.89934 4.9938,-1.89934 l 0.1381,-2.93825 0.8512,2.4102 2.0604,-0.50336 0.637,-6.78299 0.6646,6.04903 c 0,0 11.7899,-4.70407 26.6919,-2.16667 l 0.1431,-3.58956 1.9301,4.01539 c 0,0 5.8202,1.58192 6.7811,-0.8508 0.9609,-2.43272 -1.8598,-8.0188 -1.8598,-8.0188 l -9.2772,-20.79817 z"
       id="path306"
       inkscape:connector-curvature="0" />
    <path
       style="fill:#eb9ac0;fill-opacity:1;stroke:#f9caca;stroke-width:0.47196418px;stroke-linecap:butt;stroke-linejoin:miter;stroke-opacity:1"
       d="m 1481.1567,782.81767 -9.1696,26.11262 c 0,0 -1.0003,3.27222 3.0378,0.96883 4.038,-2.3034 3.7946,-2.47389 3.7946,-2.47389 l 2.1506,-7.11198 -0.7504,6.46473 c 0,0 3.24,-1.69453 8.1026,-2.00453 l 0.4998,-3.10081 0.7073,3.07036 c 0,0 1.3402,-2.31741 15.5879,0.16871 l 0.2329,-3.64177 1.1485,4.1582 c 0,0 5.3474,0.72857 5.8548,1.39371 0.5074,0.66514 1.2563,0.0129 0.6869,-1.62477 -0.5694,-1.63766 -11.8113,-24.07755 -11.8113,-24.07755 z"
       id="path308"
       inkscape:connector-curvature="0" />
    <path
       style="fill:#eb9ac0;fill-opacity:1;stroke:#f9caca;stroke-width:0.47196418px;stroke-linecap:butt;stroke-linejoin:miter;stroke-opacity:1"
       d="m 1476.4543,788.55786 9.9338,-21.41843 c 0,0 2.181,-5.90493 7.121,0.10401 4.94,6.00895 13.5558,18.61895 13.5558,18.61895 0,0 0.1358,2.13031 -1.5639,1.72717 -1.6996,-0.40313 -3.5698,-0.5629 -3.5698,-0.5629 l -1.8759,-2.43787 c 0,0 -0.035,-0.55573 -0.4632,0.0295 -0.4276,0.58526 -0.6237,1.15575 -0.6237,1.15575 0,0 -2.8218,-1.95906 -7.9556,-0.79479 l -0.7978,-3.76207 -0.7489,0.65223 0.065,3.20431 c 0,0 -4.5523,0.80171 -5.724,1.3879 -1.1716,0.58618 -0.6443,-1.3539 -0.6443,-1.3539 l -0.8563,0.42658 -0.4987,1.65926 -4.1602,1.8462 c 0,0 -1.3194,0.45611 -1.1932,-0.48192 z"
       id="path310"
       inkscape:connector-curvature="0" />
    <g
       id="g318"
       transform="matrix(0.76100887,0,0,0.76100887,-33.9684,344.75216)">
      <path
         style="fill:#f9caca;fill-opacity:1;stroke:#ff99a9;stroke-width:0.85239673px;stroke-linecap:butt;stroke-linejoin:miter;stroke-opacity:1"
         d="m 2035.8248,746.66465 c 0,0 20.6781,9.88701 27.6803,-5.26451 7.0021,-15.15152 6.6739,-27.09298 -0.8753,-37.622 0,0 8.315,-16.69235 0.2188,-30.68825 -8.0962,-13.99589 -22.8663,-16.30715 -31.8378,-5.26451 0,0 -13.3478,-20.15923 -31.1814,3.21007 0,0 -18.3806,-1.28403 -18.1618,20.67283 0,0 -9.5185,5.90653 -10.5031,20.54444 l 0.7658,11.29944 c 0,0 0,9.3734 8.4244,19.90242 0,0 12.2538,11.94146 29.1027,3.59528 0,0 11.9254,16.43555 26.3674,-0.38521 z"
         id="path314"
         inkscape:connector-curvature="0" />
      <path
         style="fill:#d38d5f;fill-opacity:1;stroke:#c87137;stroke-width:0.85239673px;stroke-linecap:butt;stroke-linejoin:miter;stroke-opacity:1"
         d="m 2019.4135,777.36832 13.3478,-0.38521 -3.6104,-43.27173 7.1115,-11.29943 -0.6565,-1.41243 -7.0021,6.03492 -0.9846,-19.77401 h -3.0635 l -1.7505,32.22908 -4.0482,-4.23729 -1.094,2.05444 4.3763,7.44736 z"
         id="path316"
         inkscape:connector-curvature="0" />
    </g>
    <g
       transform="matrix(0.85588523,0,0,0.85588523,-303.5254,609.93326)"
       id="g326">
      <path
         inkscape:connector-curvature="0"
         id="path322"
         d="m 2139.0331,133.66784 c 0,0 -18.2685,1.50667 -17.5151,37.29013 0.7533,35.78346 16.95,35.78346 16.95,35.78346 l 4.7084,-0.18833 c 0,0 26.9317,-2.63668 23.9184,-40.68015 -3.0134,-38.04346 -28.0617,-32.20511 -28.0617,-32.20511 z"
         style="fill:#f9caca;fill-opacity:1;stroke:#ff99a9;stroke-width:0.47886518px;stroke-linecap:butt;stroke-linejoin:miter;stroke-opacity:1" />
      <path
         inkscape:connector-curvature="0"
         id="path324"
         d="m 2138.071,243.18112 h 7.3244 l -2.2486,-48.34603 16.0084,-12.14755 -16.1496,8.5692 -0.1884,-11.86504 13.1834,-16.43215 -13.56,11.95921 -0.1884,-8.28669 6.9213,-9.6992 -7.2509,6.78002 -0.4237,-21.75258 -0.8475,26.64926 -8.8046,-11.48837 8.3808,14.69005 -0.047,11.20587 -13.6071,-15.25505 13.0421,19.21007 -0.2354,8.05128 -12.0534,-9.1342 11.9121,12.52421 z"
         style="fill:#d38d5f;fill-opacity:1;stroke:#c87137;stroke-width:0.47886518px;stroke-linecap:butt;stroke-linejoin:miter;stroke-opacity:1" />
    </g>
  </g>
</svg>
